<?xml version="1.0" encoding="UTF-8" standalone="no"?><svg xmlns="http://www.w3.org/2000/svg" xmlns:xlink="http://www.w3.org/1999/xlink" clip-rule="evenodd" stroke-miterlimit="4.00" viewBox="0 0 1920 1080"><desc>SVG generated by Keynote</desc><defs></defs><g transform="matrix(1.00, 0.00, -0.00, -1.00, 0.0, 1080.0)"><path d="M 0.0 1080.0 L 1920.0 1080.0 L 1920.0 0.0 L 0.0 0.0 Z M 0.0 1080.0 " fill="#FEFFFF"></path><g><clipPath id="clip-943"><path d="M 346.2 626.3 L 1573.7 626.3 L 1573.7 981.1 L 346.2 981.1 Z M 346.2 626.3 "></path></clipPath><g clip-path="url(#clip-943)"><text xml:space="preserve" font-family="MyriadPro-Regular" font-size="160.0" fill="#3A3A3C" transform="matrix(1.00, 0.00, -0.00, -1.00, 541.0, 666.0)">C</text><text xml:space="preserve" font-family="MyriadPro-Regular" font-size="160.0" fill="#3A3A3C" transform="matrix(1.00, 0.00, -0.00, -1.00, 631.9, 666.0)">u</text><text xml:space="preserve" font-family="MyriadPro-Regular" font-size="160.0" fill="#3A3A3C" transform="matrix(1.00, 0.00, -0.00, -1.00, 720.0, 666.0)">s</text><text xml:space="preserve" font-family="MyriadPro-Regular" font-size="160.0" fill="#3A3A3C" transform="matrix(1.00, 0.00, -0.00, -1.00, 783.4, 666.0)">t</text><text xml:space="preserve" font-family="MyriadPro-Regular" font-size="160.0" fill="#3A3A3C" transform="matrix(1.00, 0.00, -0.00, -1.00, 835.4, 666.0)">o</text><text xml:space="preserve" font-family="MyriadPro-Regular" font-size="160.0" fill="#3A3A3C" transform="matrix(1.00, 0.00, -0.00, -1.00, 923.2, 666.0)">m</text><text xml:space="preserve" font-family="MyriadPro-Regular" font-size="160.0" fill="#3A3A3C" transform="matrix(1.00, 0.00, -0.00, -1.00, 1056.7, 666.0)">i</text><text xml:space="preserve" font-family="MyriadPro-Regular" font-size="160.0" fill="#3A3A3C" transform="matrix(1.00, 0.00, -0.00, -1.00, 1094.1, 666.0)">z</text><text xml:space="preserve" font-family="MyriadPro-Regular" font-size="160.0" fill="#3A3A3C" transform="matrix(1.00, 0.00, -0.00, -1.00, 1162.6, 666.0)">i</text><text xml:space="preserve" font-family="MyriadPro-Regular" font-size="160.0" fill="#3A3A3C" transform="matrix(1.00, 0.00, -0.00, -1.00, 1200.0, 666.0)">n</text><text xml:space="preserve" font-family="MyriadPro-Regular" font-size="160.0" fill="#3A3A3C" transform="matrix(1.00, 0.00, -0.00, -1.00, 1288.8, 666.0)">g</text></g></g><image xlink:href="../../293415CD-D1BA-41BB-8703-BAEDA9FFCE27/assets/D46DF088088909B9C5E92A8A0F478E42.png" width="961.00" height="168.00" transform="matrix(1.06, 0.00, -0.00, -1.06, 452.0, 629.0)"></image><text xml:space="preserve" font-family="MyriadPro-Regular" font-size="160.0" fill="#3A3A3C" transform="matrix(1.00, 0.00, -0.00, -1.00, 636.0, 331.0)">S</text><text xml:space="preserve" font-family="MyriadPro-Regular" font-size="160.0" fill="#3A3A3C" transform="matrix(1.00, 0.00, -0.00, -1.00, 714.9, 331.0)">p</text><text xml:space="preserve" font-family="MyriadPro-Regular" font-size="160.0" fill="#3A3A3C" transform="matrix(1.00, 0.00, -0.00, -1.00, 805.9, 331.0)">a</text><text xml:space="preserve" font-family="MyriadPro-Regular" font-size="160.0" fill="#3A3A3C" transform="matrix(1.00, 0.00, -0.00, -1.00, 881.8, 331.0)">w</text><text xml:space="preserve" font-family="MyriadPro-Regular" font-size="160.0" fill="#3A3A3C" transform="matrix(1.00, 0.00, -0.00, -1.00, 999.5, 331.0)">n</text><text xml:space="preserve" font-family="MyriadPro-Regular" font-size="160.0" fill="#3A3A3C" transform="matrix(1.00, 0.00, -0.00, -1.00, 1088.3, 331.0)">e</text><text xml:space="preserve" font-family="MyriadPro-Regular" font-size="160.0" fill="#3A3A3C" transform="matrix(1.00, 0.00, -0.00, -1.00, 1168.5, 331.0)">r</text><text xml:space="preserve" font-family="MyriadPro-Regular" font-size="160.0" fill="#3A3A3C" transform="matrix(1.00, 0.00, -0.00, -1.00, 1220.8, 331.0)">s</text></g></svg>