<?xml version="1.0" encoding="UTF-8" standalone="no"?><svg xmlns="http://www.w3.org/2000/svg" xmlns:xlink="http://www.w3.org/1999/xlink" clip-rule="evenodd" stroke-miterlimit="4.00" viewBox="0 0 1920 1080"><desc>SVG generated by Keynote</desc><defs></defs><g transform="matrix(1.00, 0.00, -0.00, -1.00, 0.0, 1080.0)"><path d="M 0.0 1080.0 L 1920.0 1080.0 L 1920.0 0.0 L 0.0 0.0 Z M 0.0 1080.0 " fill="#FEFFFF"></path><g><clipPath id="clip-942"><path d="M 191.0 965.0 L 284.0 965.0 L 284.0 857.0 L 191.0 857.0 Z M 190.9 965.1 "></path></clipPath><g clip-path="url(#clip-942)"><image xlink:href="../../501581DD-E1D1-4738-8AE3-F573C3B06ED2/assets/D6FB576FDB4D798F7363F3BF6AC733AF.png" width="108.00" height="108.00" transform="matrix(0.99, 0.00, -0.00, -1.00, 184.0, 965.0)"></image></g></g><text xml:space="preserve" font-family="MyriadPro-Regular" font-size="112.0" fill="#000000" transform="matrix(1.00, 0.00, -0.00, -1.00, 444.0, 884.0)">U</text><text xml:space="preserve" font-family="MyriadPro-Regular" font-size="112.0" fill="#000000" transform="matrix(1.00, 0.00, -0.00, -1.00, 515.8, 884.0)">s</text><text xml:space="preserve" font-family="MyriadPro-Regular" font-size="112.0" fill="#000000" transform="matrix(1.00, 0.00, -0.00, -1.00, 560.1, 884.0)">i</text><text xml:space="preserve" font-family="MyriadPro-Regular" font-size="112.0" fill="#000000" transform="matrix(1.00, 0.00, -0.00, -1.00, 586.4, 884.0)">n</text><text xml:space="preserve" font-family="MyriadPro-Regular" font-size="112.0" fill="#000000" transform="matrix(1.00, 0.00, -0.00, -1.00, 648.5, 884.0)">g</text><text xml:space="preserve" font-family="MyriadPro-Regular" font-size="112.0" fill="#000000" transform="matrix(1.00, 0.00, -0.00, -1.00, 711.1, 884.0)"> </text><text xml:space="preserve" font-family="MyriadPro-Regular" font-size="112.0" fill="#000000" transform="matrix(1.00, 0.00, -0.00, -1.00, 734.9, 884.0)">D</text><text xml:space="preserve" font-family="MyriadPro-Regular" font-size="112.0" fill="#000000" transform="matrix(1.00, 0.00, -0.00, -1.00, 809.9, 884.0)">o</text><text xml:space="preserve" font-family="MyriadPro-Regular" font-size="112.0" fill="#000000" transform="matrix(1.00, 0.00, -0.00, -1.00, 871.4, 884.0)">c</text><text xml:space="preserve" font-family="MyriadPro-Regular" font-size="112.0" fill="#000000" transform="matrix(1.00, 0.00, -0.00, -1.00, 921.6, 884.0)">k</text><text xml:space="preserve" font-family="MyriadPro-Regular" font-size="112.0" fill="#000000" transform="matrix(1.00, 0.00, -0.00, -1.00, 974.1, 884.0)">e</text><text xml:space="preserve" font-family="MyriadPro-Regular" font-size="112.0" fill="#000000" transform="matrix(1.00, 0.00, -0.00, -1.00, 1030.2, 884.0)">r</text><text xml:space="preserve" font-family="MyriadPro-Regular" font-size="112.0" fill="#000000" transform="matrix(1.00, 0.00, -0.00, -1.00, 1066.8, 884.0)">S</text><text xml:space="preserve" font-family="MyriadPro-Regular" font-size="112.0" fill="#000000" transform="matrix(1.00, 0.00, -0.00, -1.00, 1122.0, 884.0)">p</text><text xml:space="preserve" font-family="MyriadPro-Regular" font-size="112.0" fill="#000000" transform="matrix(1.00, 0.00, -0.00, -1.00, 1185.8, 884.0)">a</text><text xml:space="preserve" font-family="MyriadPro-Regular" font-size="112.0" fill="#000000" transform="matrix(1.00, 0.00, -0.00, -1.00, 1238.9, 884.0)">w</text><text xml:space="preserve" font-family="MyriadPro-Regular" font-size="112.0" fill="#000000" transform="matrix(1.00, 0.00, -0.00, -1.00, 1321.3, 884.0)">n</text><text xml:space="preserve" font-family="MyriadPro-Regular" font-size="112.0" fill="#000000" transform="matrix(1.00, 0.00, -0.00, -1.00, 1383.5, 884.0)">e</text><text xml:space="preserve" font-family="MyriadPro-Regular" font-size="112.0" fill="#000000" transform="matrix(1.00, 0.00, -0.00, -1.00, 1439.6, 884.0)">r</text><text xml:space="preserve" font-family="Helvetica-Light" font-size="37.5" fill="#000000" transform="matrix(1.00, 0.00, -0.00, -1.00, 258.5, 606.1)">•</text><text xml:space="preserve" font-family="Helvetica-Light" font-size="50.0" fill="#000000" transform="matrix(1.00, 0.00, -0.00, -1.00, 307.0, 602.0)">T</text><text xml:space="preserve" font-family="Helvetica-Light" font-size="50.0" fill="#000000" transform="matrix(1.00, 0.00, -0.00, -1.00, 334.8, 602.0)">h</text><text xml:space="preserve" font-family="Helvetica-Light" font-size="50.0" fill="#000000" transform="matrix(1.00, 0.00, -0.00, -1.00, 362.6, 602.0)">e</text><text xml:space="preserve" font-family="Helvetica-Light" font-size="50.0" fill="#000000" transform="matrix(1.00, 0.00, -0.00, -1.00, 390.4, 602.0)">r</text><text xml:space="preserve" font-family="Helvetica-Light" font-size="50.0" fill="#000000" transform="matrix(1.00, 0.00, -0.00, -1.00, 406.1, 602.0)">e</text><text xml:space="preserve" font-family="Helvetica-Light" font-size="50.0" fill="#000000" transform="matrix(1.00, 0.00, -0.00, -1.00, 433.9, 602.0)"> </text><text xml:space="preserve" font-family="Helvetica-Light" font-size="50.0" fill="#000000" transform="matrix(1.00, 0.00, -0.00, -1.00, 447.9, 602.0)">i</text><text xml:space="preserve" font-family="Helvetica-Light" font-size="50.0" fill="#000000" transform="matrix(1.00, 0.00, -0.00, -1.00, 458.9, 602.0)">s</text><text xml:space="preserve" font-family="Helvetica-Light" font-size="50.0" fill="#000000" transform="matrix(1.00, 0.00, -0.00, -1.00, 483.9, 602.0)"> </text><text xml:space="preserve" font-family="Helvetica-Light" font-size="50.0" fill="#000000" transform="matrix(1.00, 0.00, -0.00, -1.00, 497.9, 602.0)">*</text><text xml:space="preserve" font-family="Helvetica-Light" font-size="50.0" fill="#000000" transform="matrix(1.00, 0.00, -0.00, -1.00, 517.3, 602.0)">l</text><text xml:space="preserve" font-family="Helvetica-Light" font-size="50.0" fill="#000000" transform="matrix(1.00, 0.00, -0.00, -1.00, 528.4, 602.0)">o</text><text xml:space="preserve" font-family="Helvetica-Light" font-size="50.0" fill="#000000" transform="matrix(1.00, 0.00, -0.00, -1.00, 556.2, 602.0)">a</text><text xml:space="preserve" font-family="Helvetica-Light" font-size="50.0" fill="#000000" transform="matrix(1.00, 0.00, -0.00, -1.00, 584.0, 602.0)">d</text><text xml:space="preserve" font-family="Helvetica-Light" font-size="50.0" fill="#000000" transform="matrix(1.00, 0.00, -0.00, -1.00, 614.5, 602.0)">s</text><text xml:space="preserve" font-family="Helvetica-Light" font-size="50.0" fill="#000000" transform="matrix(1.00, 0.00, -0.00, -1.00, 639.5, 602.0)">*</text><text xml:space="preserve" font-family="Helvetica-Light" font-size="50.0" fill="#000000" transform="matrix(1.00, 0.00, -0.00, -1.00, 659.0, 602.0)"> </text><text xml:space="preserve" font-family="Helvetica-Light" font-size="50.0" fill="#000000" transform="matrix(1.00, 0.00, -0.00, -1.00, 672.9, 602.0)">t</text><text xml:space="preserve" font-family="Helvetica-Light" font-size="50.0" fill="#000000" transform="matrix(1.00, 0.00, -0.00, -1.00, 686.8, 602.0)">o</text><text xml:space="preserve" font-family="Helvetica-Light" font-size="50.0" fill="#000000" transform="matrix(1.00, 0.00, -0.00, -1.00, 714.6, 602.0)"> </text><text xml:space="preserve" font-family="Helvetica-Light" font-size="50.0" fill="#000000" transform="matrix(1.00, 0.00, -0.00, -1.00, 728.5, 602.0)">c</text><text xml:space="preserve" font-family="Helvetica-Light" font-size="50.0" fill="#000000" transform="matrix(1.00, 0.00, -0.00, -1.00, 756.3, 602.0)">o</text><text xml:space="preserve" font-family="Helvetica-Light" font-size="50.0" fill="#000000" transform="matrix(1.00, 0.00, -0.00, -1.00, 784.1, 602.0)">n</text><text xml:space="preserve" font-family="Helvetica-Light" font-size="50.0" fill="#000000" transform="matrix(1.00, 0.00, -0.00, -1.00, 811.9, 602.0)">ﬁ</text><text xml:space="preserve" font-family="Helvetica-Light" font-size="50.0" fill="#000000" transform="matrix(1.00, 0.00, -0.00, -1.00, 836.9, 602.0)">g</text><text xml:space="preserve" font-family="Helvetica-Light" font-size="50.0" fill="#000000" transform="matrix(1.00, 0.00, -0.00, -1.00, 867.4, 602.0)">u</text><text xml:space="preserve" font-family="Helvetica-Light" font-size="50.0" fill="#000000" transform="matrix(1.00, 0.00, -0.00, -1.00, 895.2, 602.0)">r</text><text xml:space="preserve" font-family="Helvetica-Light" font-size="50.0" fill="#000000" transform="matrix(1.00, 0.00, -0.00, -1.00, 911.0, 602.0)">e</text><text xml:space="preserve" font-family="Helvetica-Light" font-size="50.0" fill="#000000" transform="matrix(1.00, 0.00, -0.00, -1.00, 938.8, 602.0)"> </text><text xml:space="preserve" font-family="Helvetica-Light" font-size="50.0" fill="#000000" transform="matrix(1.00, 0.00, -0.00, -1.00, 952.7, 602.0)">w</text><text xml:space="preserve" font-family="Helvetica-Light" font-size="50.0" fill="#000000" transform="matrix(1.00, 0.00, -0.00, -1.00, 988.8, 602.0)">i</text><text xml:space="preserve" font-family="Helvetica-Light" font-size="50.0" fill="#000000" transform="matrix(1.00, 0.00, -0.00, -1.00, 999.9, 602.0)">t</text><text xml:space="preserve" font-family="Helvetica-Light" font-size="50.0" fill="#000000" transform="matrix(1.00, 0.00, -0.00, -1.00, 1013.8, 602.0)">h</text><text xml:space="preserve" font-family="Helvetica-Light" font-size="50.0" fill="#000000" transform="matrix(1.00, 0.00, -0.00, -1.00, 1041.6, 602.0)"> </text><text xml:space="preserve" font-family="Helvetica-Light" font-size="50.0" fill="#000000" transform="matrix(1.00, 0.00, -0.00, -1.00, 1055.5, 602.0)">D</text><text xml:space="preserve" font-family="Helvetica-Light" font-size="50.0" fill="#000000" transform="matrix(1.00, 0.00, -0.00, -1.00, 1091.6, 602.0)">o</text><text xml:space="preserve" font-family="Helvetica-Light" font-size="50.0" fill="#000000" transform="matrix(1.00, 0.00, -0.00, -1.00, 1119.4, 602.0)">c</text><text xml:space="preserve" font-family="Helvetica-Light" font-size="50.0" fill="#000000" transform="matrix(1.00, 0.00, -0.00, -1.00, 1147.2, 602.0)">k</text><text xml:space="preserve" font-family="Helvetica-Light" font-size="50.0" fill="#000000" transform="matrix(1.00, 0.00, -0.00, -1.00, 1172.2, 602.0)">e</text><text xml:space="preserve" font-family="Helvetica-Light" font-size="50.0" fill="#000000" transform="matrix(1.00, 0.00, -0.00, -1.00, 1200.0, 602.0)">r</text><text xml:space="preserve" font-family="Helvetica-Light" font-size="37.5" fill="#000000" transform="matrix(1.00, 0.00, -0.00, -1.00, 258.5, 487.0)">•</text><text xml:space="preserve" font-family="Helvetica-Light" font-size="50.0" fill="#000000" transform="matrix(1.00, 0.00, -0.00, -1.00, 307.0, 483.0)">N</text><text xml:space="preserve" font-family="Helvetica-Light" font-size="50.0" fill="#000000" transform="matrix(1.00, 0.00, -0.00, -1.00, 343.1, 483.0)">e</text><text xml:space="preserve" font-family="Helvetica-Light" font-size="50.0" fill="#000000" transform="matrix(1.00, 0.00, -0.00, -1.00, 370.9, 483.0)">t</text><text xml:space="preserve" font-family="Helvetica-Light" font-size="50.0" fill="#000000" transform="matrix(1.00, 0.00, -0.00, -1.00, 384.8, 483.0)">w</text><text xml:space="preserve" font-family="Helvetica-Light" font-size="50.0" fill="#000000" transform="matrix(1.00, 0.00, -0.00, -1.00, 420.9, 483.0)">o</text><text xml:space="preserve" font-family="Helvetica-Light" font-size="50.0" fill="#000000" transform="matrix(1.00, 0.00, -0.00, -1.00, 448.7, 483.0)">r</text><text xml:space="preserve" font-family="Helvetica-Light" font-size="50.0" fill="#000000" transform="matrix(1.00, 0.00, -0.00, -1.00, 465.4, 483.0)">k</text><text xml:space="preserve" font-family="Helvetica-Light" font-size="50.0" fill="#000000" transform="matrix(1.00, 0.00, -0.00, -1.00, 490.4, 483.0)">i</text><text xml:space="preserve" font-family="Helvetica-Light" font-size="50.0" fill="#000000" transform="matrix(1.00, 0.00, -0.00, -1.00, 501.5, 483.0)">n</text><text xml:space="preserve" font-family="Helvetica-Light" font-size="50.0" fill="#000000" transform="matrix(1.00, 0.00, -0.00, -1.00, 529.2, 483.0)">g</text><text xml:space="preserve" font-family="Helvetica-Light" font-size="50.0" fill="#000000" transform="matrix(1.00, 0.00, -0.00, -1.00, 559.8, 483.0)"> </text><text xml:space="preserve" font-family="Helvetica-Light" font-size="50.0" fill="#000000" transform="matrix(1.00, 0.00, -0.00, -1.00, 573.7, 483.0)">c</text><text xml:space="preserve" font-family="Helvetica-Light" font-size="50.0" fill="#000000" transform="matrix(1.00, 0.00, -0.00, -1.00, 601.5, 483.0)">o</text><text xml:space="preserve" font-family="Helvetica-Light" font-size="50.0" fill="#000000" transform="matrix(1.00, 0.00, -0.00, -1.00, 629.3, 483.0)">n</text><text xml:space="preserve" font-family="Helvetica-Light" font-size="50.0" fill="#000000" transform="matrix(1.00, 0.00, -0.00, -1.00, 657.1, 483.0)">ﬁ</text><text xml:space="preserve" font-family="Helvetica-Light" font-size="50.0" fill="#000000" transform="matrix(1.00, 0.00, -0.00, -1.00, 682.1, 483.0)">g</text><text xml:space="preserve" font-family="Helvetica-Light" font-size="50.0" fill="#000000" transform="matrix(1.00, 0.00, -0.00, -1.00, 712.7, 483.0)">u</text><text xml:space="preserve" font-family="Helvetica-Light" font-size="50.0" fill="#000000" transform="matrix(1.00, 0.00, -0.00, -1.00, 740.5, 483.0)">r</text><text xml:space="preserve" font-family="Helvetica-Light" font-size="50.0" fill="#000000" transform="matrix(1.00, 0.00, -0.00, -1.00, 757.1, 483.0)">a</text><text xml:space="preserve" font-family="Helvetica-Light" font-size="50.0" fill="#000000" transform="matrix(1.00, 0.00, -0.00, -1.00, 784.9, 483.0)">t</text><text xml:space="preserve" font-family="Helvetica-Light" font-size="50.0" fill="#000000" transform="matrix(1.00, 0.00, -0.00, -1.00, 798.8, 483.0)">i</text><text xml:space="preserve" font-family="Helvetica-Light" font-size="50.0" fill="#000000" transform="matrix(1.00, 0.00, -0.00, -1.00, 809.9, 483.0)">o</text><text xml:space="preserve" font-family="Helvetica-Light" font-size="50.0" fill="#000000" transform="matrix(1.00, 0.00, -0.00, -1.00, 837.7, 483.0)">n</text><text xml:space="preserve" font-family="Helvetica-Light" font-size="37.5" fill="#000000" transform="matrix(1.00, 0.00, -0.00, -1.00, 258.5, 368.0)">•</text><text xml:space="preserve" font-family="Helvetica-Light" font-size="50.0" fill="#000000" transform="matrix(1.00, 0.00, -0.00, -1.00, 307.0, 364.0)">D</text><text xml:space="preserve" font-family="Helvetica-Light" font-size="50.0" fill="#000000" transform="matrix(1.00, 0.00, -0.00, -1.00, 343.1, 364.0)">a</text><text xml:space="preserve" font-family="Helvetica-Light" font-size="50.0" fill="#000000" transform="matrix(1.00, 0.00, -0.00, -1.00, 370.9, 364.0)">t</text><text xml:space="preserve" font-family="Helvetica-Light" font-size="50.0" fill="#000000" transform="matrix(1.00, 0.00, -0.00, -1.00, 384.8, 364.0)">a</text><text xml:space="preserve" font-family="Helvetica-Light" font-size="50.0" fill="#000000" transform="matrix(1.00, 0.00, -0.00, -1.00, 412.6, 364.0)"> </text><text xml:space="preserve" font-family="Helvetica-Light" font-size="50.0" fill="#000000" transform="matrix(1.00, 0.00, -0.00, -1.00, 426.5, 364.0)">v</text><text xml:space="preserve" font-family="Helvetica-Light" font-size="50.0" fill="#000000" transform="matrix(1.00, 0.00, -0.00, -1.00, 451.5, 364.0)">o</text><text xml:space="preserve" font-family="Helvetica-Light" font-size="50.0" fill="#000000" transform="matrix(1.00, 0.00, -0.00, -1.00, 479.3, 364.0)">l</text><text xml:space="preserve" font-family="Helvetica-Light" font-size="50.0" fill="#000000" transform="matrix(1.00, 0.00, -0.00, -1.00, 490.4, 364.0)">u</text><text xml:space="preserve" font-family="Helvetica-Light" font-size="50.0" fill="#000000" transform="matrix(1.00, 0.00, -0.00, -1.00, 518.2, 364.0)">m</text><text xml:space="preserve" font-family="Helvetica-Light" font-size="50.0" fill="#000000" transform="matrix(1.00, 0.00, -0.00, -1.00, 559.9, 364.0)">e</text><text xml:space="preserve" font-family="Helvetica-Light" font-size="50.0" fill="#000000" transform="matrix(1.00, 0.00, -0.00, -1.00, 587.7, 364.0)">s</text><text xml:space="preserve" font-family="Courier" font-size="40.0" fill="#000000" transform="matrix(1.00, 0.00, -0.00, -1.00, 258.5, 266.2)">•</text><text xml:space="preserve" font-family="Courier" font-size="40.0" fill="#C8352B" transform="matrix(1.00, 0.00, -0.00, -1.00, 282.0, 266.0)"> </text><text xml:space="preserve" font-family="Courier" font-size="40.0" fill="#000000" transform="matrix(1.00, 0.00, -0.00, -1.00, 306.0, 266.0)">D</text><text xml:space="preserve" font-family="Courier" font-size="40.0" fill="#000000" transform="matrix(1.00, 0.00, -0.00, -1.00, 330.0, 266.0)">o</text><text xml:space="preserve" font-family="Courier" font-size="40.0" fill="#000000" transform="matrix(1.00, 0.00, -0.00, -1.00, 354.0, 266.0)">c</text><text xml:space="preserve" font-family="Courier" font-size="40.0" fill="#000000" transform="matrix(1.00, 0.00, -0.00, -1.00, 378.0, 266.0)">k</text><text xml:space="preserve" font-family="Courier" font-size="40.0" fill="#000000" transform="matrix(1.00, 0.00, -0.00, -1.00, 402.0, 266.0)">e</text><text xml:space="preserve" font-family="Courier" font-size="40.0" fill="#000000" transform="matrix(1.00, 0.00, -0.00, -1.00, 426.0, 266.0)">r</text><text xml:space="preserve" font-family="Courier" font-size="40.0" fill="#000000" transform="matrix(1.00, 0.00, -0.00, -1.00, 450.1, 266.0)">S</text><text xml:space="preserve" font-family="Courier" font-size="40.0" fill="#000000" transform="matrix(1.00, 0.00, -0.00, -1.00, 474.1, 266.0)">p</text><text xml:space="preserve" font-family="Courier" font-size="40.0" fill="#000000" transform="matrix(1.00, 0.00, -0.00, -1.00, 498.1, 266.0)">a</text><text xml:space="preserve" font-family="Courier" font-size="40.0" fill="#000000" transform="matrix(1.00, 0.00, -0.00, -1.00, 522.1, 266.0)">w</text><text xml:space="preserve" font-family="Courier" font-size="40.0" fill="#000000" transform="matrix(1.00, 0.00, -0.00, -1.00, 546.1, 266.0)">n</text><text xml:space="preserve" font-family="Courier" font-size="40.0" fill="#000000" transform="matrix(1.00, 0.00, -0.00, -1.00, 570.1, 266.0)">e</text><text xml:space="preserve" font-family="Courier" font-size="40.0" fill="#000000" transform="matrix(1.00, 0.00, -0.00, -1.00, 594.1, 266.0)">r</text><text xml:space="preserve" font-family="Courier" font-size="40.0" fill="#797979" transform="matrix(1.00, 0.00, -0.00, -1.00, 618.1, 266.0)">.</text><text xml:space="preserve" font-family="Courier" font-size="40.0" fill="#000000" transform="matrix(1.00, 0.00, -0.00, -1.00, 642.1, 266.0)">c</text><text xml:space="preserve" font-family="Courier" font-size="40.0" fill="#000000" transform="matrix(1.00, 0.00, -0.00, -1.00, 666.1, 266.0)">o</text><text xml:space="preserve" font-family="Courier" font-size="40.0" fill="#000000" transform="matrix(1.00, 0.00, -0.00, -1.00, 690.1, 266.0)">n</text><text xml:space="preserve" font-family="Courier" font-size="40.0" fill="#000000" transform="matrix(1.00, 0.00, -0.00, -1.00, 714.1, 266.0)">t</text><text xml:space="preserve" font-family="Courier" font-size="40.0" fill="#000000" transform="matrix(1.00, 0.00, -0.00, -1.00, 738.1, 266.0)">a</text><text xml:space="preserve" font-family="Courier" font-size="40.0" fill="#000000" transform="matrix(1.00, 0.00, -0.00, -1.00, 762.1, 266.0)">i</text><text xml:space="preserve" font-family="Courier" font-size="40.0" fill="#000000" transform="matrix(1.00, 0.00, -0.00, -1.00, 786.1, 266.0)">n</text><text xml:space="preserve" font-family="Courier" font-size="40.0" fill="#000000" transform="matrix(1.00, 0.00, -0.00, -1.00, 810.1, 266.0)">e</text><text xml:space="preserve" font-family="Courier" font-size="40.0" fill="#000000" transform="matrix(1.00, 0.00, -0.00, -1.00, 834.1, 266.0)">r</text><text xml:space="preserve" font-family="Courier" font-size="40.0" fill="#000000" transform="matrix(1.00, 0.00, -0.00, -1.00, 858.1, 266.0)">_</text><text xml:space="preserve" font-family="Courier" font-size="40.0" fill="#000000" transform="matrix(1.00, 0.00, -0.00, -1.00, 882.1, 266.0)">i</text><text xml:space="preserve" font-family="Courier" font-size="40.0" fill="#000000" transform="matrix(1.00, 0.00, -0.00, -1.00, 906.1, 266.0)">m</text><text xml:space="preserve" font-family="Courier" font-size="40.0" fill="#000000" transform="matrix(1.00, 0.00, -0.00, -1.00, 930.2, 266.0)">a</text><text xml:space="preserve" font-family="Courier" font-size="40.0" fill="#000000" transform="matrix(1.00, 0.00, -0.00, -1.00, 954.2, 266.0)">g</text><text xml:space="preserve" font-family="Courier" font-size="40.0" fill="#000000" transform="matrix(1.00, 0.00, -0.00, -1.00, 978.2, 266.0)">e</text><text xml:space="preserve" font-family="Courier" font-size="40.0" fill="#000000" transform="matrix(1.00, 0.00, -0.00, -1.00, 1002.2, 266.0)"> </text><text xml:space="preserve" font-family="Courier" font-size="40.0" fill="#797979" transform="matrix(1.00, 0.00, -0.00, -1.00, 1026.1, 266.0)">=</text><text xml:space="preserve" font-family="Courier" font-size="40.0" fill="#000000" transform="matrix(1.00, 0.00, -0.00, -1.00, 1050.1, 266.0)"> </text><text xml:space="preserve" font-family="Courier" font-size="40.0" fill="#C8352B" transform="matrix(1.00, 0.00, -0.00, -1.00, 1074.1, 266.0)">'</text><text xml:space="preserve" font-family="Courier" font-size="40.0" fill="#C8352B" transform="matrix(1.00, 0.00, -0.00, -1.00, 1098.1, 266.0)">j</text><text xml:space="preserve" font-family="Courier" font-size="40.0" fill="#C8352B" transform="matrix(1.00, 0.00, -0.00, -1.00, 1122.1, 266.0)">u</text><text xml:space="preserve" font-family="Courier" font-size="40.0" fill="#C8352B" transform="matrix(1.00, 0.00, -0.00, -1.00, 1146.2, 266.0)">p</text><text xml:space="preserve" font-family="Courier" font-size="40.0" fill="#C8352B" transform="matrix(1.00, 0.00, -0.00, -1.00, 1170.2, 266.0)">y</text><text xml:space="preserve" font-family="Courier" font-size="40.0" fill="#C8352B" transform="matrix(1.00, 0.00, -0.00, -1.00, 1194.2, 266.0)">t</text><text xml:space="preserve" font-family="Courier" font-size="40.0" fill="#C8352B" transform="matrix(1.00, 0.00, -0.00, -1.00, 1218.2, 266.0)">e</text><text xml:space="preserve" font-family="Courier" font-size="40.0" fill="#C8352B" transform="matrix(1.00, 0.00, -0.00, -1.00, 1242.2, 266.0)">r</text><text xml:space="preserve" font-family="Courier" font-size="40.0" fill="#C8352B" transform="matrix(1.00, 0.00, -0.00, -1.00, 1266.2, 266.0)">h</text><text xml:space="preserve" font-family="Courier" font-size="40.0" fill="#C8352B" transform="matrix(1.00, 0.00, -0.00, -1.00, 1290.2, 266.0)">u</text><text xml:space="preserve" font-family="Courier" font-size="40.0" fill="#C8352B" transform="matrix(1.00, 0.00, -0.00, -1.00, 1314.2, 266.0)">b</text><text xml:space="preserve" font-family="Courier" font-size="40.0" fill="#C8352B" transform="matrix(1.00, 0.00, -0.00, -1.00, 1338.2, 266.0)">/</text><text xml:space="preserve" font-family="Courier" font-size="40.0" fill="#C8352B" transform="matrix(1.00, 0.00, -0.00, -1.00, 1362.2, 266.0)">s</text><text xml:space="preserve" font-family="Courier" font-size="40.0" fill="#C8352B" transform="matrix(1.00, 0.00, -0.00, -1.00, 1386.2, 266.0)">i</text><text xml:space="preserve" font-family="Courier" font-size="40.0" fill="#C8352B" transform="matrix(1.00, 0.00, -0.00, -1.00, 1410.2, 266.0)">n</text><text xml:space="preserve" font-family="Courier" font-size="40.0" fill="#C8352B" transform="matrix(1.00, 0.00, -0.00, -1.00, 1434.2, 266.0)">g</text><text xml:space="preserve" font-family="Courier" font-size="40.0" fill="#C8352B" transform="matrix(1.00, 0.00, -0.00, -1.00, 1458.3, 266.0)">l</text><text xml:space="preserve" font-family="Courier" font-size="40.0" fill="#C8352B" transform="matrix(1.00, 0.00, -0.00, -1.00, 1482.3, 266.0)">e</text><text xml:space="preserve" font-family="Courier" font-size="40.0" fill="#C8352B" transform="matrix(1.00, 0.00, -0.00, -1.00, 1506.3, 266.0)">u</text><text xml:space="preserve" font-family="Courier" font-size="40.0" fill="#C8352B" transform="matrix(1.00, 0.00, -0.00, -1.00, 1530.3, 266.0)">s</text><text xml:space="preserve" font-family="Courier" font-size="40.0" fill="#C8352B" transform="matrix(1.00, 0.00, -0.00, -1.00, 1554.3, 266.0)">e</text><text xml:space="preserve" font-family="Courier" font-size="40.0" fill="#C8352B" transform="matrix(1.00, 0.00, -0.00, -1.00, 1578.3, 266.0)">r</text><text xml:space="preserve" font-family="Courier" font-size="40.0" fill="#C8352B" transform="matrix(1.00, 0.00, -0.00, -1.00, 1602.3, 266.0)">'</text></g></svg>