<?xml version="1.0" encoding="UTF-8" standalone="no"?><svg xmlns="http://www.w3.org/2000/svg" xmlns:xlink="http://www.w3.org/1999/xlink" clip-rule="evenodd" stroke-miterlimit="4.00" viewBox="0 0 1920 1080"><desc>SVG generated by Keynote</desc><defs></defs><g transform="matrix(1.00, 0.00, -0.00, -1.00, 0.0, 1080.0)"><path d="M 0.0 1080.0 L 1920.0 1080.0 L 1920.0 0.0 L 0.0 0.0 Z M 0.0 1080.0 " fill="#FEFFFF"></path><g><clipPath id="clip-914"><path d="M 191.0 965.0 L 284.0 965.0 L 284.0 857.0 L 191.0 857.0 Z M 190.9 965.1 "></path></clipPath><g clip-path="url(#clip-914)"><image xlink:href="../../501581DD-E1D1-4738-8AE3-F573C3B06ED2/assets/D6FB576FDB4D798F7363F3BF6AC733AF.png" width="108.00" height="108.00" transform="matrix(0.99, 0.00, -0.00, -1.00, 184.0, 965.0)"></image></g></g><text xml:space="preserve" font-family="MyriadPro-Regular" font-size="112.0" fill="#000000" transform="matrix(1.00, 0.00, -0.00, -1.00, 291.0, 884.0)">I</text><text xml:space="preserve" font-family="MyriadPro-Regular" font-size="112.0" fill="#000000" transform="matrix(1.00, 0.00, -0.00, -1.00, 318.9, 884.0)">n</text><text xml:space="preserve" font-family="MyriadPro-Regular" font-size="112.0" fill="#000000" transform="matrix(1.00, 0.00, -0.00, -1.00, 381.0, 884.0)">s</text><text xml:space="preserve" font-family="MyriadPro-Regular" font-size="112.0" fill="#000000" transform="matrix(1.00, 0.00, -0.00, -1.00, 425.4, 884.0)">t</text><text xml:space="preserve" font-family="MyriadPro-Regular" font-size="112.0" fill="#000000" transform="matrix(1.00, 0.00, -0.00, -1.00, 462.5, 884.0)">a</text><text xml:space="preserve" font-family="MyriadPro-Regular" font-size="112.0" fill="#000000" transform="matrix(1.00, 0.00, -0.00, -1.00, 516.5, 884.0)">l</text><text xml:space="preserve" font-family="MyriadPro-Regular" font-size="112.0" fill="#000000" transform="matrix(1.00, 0.00, -0.00, -1.00, 542.9, 884.0)">l</text><text xml:space="preserve" font-family="MyriadPro-Regular" font-size="112.0" fill="#000000" transform="matrix(1.00, 0.00, -0.00, -1.00, 569.3, 884.0)">i</text><text xml:space="preserve" font-family="MyriadPro-Regular" font-size="112.0" fill="#000000" transform="matrix(1.00, 0.00, -0.00, -1.00, 595.5, 884.0)">n</text><text xml:space="preserve" font-family="MyriadPro-Regular" font-size="112.0" fill="#000000" transform="matrix(1.00, 0.00, -0.00, -1.00, 657.7, 884.0)">g</text><text xml:space="preserve" font-family="MyriadPro-Regular" font-size="112.0" fill="#000000" transform="matrix(1.00, 0.00, -0.00, -1.00, 720.3, 884.0)"> </text><text xml:space="preserve" font-family="MyriadPro-Regular" font-size="112.0" fill="#000000" transform="matrix(1.00, 0.00, -0.00, -1.00, 744.0, 884.0)">k</text><text xml:space="preserve" font-family="MyriadPro-Regular" font-size="112.0" fill="#000000" transform="matrix(1.00, 0.00, -0.00, -1.00, 796.6, 884.0)">e</text><text xml:space="preserve" font-family="MyriadPro-Regular" font-size="112.0" fill="#000000" transform="matrix(1.00, 0.00, -0.00, -1.00, 852.7, 884.0)">r</text><text xml:space="preserve" font-family="MyriadPro-Regular" font-size="112.0" fill="#000000" transform="matrix(1.00, 0.00, -0.00, -1.00, 889.8, 884.0)">n</text><text xml:space="preserve" font-family="MyriadPro-Regular" font-size="112.0" fill="#000000" transform="matrix(1.00, 0.00, -0.00, -1.00, 951.9, 884.0)">e</text><text xml:space="preserve" font-family="MyriadPro-Regular" font-size="112.0" fill="#000000" transform="matrix(1.00, 0.00, -0.00, -1.00, 1008.0, 884.0)">l</text><text xml:space="preserve" font-family="MyriadPro-Regular" font-size="112.0" fill="#000000" transform="matrix(1.00, 0.00, -0.00, -1.00, 1034.5, 884.0)">s</text><text xml:space="preserve" font-family="MyriadPro-Regular" font-size="112.0" fill="#000000" transform="matrix(1.00, 0.00, -0.00, -1.00, 1078.8, 884.0)"> </text><text xml:space="preserve" font-family="MyriadPro-Regular" font-size="112.0" fill="#000000" transform="matrix(1.00, 0.00, -0.00, -1.00, 1102.6, 884.0)">f</text><text xml:space="preserve" font-family="MyriadPro-Regular" font-size="112.0" fill="#000000" transform="matrix(1.00, 0.00, -0.00, -1.00, 1133.8, 884.0)">o</text><text xml:space="preserve" font-family="MyriadPro-Regular" font-size="112.0" fill="#000000" transform="matrix(1.00, 0.00, -0.00, -1.00, 1195.3, 884.0)">r</text><text xml:space="preserve" font-family="MyriadPro-Regular" font-size="112.0" fill="#000000" transform="matrix(1.00, 0.00, -0.00, -1.00, 1231.9, 884.0)"> </text><text xml:space="preserve" font-family="MyriadPro-Regular" font-size="112.0" fill="#000000" transform="matrix(1.00, 0.00, -0.00, -1.00, 1255.7, 884.0)">a</text><text xml:space="preserve" font-family="MyriadPro-Regular" font-size="112.0" fill="#000000" transform="matrix(1.00, 0.00, -0.00, -1.00, 1309.6, 884.0)">l</text><text xml:space="preserve" font-family="MyriadPro-Regular" font-size="112.0" fill="#000000" transform="matrix(1.00, 0.00, -0.00, -1.00, 1336.1, 884.0)">l</text><text xml:space="preserve" font-family="MyriadPro-Regular" font-size="112.0" fill="#000000" transform="matrix(1.00, 0.00, -0.00, -1.00, 1362.5, 884.0)"> </text><text xml:space="preserve" font-family="MyriadPro-Regular" font-size="112.0" fill="#000000" transform="matrix(1.00, 0.00, -0.00, -1.00, 1386.2, 884.0)">u</text><text xml:space="preserve" font-family="MyriadPro-Regular" font-size="112.0" fill="#000000" transform="matrix(1.00, 0.00, -0.00, -1.00, 1448.0, 884.0)">s</text><text xml:space="preserve" font-family="MyriadPro-Regular" font-size="112.0" fill="#000000" transform="matrix(1.00, 0.00, -0.00, -1.00, 1492.3, 884.0)">e</text><text xml:space="preserve" font-family="MyriadPro-Regular" font-size="112.0" fill="#000000" transform="matrix(1.00, 0.00, -0.00, -1.00, 1548.4, 884.0)">r</text><text xml:space="preserve" font-family="MyriadPro-Regular" font-size="112.0" fill="#000000" transform="matrix(1.00, 0.00, -0.00, -1.00, 1585.0, 884.0)">s</text><text xml:space="preserve" font-family="SourceCodePro-Regular" font-size="50.0" fill="#000000" transform="matrix(1.00, 0.00, -0.00, -1.00, 330.0, 617.0)">c</text><text xml:space="preserve" font-family="SourceCodePro-Regular" font-size="50.0" fill="#000000" transform="matrix(1.00, 0.00, -0.00, -1.00, 360.0, 617.0)">o</text><text xml:space="preserve" font-family="SourceCodePro-Regular" font-size="50.0" fill="#000000" transform="matrix(1.00, 0.00, -0.00, -1.00, 390.0, 617.0)">n</text><text xml:space="preserve" font-family="SourceCodePro-Regular" font-size="50.0" fill="#000000" transform="matrix(1.00, 0.00, -0.00, -1.00, 420.0, 617.0)">d</text><text xml:space="preserve" font-family="SourceCodePro-Regular" font-size="50.0" fill="#000000" transform="matrix(1.00, 0.00, -0.00, -1.00, 450.0, 617.0)">a</text><text xml:space="preserve" font-family="SourceCodePro-Regular" font-size="50.0" fill="#000000" transform="matrix(1.00, 0.00, -0.00, -1.00, 480.0, 617.0)"> </text><text xml:space="preserve" font-family="SourceCodePro-Regular" font-size="50.0" fill="#000000" transform="matrix(1.00, 0.00, -0.00, -1.00, 510.0, 617.0)">c</text><text xml:space="preserve" font-family="SourceCodePro-Regular" font-size="50.0" fill="#000000" transform="matrix(1.00, 0.00, -0.00, -1.00, 540.0, 617.0)">r</text><text xml:space="preserve" font-family="SourceCodePro-Regular" font-size="50.0" fill="#000000" transform="matrix(1.00, 0.00, -0.00, -1.00, 570.0, 617.0)">e</text><text xml:space="preserve" font-family="SourceCodePro-Regular" font-size="50.0" fill="#000000" transform="matrix(1.00, 0.00, -0.00, -1.00, 600.0, 617.0)">a</text><text xml:space="preserve" font-family="SourceCodePro-Regular" font-size="50.0" fill="#000000" transform="matrix(1.00, 0.00, -0.00, -1.00, 630.0, 617.0)">t</text><text xml:space="preserve" font-family="SourceCodePro-Regular" font-size="50.0" fill="#000000" transform="matrix(1.00, 0.00, -0.00, -1.00, 660.0, 617.0)">e</text><text xml:space="preserve" font-family="SourceCodePro-Regular" font-size="50.0" fill="#000000" transform="matrix(1.00, 0.00, -0.00, -1.00, 690.0, 617.0)"> </text><text xml:space="preserve" font-family="SourceCodePro-Regular" font-size="50.0" fill="#000000" transform="matrix(1.00, 0.00, -0.00, -1.00, 720.0, 617.0)">-</text><text xml:space="preserve" font-family="SourceCodePro-Regular" font-size="50.0" fill="#000000" transform="matrix(1.00, 0.00, -0.00, -1.00, 750.0, 617.0)">n</text><text xml:space="preserve" font-family="SourceCodePro-Regular" font-size="50.0" fill="#000000" transform="matrix(1.00, 0.00, -0.00, -1.00, 780.0, 617.0)"> </text><text xml:space="preserve" font-family="SourceCodePro-Regular" font-size="50.0" fill="#000000" transform="matrix(1.00, 0.00, -0.00, -1.00, 810.0, 617.0)">p</text><text xml:space="preserve" font-family="SourceCodePro-Regular" font-size="50.0" fill="#000000" transform="matrix(1.00, 0.00, -0.00, -1.00, 840.0, 617.0)">y</text><text xml:space="preserve" font-family="SourceCodePro-Regular" font-size="50.0" fill="#000000" transform="matrix(1.00, 0.00, -0.00, -1.00, 870.0, 617.0)">2</text><text xml:space="preserve" font-family="SourceCodePro-Regular" font-size="50.0" fill="#000000" transform="matrix(1.00, 0.00, -0.00, -1.00, 900.0, 617.0)"> </text><text xml:space="preserve" font-family="SourceCodePro-Regular" font-size="50.0" fill="#000000" transform="matrix(1.00, 0.00, -0.00, -1.00, 930.0, 617.0)">p</text><text xml:space="preserve" font-family="SourceCodePro-Regular" font-size="50.0" fill="#000000" transform="matrix(1.00, 0.00, -0.00, -1.00, 960.0, 617.0)">y</text><text xml:space="preserve" font-family="SourceCodePro-Regular" font-size="50.0" fill="#000000" transform="matrix(1.00, 0.00, -0.00, -1.00, 990.0, 617.0)">t</text><text xml:space="preserve" font-family="SourceCodePro-Regular" font-size="50.0" fill="#000000" transform="matrix(1.00, 0.00, -0.00, -1.00, 1020.0, 617.0)">h</text><text xml:space="preserve" font-family="SourceCodePro-Regular" font-size="50.0" fill="#000000" transform="matrix(1.00, 0.00, -0.00, -1.00, 1050.0, 617.0)">o</text><text xml:space="preserve" font-family="SourceCodePro-Regular" font-size="50.0" fill="#000000" transform="matrix(1.00, 0.00, -0.00, -1.00, 1080.0, 617.0)">n</text><text xml:space="preserve" font-family="SourceCodePro-Regular" font-size="50.0" fill="#000000" transform="matrix(1.00, 0.00, -0.00, -1.00, 1110.0, 617.0)">=</text><text xml:space="preserve" font-family="SourceCodePro-Regular" font-size="50.0" fill="#000000" transform="matrix(1.00, 0.00, -0.00, -1.00, 1140.0, 617.0)">2</text><text xml:space="preserve" font-family="SourceCodePro-Regular" font-size="50.0" fill="#000000" transform="matrix(1.00, 0.00, -0.00, -1.00, 1170.0, 617.0)"> </text><text xml:space="preserve" font-family="SourceCodePro-Regular" font-size="50.0" fill="#000000" transform="matrix(1.00, 0.00, -0.00, -1.00, 1200.0, 617.0)">i</text><text xml:space="preserve" font-family="SourceCodePro-Regular" font-size="50.0" fill="#000000" transform="matrix(1.00, 0.00, -0.00, -1.00, 1230.0, 617.0)">p</text><text xml:space="preserve" font-family="SourceCodePro-Regular" font-size="50.0" fill="#000000" transform="matrix(1.00, 0.00, -0.00, -1.00, 1260.0, 617.0)">y</text><text xml:space="preserve" font-family="SourceCodePro-Regular" font-size="50.0" fill="#000000" transform="matrix(1.00, 0.00, -0.00, -1.00, 1290.0, 617.0)">k</text><text xml:space="preserve" font-family="SourceCodePro-Regular" font-size="50.0" fill="#000000" transform="matrix(1.00, 0.00, -0.00, -1.00, 1320.0, 617.0)">e</text><text xml:space="preserve" font-family="SourceCodePro-Regular" font-size="50.0" fill="#000000" transform="matrix(1.00, 0.00, -0.00, -1.00, 1350.0, 617.0)">r</text><text xml:space="preserve" font-family="SourceCodePro-Regular" font-size="50.0" fill="#000000" transform="matrix(1.00, 0.00, -0.00, -1.00, 1380.0, 617.0)">n</text><text xml:space="preserve" font-family="SourceCodePro-Regular" font-size="50.0" fill="#000000" transform="matrix(1.00, 0.00, -0.00, -1.00, 1410.0, 617.0)">e</text><text xml:space="preserve" font-family="SourceCodePro-Regular" font-size="50.0" fill="#000000" transform="matrix(1.00, 0.00, -0.00, -1.00, 1440.0, 617.0)">l</text><text xml:space="preserve" font-family="SourceCodePro-Regular" font-size="50.0" fill="#000000" transform="matrix(1.00, 0.00, -0.00, -1.00, 1470.0, 617.0)"> </text><text xml:space="preserve" font-family="SourceCodePro-Regular" font-size="50.0" fill="#000000" transform="matrix(1.00, 0.00, -0.00, -1.00, 330.0, 554.0)">c</text><text xml:space="preserve" font-family="SourceCodePro-Regular" font-size="50.0" fill="#000000" transform="matrix(1.00, 0.00, -0.00, -1.00, 360.0, 554.0)">o</text><text xml:space="preserve" font-family="SourceCodePro-Regular" font-size="50.0" fill="#000000" transform="matrix(1.00, 0.00, -0.00, -1.00, 390.0, 554.0)">n</text><text xml:space="preserve" font-family="SourceCodePro-Regular" font-size="50.0" fill="#000000" transform="matrix(1.00, 0.00, -0.00, -1.00, 420.0, 554.0)">d</text><text xml:space="preserve" font-family="SourceCodePro-Regular" font-size="50.0" fill="#000000" transform="matrix(1.00, 0.00, -0.00, -1.00, 450.0, 554.0)">a</text><text xml:space="preserve" font-family="SourceCodePro-Regular" font-size="50.0" fill="#000000" transform="matrix(1.00, 0.00, -0.00, -1.00, 480.0, 554.0)"> </text><text xml:space="preserve" font-family="SourceCodePro-Regular" font-size="50.0" fill="#000000" transform="matrix(1.00, 0.00, -0.00, -1.00, 510.0, 554.0)">r</text><text xml:space="preserve" font-family="SourceCodePro-Regular" font-size="50.0" fill="#000000" transform="matrix(1.00, 0.00, -0.00, -1.00, 540.0, 554.0)">u</text><text xml:space="preserve" font-family="SourceCodePro-Regular" font-size="50.0" fill="#000000" transform="matrix(1.00, 0.00, -0.00, -1.00, 570.0, 554.0)">n</text><text xml:space="preserve" font-family="SourceCodePro-Regular" font-size="50.0" fill="#000000" transform="matrix(1.00, 0.00, -0.00, -1.00, 600.0, 554.0)"> </text><text xml:space="preserve" font-family="SourceCodePro-Regular" font-size="50.0" fill="#000000" transform="matrix(1.00, 0.00, -0.00, -1.00, 630.0, 554.0)">-</text><text xml:space="preserve" font-family="SourceCodePro-Regular" font-size="50.0" fill="#000000" transform="matrix(1.00, 0.00, -0.00, -1.00, 660.0, 554.0)">n</text><text xml:space="preserve" font-family="SourceCodePro-Regular" font-size="50.0" fill="#000000" transform="matrix(1.00, 0.00, -0.00, -1.00, 690.0, 554.0)"> </text><text xml:space="preserve" font-family="SourceCodePro-Regular" font-size="50.0" fill="#000000" transform="matrix(1.00, 0.00, -0.00, -1.00, 720.0, 554.0)">p</text><text xml:space="preserve" font-family="SourceCodePro-Regular" font-size="50.0" fill="#000000" transform="matrix(1.00, 0.00, -0.00, -1.00, 750.0, 554.0)">y</text><text xml:space="preserve" font-family="SourceCodePro-Regular" font-size="50.0" fill="#000000" transform="matrix(1.00, 0.00, -0.00, -1.00, 780.0, 554.0)">2</text><text xml:space="preserve" font-family="SourceCodePro-Regular" font-size="50.0" fill="#000000" transform="matrix(1.00, 0.00, -0.00, -1.00, 810.0, 554.0)"> </text><text xml:space="preserve" font-family="SourceCodePro-Regular" font-size="50.0" fill="#000000" transform="matrix(1.00, 0.00, -0.00, -1.00, 840.0, 554.0)">-</text><text xml:space="preserve" font-family="SourceCodePro-Regular" font-size="50.0" fill="#000000" transform="matrix(1.00, 0.00, -0.00, -1.00, 870.0, 554.0)">-</text><text xml:space="preserve" font-family="SourceCodePro-Regular" font-size="50.0" fill="#000000" transform="matrix(1.00, 0.00, -0.00, -1.00, 900.0, 554.0)"> </text><text xml:space="preserve" font-family="SourceCodePro-Regular" font-size="50.0" fill="#000000" transform="matrix(1.00, 0.00, -0.00, -1.00, 930.0, 554.0)">i</text><text xml:space="preserve" font-family="SourceCodePro-Regular" font-size="50.0" fill="#000000" transform="matrix(1.00, 0.00, -0.00, -1.00, 960.0, 554.0)">p</text><text xml:space="preserve" font-family="SourceCodePro-Regular" font-size="50.0" fill="#000000" transform="matrix(1.00, 0.00, -0.00, -1.00, 990.0, 554.0)">y</text><text xml:space="preserve" font-family="SourceCodePro-Regular" font-size="50.0" fill="#000000" transform="matrix(1.00, 0.00, -0.00, -1.00, 1020.0, 554.0)">t</text><text xml:space="preserve" font-family="SourceCodePro-Regular" font-size="50.0" fill="#000000" transform="matrix(1.00, 0.00, -0.00, -1.00, 1050.0, 554.0)">h</text><text xml:space="preserve" font-family="SourceCodePro-Regular" font-size="50.0" fill="#000000" transform="matrix(1.00, 0.00, -0.00, -1.00, 1080.0, 554.0)">o</text><text xml:space="preserve" font-family="SourceCodePro-Regular" font-size="50.0" fill="#000000" transform="matrix(1.00, 0.00, -0.00, -1.00, 1110.0, 554.0)">n</text><text xml:space="preserve" font-family="SourceCodePro-Regular" font-size="50.0" fill="#000000" transform="matrix(1.00, 0.00, -0.00, -1.00, 1140.0, 554.0)"> </text><text xml:space="preserve" font-family="SourceCodePro-Regular" font-size="50.0" fill="#000000" transform="matrix(1.00, 0.00, -0.00, -1.00, 1170.0, 554.0)">k</text><text xml:space="preserve" font-family="SourceCodePro-Regular" font-size="50.0" fill="#000000" transform="matrix(1.00, 0.00, -0.00, -1.00, 1200.0, 554.0)">e</text><text xml:space="preserve" font-family="SourceCodePro-Regular" font-size="50.0" fill="#000000" transform="matrix(1.00, 0.00, -0.00, -1.00, 1230.0, 554.0)">r</text><text xml:space="preserve" font-family="SourceCodePro-Regular" font-size="50.0" fill="#000000" transform="matrix(1.00, 0.00, -0.00, -1.00, 1260.0, 554.0)">n</text><text xml:space="preserve" font-family="SourceCodePro-Regular" font-size="50.0" fill="#000000" transform="matrix(1.00, 0.00, -0.00, -1.00, 1290.0, 554.0)">e</text><text xml:space="preserve" font-family="SourceCodePro-Regular" font-size="50.0" fill="#000000" transform="matrix(1.00, 0.00, -0.00, -1.00, 1320.0, 554.0)">l</text><text xml:space="preserve" font-family="SourceCodePro-Regular" font-size="50.0" fill="#000000" transform="matrix(1.00, 0.00, -0.00, -1.00, 1350.0, 554.0)"> </text><text xml:space="preserve" font-family="SourceCodePro-Regular" font-size="50.0" fill="#000000" transform="matrix(1.00, 0.00, -0.00, -1.00, 1380.0, 554.0)">i</text><text xml:space="preserve" font-family="SourceCodePro-Regular" font-size="50.0" fill="#000000" transform="matrix(1.00, 0.00, -0.00, -1.00, 1410.0, 554.0)">n</text><text xml:space="preserve" font-family="SourceCodePro-Regular" font-size="50.0" fill="#000000" transform="matrix(1.00, 0.00, -0.00, -1.00, 1440.0, 554.0)">s</text><text xml:space="preserve" font-family="SourceCodePro-Regular" font-size="50.0" fill="#000000" transform="matrix(1.00, 0.00, -0.00, -1.00, 1470.0, 554.0)">t</text><text xml:space="preserve" font-family="SourceCodePro-Regular" font-size="50.0" fill="#000000" transform="matrix(1.00, 0.00, -0.00, -1.00, 1500.0, 554.0)">a</text><text xml:space="preserve" font-family="SourceCodePro-Regular" font-size="50.0" fill="#000000" transform="matrix(1.00, 0.00, -0.00, -1.00, 1530.0, 554.0)">l</text><text xml:space="preserve" font-family="SourceCodePro-Regular" font-size="50.0" fill="#000000" transform="matrix(1.00, 0.00, -0.00, -1.00, 1560.0, 554.0)">l</text><text xml:space="preserve" font-family="SourceCodePro-Regular" font-size="50.0" fill="#000000" transform="matrix(1.00, 0.00, -0.00, -1.00, 1590.0, 554.0)"> </text><text xml:space="preserve" font-family="SourceCodePro-Regular" font-size="50.0" fill="#000000" transform="matrix(1.00, 0.00, -0.00, -1.00, 330.0, 428.0)">j</text><text xml:space="preserve" font-family="SourceCodePro-Regular" font-size="50.0" fill="#000000" transform="matrix(1.00, 0.00, -0.00, -1.00, 360.0, 428.0)">u</text><text xml:space="preserve" font-family="SourceCodePro-Regular" font-size="50.0" fill="#000000" transform="matrix(1.00, 0.00, -0.00, -1.00, 390.0, 428.0)">p</text><text xml:space="preserve" font-family="SourceCodePro-Regular" font-size="50.0" fill="#000000" transform="matrix(1.00, 0.00, -0.00, -1.00, 420.0, 428.0)">y</text><text xml:space="preserve" font-family="SourceCodePro-Regular" font-size="50.0" fill="#000000" transform="matrix(1.00, 0.00, -0.00, -1.00, 450.0, 428.0)">t</text><text xml:space="preserve" font-family="SourceCodePro-Regular" font-size="50.0" fill="#000000" transform="matrix(1.00, 0.00, -0.00, -1.00, 480.0, 428.0)">e</text><text xml:space="preserve" font-family="SourceCodePro-Regular" font-size="50.0" fill="#000000" transform="matrix(1.00, 0.00, -0.00, -1.00, 510.0, 428.0)">r</text><text xml:space="preserve" font-family="SourceCodePro-Regular" font-size="50.0" fill="#000000" transform="matrix(1.00, 0.00, -0.00, -1.00, 540.0, 428.0)"> </text><text xml:space="preserve" font-family="SourceCodePro-Regular" font-size="50.0" fill="#000000" transform="matrix(1.00, 0.00, -0.00, -1.00, 570.0, 428.0)">k</text><text xml:space="preserve" font-family="SourceCodePro-Regular" font-size="50.0" fill="#000000" transform="matrix(1.00, 0.00, -0.00, -1.00, 600.0, 428.0)">e</text><text xml:space="preserve" font-family="SourceCodePro-Regular" font-size="50.0" fill="#000000" transform="matrix(1.00, 0.00, -0.00, -1.00, 630.0, 428.0)">r</text><text xml:space="preserve" font-family="SourceCodePro-Regular" font-size="50.0" fill="#000000" transform="matrix(1.00, 0.00, -0.00, -1.00, 660.0, 428.0)">n</text><text xml:space="preserve" font-family="SourceCodePro-Regular" font-size="50.0" fill="#000000" transform="matrix(1.00, 0.00, -0.00, -1.00, 690.0, 428.0)">e</text><text xml:space="preserve" font-family="SourceCodePro-Regular" font-size="50.0" fill="#000000" transform="matrix(1.00, 0.00, -0.00, -1.00, 720.0, 428.0)">l</text><text xml:space="preserve" font-family="SourceCodePro-Regular" font-size="50.0" fill="#000000" transform="matrix(1.00, 0.00, -0.00, -1.00, 750.0, 428.0)">s</text><text xml:space="preserve" font-family="SourceCodePro-Regular" font-size="50.0" fill="#000000" transform="matrix(1.00, 0.00, -0.00, -1.00, 780.0, 428.0)">p</text><text xml:space="preserve" font-family="SourceCodePro-Regular" font-size="50.0" fill="#000000" transform="matrix(1.00, 0.00, -0.00, -1.00, 810.0, 428.0)">e</text><text xml:space="preserve" font-family="SourceCodePro-Regular" font-size="50.0" fill="#000000" transform="matrix(1.00, 0.00, -0.00, -1.00, 840.0, 428.0)">c</text><text xml:space="preserve" font-family="SourceCodePro-Regular" font-size="50.0" fill="#000000" transform="matrix(1.00, 0.00, -0.00, -1.00, 870.0, 428.0)"> </text><text xml:space="preserve" font-family="SourceCodePro-Regular" font-size="50.0" fill="#000000" transform="matrix(1.00, 0.00, -0.00, -1.00, 900.0, 428.0)">l</text><text xml:space="preserve" font-family="SourceCodePro-Regular" font-size="50.0" fill="#000000" transform="matrix(1.00, 0.00, -0.00, -1.00, 930.0, 428.0)">i</text><text xml:space="preserve" font-family="SourceCodePro-Regular" font-size="50.0" fill="#000000" transform="matrix(1.00, 0.00, -0.00, -1.00, 960.0, 428.0)">s</text><text xml:space="preserve" font-family="SourceCodePro-Regular" font-size="50.0" fill="#000000" transform="matrix(1.00, 0.00, -0.00, -1.00, 990.0, 428.0)">t</text></g></svg>