<?xml version="1.0" encoding="UTF-8" standalone="no"?><svg xmlns="http://www.w3.org/2000/svg" xmlns:xlink="http://www.w3.org/1999/xlink" clip-rule="evenodd" stroke-miterlimit="4.00" viewBox="0 0 1346 252"><desc>SVG generated by Keynote</desc><defs></defs><g transform="matrix(1.00, 0.00, -0.00, -1.00, 0.0, 252.0)"><text xml:space="preserve" font-family="Courier-Oblique" font-style="italic" font-size="40.0" fill="#4E9192" transform="matrix(1.00, 0.00, -0.00, -1.00, 144.0, 204.0)">#</text><text xml:space="preserve" font-family="Courier-Oblique" font-style="italic" font-size="40.0" fill="#4E9192" transform="matrix(1.00, 0.00, -0.00, -1.00, 168.0, 204.0)"> </text><text xml:space="preserve" font-family="Courier-Oblique" font-style="italic" font-size="40.0" fill="#4E9192" transform="matrix(1.00, 0.00, -0.00, -1.00, 192.0, 204.0)">s</text><text xml:space="preserve" font-family="Courier-Oblique" font-style="italic" font-size="40.0" fill="#4E9192" transform="matrix(1.00, 0.00, -0.00, -1.00, 216.0, 204.0)">e</text><text xml:space="preserve" font-family="Courier-Oblique" font-style="italic" font-size="40.0" fill="#4E9192" transform="matrix(1.00, 0.00, -0.00, -1.00, 240.0, 204.0)">t</text><text xml:space="preserve" font-family="Courier-Oblique" font-style="italic" font-size="40.0" fill="#4E9192" transform="matrix(1.00, 0.00, -0.00, -1.00, 264.0, 204.0)"> </text><text xml:space="preserve" font-family="Courier-Oblique" font-style="italic" font-size="40.0" fill="#4E9192" transform="matrix(1.00, 0.00, -0.00, -1.00, 288.0, 204.0)">o</text><text xml:space="preserve" font-family="Courier-Oblique" font-style="italic" font-size="40.0" fill="#4E9192" transform="matrix(1.00, 0.00, -0.00, -1.00, 312.1, 204.0)">f</text><text xml:space="preserve" font-family="Courier-Oblique" font-style="italic" font-size="40.0" fill="#4E9192" transform="matrix(1.00, 0.00, -0.00, -1.00, 336.1, 204.0)"> </text><text xml:space="preserve" font-family="Courier-Oblique" font-style="italic" font-size="40.0" fill="#4E9192" transform="matrix(1.00, 0.00, -0.00, -1.00, 360.1, 204.0)">u</text><text xml:space="preserve" font-family="Courier-Oblique" font-style="italic" font-size="40.0" fill="#4E9192" transform="matrix(1.00, 0.00, -0.00, -1.00, 384.1, 204.0)">s</text><text xml:space="preserve" font-family="Courier-Oblique" font-style="italic" font-size="40.0" fill="#4E9192" transform="matrix(1.00, 0.00, -0.00, -1.00, 408.1, 204.0)">e</text><text xml:space="preserve" font-family="Courier-Oblique" font-style="italic" font-size="40.0" fill="#4E9192" transform="matrix(1.00, 0.00, -0.00, -1.00, 432.1, 204.0)">r</text><text xml:space="preserve" font-family="Courier-Oblique" font-style="italic" font-size="40.0" fill="#4E9192" transform="matrix(1.00, 0.00, -0.00, -1.00, 456.1, 204.0)">s</text><text xml:space="preserve" font-family="Courier-Oblique" font-style="italic" font-size="40.0" fill="#4E9192" transform="matrix(1.00, 0.00, -0.00, -1.00, 480.1, 204.0)"> </text><text xml:space="preserve" font-family="Courier-Oblique" font-style="italic" font-size="40.0" fill="#4E9192" transform="matrix(1.00, 0.00, -0.00, -1.00, 504.1, 204.0)">a</text><text xml:space="preserve" font-family="Courier-Oblique" font-style="italic" font-size="40.0" fill="#4E9192" transform="matrix(1.00, 0.00, -0.00, -1.00, 528.1, 204.0)">l</text><text xml:space="preserve" font-family="Courier-Oblique" font-style="italic" font-size="40.0" fill="#4E9192" transform="matrix(1.00, 0.00, -0.00, -1.00, 552.1, 204.0)">l</text><text xml:space="preserve" font-family="Courier-Oblique" font-style="italic" font-size="40.0" fill="#4E9192" transform="matrix(1.00, 0.00, -0.00, -1.00, 576.1, 204.0)">o</text><text xml:space="preserve" font-family="Courier-Oblique" font-style="italic" font-size="40.0" fill="#4E9192" transform="matrix(1.00, 0.00, -0.00, -1.00, 600.2, 204.0)">w</text><text xml:space="preserve" font-family="Courier-Oblique" font-style="italic" font-size="40.0" fill="#4E9192" transform="matrix(1.00, 0.00, -0.00, -1.00, 624.2, 204.0)">e</text><text xml:space="preserve" font-family="Courier-Oblique" font-style="italic" font-size="40.0" fill="#4E9192" transform="matrix(1.00, 0.00, -0.00, -1.00, 648.2, 204.0)">d</text><text xml:space="preserve" font-family="Courier-Oblique" font-style="italic" font-size="40.0" fill="#4E9192" transform="matrix(1.00, 0.00, -0.00, -1.00, 672.2, 204.0)"> </text><text xml:space="preserve" font-family="Courier-Oblique" font-style="italic" font-size="40.0" fill="#4E9192" transform="matrix(1.00, 0.00, -0.00, -1.00, 696.2, 204.0)">t</text><text xml:space="preserve" font-family="Courier-Oblique" font-style="italic" font-size="40.0" fill="#4E9192" transform="matrix(1.00, 0.00, -0.00, -1.00, 720.2, 204.0)">o</text><text xml:space="preserve" font-family="Courier-Oblique" font-style="italic" font-size="40.0" fill="#4E9192" transform="matrix(1.00, 0.00, -0.00, -1.00, 744.2, 204.0)"> </text><text xml:space="preserve" font-family="Courier-Oblique" font-style="italic" font-size="40.0" fill="#4E9192" transform="matrix(1.00, 0.00, -0.00, -1.00, 768.2, 204.0)">u</text><text xml:space="preserve" font-family="Courier-Oblique" font-style="italic" font-size="40.0" fill="#4E9192" transform="matrix(1.00, 0.00, -0.00, -1.00, 792.2, 204.0)">s</text><text xml:space="preserve" font-family="Courier-Oblique" font-style="italic" font-size="40.0" fill="#4E9192" transform="matrix(1.00, 0.00, -0.00, -1.00, 816.2, 204.0)">e</text><text xml:space="preserve" font-family="Courier-Oblique" font-style="italic" font-size="40.0" fill="#4E9192" transform="matrix(1.00, 0.00, -0.00, -1.00, 840.2, 204.0)"> </text><text xml:space="preserve" font-family="Courier-Oblique" font-style="italic" font-size="40.0" fill="#4E9192" transform="matrix(1.00, 0.00, -0.00, -1.00, 864.2, 204.0)">t</text><text xml:space="preserve" font-family="Courier-Oblique" font-style="italic" font-size="40.0" fill="#4E9192" transform="matrix(1.00, 0.00, -0.00, -1.00, 888.2, 204.0)">h</text><text xml:space="preserve" font-family="Courier-Oblique" font-style="italic" font-size="40.0" fill="#4E9192" transform="matrix(1.00, 0.00, -0.00, -1.00, 912.3, 204.0)">e</text><text xml:space="preserve" font-family="Courier-Oblique" font-style="italic" font-size="40.0" fill="#4E9192" transform="matrix(1.00, 0.00, -0.00, -1.00, 936.3, 204.0)"> </text><text xml:space="preserve" font-family="Courier-Oblique" font-style="italic" font-size="40.0" fill="#4E9192" transform="matrix(1.00, 0.00, -0.00, -1.00, 960.3, 204.0)">H</text><text xml:space="preserve" font-family="Courier-Oblique" font-style="italic" font-size="40.0" fill="#4E9192" transform="matrix(1.00, 0.00, -0.00, -1.00, 984.3, 204.0)">u</text><text xml:space="preserve" font-family="Courier-Oblique" font-style="italic" font-size="40.0" fill="#4E9192" transform="matrix(1.00, 0.00, -0.00, -1.00, 1008.3, 204.0)">b</text><text xml:space="preserve" font-family="Courier" font-size="40.0" fill="#000000" transform="matrix(1.00, 0.00, -0.00, -1.00, 144.0, 156.0)">c</text><text xml:space="preserve" font-family="Courier" font-size="40.0" fill="#797979" transform="matrix(1.00, 0.00, -0.00, -1.00, 168.0, 156.0)">.</text><text xml:space="preserve" font-family="Courier" font-size="40.0" fill="#000000" transform="matrix(1.00, 0.00, -0.00, -1.00, 192.0, 156.0)">A</text><text xml:space="preserve" font-family="Courier" font-size="40.0" fill="#000000" transform="matrix(1.00, 0.00, -0.00, -1.00, 216.0, 156.0)">u</text><text xml:space="preserve" font-family="Courier" font-size="40.0" fill="#000000" transform="matrix(1.00, 0.00, -0.00, -1.00, 240.0, 156.0)">t</text><text xml:space="preserve" font-family="Courier" font-size="40.0" fill="#000000" transform="matrix(1.00, 0.00, -0.00, -1.00, 264.0, 156.0)">h</text><text xml:space="preserve" font-family="Courier" font-size="40.0" fill="#000000" transform="matrix(1.00, 0.00, -0.00, -1.00, 288.0, 156.0)">e</text><text xml:space="preserve" font-family="Courier" font-size="40.0" fill="#000000" transform="matrix(1.00, 0.00, -0.00, -1.00, 312.0, 156.0)">n</text><text xml:space="preserve" font-family="Courier" font-size="40.0" fill="#000000" transform="matrix(1.00, 0.00, -0.00, -1.00, 336.1, 156.0)">t</text><text xml:space="preserve" font-family="Courier" font-size="40.0" fill="#000000" transform="matrix(1.00, 0.00, -0.00, -1.00, 360.1, 156.0)">i</text><text xml:space="preserve" font-family="Courier" font-size="40.0" fill="#000000" transform="matrix(1.00, 0.00, -0.00, -1.00, 384.1, 156.0)">c</text><text xml:space="preserve" font-family="Courier" font-size="40.0" fill="#000000" transform="matrix(1.00, 0.00, -0.00, -1.00, 408.1, 156.0)">a</text><text xml:space="preserve" font-family="Courier" font-size="40.0" fill="#000000" transform="matrix(1.00, 0.00, -0.00, -1.00, 432.1, 156.0)">t</text><text xml:space="preserve" font-family="Courier" font-size="40.0" fill="#000000" transform="matrix(1.00, 0.00, -0.00, -1.00, 456.1, 156.0)">o</text><text xml:space="preserve" font-family="Courier" font-size="40.0" fill="#000000" transform="matrix(1.00, 0.00, -0.00, -1.00, 480.1, 156.0)">r</text><text xml:space="preserve" font-family="Courier" font-size="40.0" fill="#797979" transform="matrix(1.00, 0.00, -0.00, -1.00, 504.1, 156.0)">.</text><text xml:space="preserve" font-family="Courier" font-size="40.0" fill="#000000" transform="matrix(1.00, 0.00, -0.00, -1.00, 528.1, 156.0)">w</text><text xml:space="preserve" font-family="Courier" font-size="40.0" fill="#000000" transform="matrix(1.00, 0.00, -0.00, -1.00, 552.1, 156.0)">h</text><text xml:space="preserve" font-family="Courier" font-size="40.0" fill="#000000" transform="matrix(1.00, 0.00, -0.00, -1.00, 576.1, 156.0)">i</text><text xml:space="preserve" font-family="Courier" font-size="40.0" fill="#000000" transform="matrix(1.00, 0.00, -0.00, -1.00, 600.1, 156.0)">t</text><text xml:space="preserve" font-family="Courier" font-size="40.0" fill="#000000" transform="matrix(1.00, 0.00, -0.00, -1.00, 624.1, 156.0)">e</text><text xml:space="preserve" font-family="Courier" font-size="40.0" fill="#000000" transform="matrix(1.00, 0.00, -0.00, -1.00, 648.1, 156.0)">l</text><text xml:space="preserve" font-family="Courier" font-size="40.0" fill="#000000" transform="matrix(1.00, 0.00, -0.00, -1.00, 672.1, 156.0)">i</text><text xml:space="preserve" font-family="Courier" font-size="40.0" fill="#000000" transform="matrix(1.00, 0.00, -0.00, -1.00, 696.1, 156.0)">s</text><text xml:space="preserve" font-family="Courier" font-size="40.0" fill="#000000" transform="matrix(1.00, 0.00, -0.00, -1.00, 720.1, 156.0)">t</text><text xml:space="preserve" font-family="Courier" font-size="40.0" fill="#000000" transform="matrix(1.00, 0.00, -0.00, -1.00, 744.1, 156.0)"> </text><text xml:space="preserve" font-family="Courier" font-size="40.0" fill="#797979" transform="matrix(1.00, 0.00, -0.00, -1.00, 768.1, 156.0)">=</text><text xml:space="preserve" font-family="Courier" font-size="40.0" fill="#000000" transform="matrix(1.00, 0.00, -0.00, -1.00, 792.1, 156.0)"> </text><text xml:space="preserve" font-family="Courier" font-size="40.0" fill="#000000" transform="matrix(1.00, 0.00, -0.00, -1.00, 816.1, 156.0)">{</text><text xml:space="preserve" font-family="Courier" font-size="40.0" fill="#C8352B" transform="matrix(1.00, 0.00, -0.00, -1.00, 840.1, 156.0)">'</text><text xml:space="preserve" font-family="Courier" font-size="40.0" fill="#C8352B" transform="matrix(1.00, 0.00, -0.00, -1.00, 864.1, 156.0)">m</text><text xml:space="preserve" font-family="Courier" font-size="40.0" fill="#C8352B" transform="matrix(1.00, 0.00, -0.00, -1.00, 888.1, 156.0)">i</text><text xml:space="preserve" font-family="Courier" font-size="40.0" fill="#C8352B" transform="matrix(1.00, 0.00, -0.00, -1.00, 912.1, 156.0)">n</text><text xml:space="preserve" font-family="Courier" font-size="40.0" fill="#C8352B" transform="matrix(1.00, 0.00, -0.00, -1.00, 936.1, 156.0)">r</text><text xml:space="preserve" font-family="Courier" font-size="40.0" fill="#C8352B" transform="matrix(1.00, 0.00, -0.00, -1.00, 960.2, 156.0)">k</text><text xml:space="preserve" font-family="Courier" font-size="40.0" fill="#C8352B" transform="matrix(1.00, 0.00, -0.00, -1.00, 984.2, 156.0)">'</text><text xml:space="preserve" font-family="Courier" font-size="40.0" fill="#000000" transform="matrix(1.00, 0.00, -0.00, -1.00, 1008.1, 156.0)">,</text><text xml:space="preserve" font-family="Courier" font-size="40.0" fill="#000000" transform="matrix(1.00, 0.00, -0.00, -1.00, 1032.1, 156.0)"> </text><text xml:space="preserve" font-family="Courier" font-size="40.0" fill="#C8352B" transform="matrix(1.00, 0.00, -0.00, -1.00, 1056.1, 156.0)">'</text><text xml:space="preserve" font-family="Courier" font-size="40.0" fill="#C8352B" transform="matrix(1.00, 0.00, -0.00, -1.00, 1080.2, 156.0)">t</text><text xml:space="preserve" font-family="Courier" font-size="40.0" fill="#C8352B" transform="matrix(1.00, 0.00, -0.00, -1.00, 1104.2, 156.0)">a</text><text xml:space="preserve" font-family="Courier" font-size="40.0" fill="#C8352B" transform="matrix(1.00, 0.00, -0.00, -1.00, 1128.2, 156.0)">k</text><text xml:space="preserve" font-family="Courier" font-size="40.0" fill="#C8352B" transform="matrix(1.00, 0.00, -0.00, -1.00, 1152.2, 156.0)">l</text><text xml:space="preserve" font-family="Courier" font-size="40.0" fill="#C8352B" transform="matrix(1.00, 0.00, -0.00, -1.00, 1176.2, 156.0)">u</text><text xml:space="preserve" font-family="Courier" font-size="40.0" fill="#C8352B" transform="matrix(1.00, 0.00, -0.00, -1.00, 1200.2, 156.0)">y</text><text xml:space="preserve" font-family="Courier" font-size="40.0" fill="#C8352B" transform="matrix(1.00, 0.00, -0.00, -1.00, 1224.2, 156.0)">v</text><text xml:space="preserve" font-family="Courier" font-size="40.0" fill="#C8352B" transform="matrix(1.00, 0.00, -0.00, -1.00, 1248.2, 156.0)">e</text><text xml:space="preserve" font-family="Courier" font-size="40.0" fill="#C8352B" transform="matrix(1.00, 0.00, -0.00, -1.00, 1272.2, 156.0)">r</text><text xml:space="preserve" font-family="Courier" font-size="40.0" fill="#C8352B" transform="matrix(1.00, 0.00, -0.00, -1.00, 1296.2, 156.0)">'</text><text xml:space="preserve" font-family="Courier" font-size="40.0" fill="#000000" transform="matrix(1.00, 0.00, -0.00, -1.00, 1320.2, 156.0)">}</text><text xml:space="preserve" font-family="Courier-Oblique" font-style="italic" font-size="40.0" fill="#4E9192" transform="matrix(1.00, 0.00, -0.00, -1.00, 144.0, 60.0)">#</text><text xml:space="preserve" font-family="Courier-Oblique" font-style="italic" font-size="40.0" fill="#4E9192" transform="matrix(1.00, 0.00, -0.00, -1.00, 168.0, 60.0)"> </text><text xml:space="preserve" font-family="Courier-Oblique" font-style="italic" font-size="40.0" fill="#4E9192" transform="matrix(1.00, 0.00, -0.00, -1.00, 192.0, 60.0)">s</text><text xml:space="preserve" font-family="Courier-Oblique" font-style="italic" font-size="40.0" fill="#4E9192" transform="matrix(1.00, 0.00, -0.00, -1.00, 216.0, 60.0)">e</text><text xml:space="preserve" font-family="Courier-Oblique" font-style="italic" font-size="40.0" fill="#4E9192" transform="matrix(1.00, 0.00, -0.00, -1.00, 240.0, 60.0)">t</text><text xml:space="preserve" font-family="Courier-Oblique" font-style="italic" font-size="40.0" fill="#4E9192" transform="matrix(1.00, 0.00, -0.00, -1.00, 264.0, 60.0)"> </text><text xml:space="preserve" font-family="Courier-Oblique" font-style="italic" font-size="40.0" fill="#4E9192" transform="matrix(1.00, 0.00, -0.00, -1.00, 288.0, 60.0)">o</text><text xml:space="preserve" font-family="Courier-Oblique" font-style="italic" font-size="40.0" fill="#4E9192" transform="matrix(1.00, 0.00, -0.00, -1.00, 312.1, 60.0)">f</text><text xml:space="preserve" font-family="Courier-Oblique" font-style="italic" font-size="40.0" fill="#4E9192" transform="matrix(1.00, 0.00, -0.00, -1.00, 336.1, 60.0)"> </text><text xml:space="preserve" font-family="Courier-Oblique" font-style="italic" font-size="40.0" fill="#4E9192" transform="matrix(1.00, 0.00, -0.00, -1.00, 360.1, 60.0)">u</text><text xml:space="preserve" font-family="Courier-Oblique" font-style="italic" font-size="40.0" fill="#4E9192" transform="matrix(1.00, 0.00, -0.00, -1.00, 384.1, 60.0)">s</text><text xml:space="preserve" font-family="Courier-Oblique" font-style="italic" font-size="40.0" fill="#4E9192" transform="matrix(1.00, 0.00, -0.00, -1.00, 408.1, 60.0)">e</text><text xml:space="preserve" font-family="Courier-Oblique" font-style="italic" font-size="40.0" fill="#4E9192" transform="matrix(1.00, 0.00, -0.00, -1.00, 432.1, 60.0)">r</text><text xml:space="preserve" font-family="Courier-Oblique" font-style="italic" font-size="40.0" fill="#4E9192" transform="matrix(1.00, 0.00, -0.00, -1.00, 456.1, 60.0)">s</text><text xml:space="preserve" font-family="Courier-Oblique" font-style="italic" font-size="40.0" fill="#4E9192" transform="matrix(1.00, 0.00, -0.00, -1.00, 480.1, 60.0)"> </text><text xml:space="preserve" font-family="Courier-Oblique" font-style="italic" font-size="40.0" fill="#4E9192" transform="matrix(1.00, 0.00, -0.00, -1.00, 504.1, 60.0)">w</text><text xml:space="preserve" font-family="Courier-Oblique" font-style="italic" font-size="40.0" fill="#4E9192" transform="matrix(1.00, 0.00, -0.00, -1.00, 528.1, 60.0)">h</text><text xml:space="preserve" font-family="Courier-Oblique" font-style="italic" font-size="40.0" fill="#4E9192" transform="matrix(1.00, 0.00, -0.00, -1.00, 552.1, 60.0)">o</text><text xml:space="preserve" font-family="Courier-Oblique" font-style="italic" font-size="40.0" fill="#4E9192" transform="matrix(1.00, 0.00, -0.00, -1.00, 576.1, 60.0)"> </text><text xml:space="preserve" font-family="Courier-Oblique" font-style="italic" font-size="40.0" fill="#4E9192" transform="matrix(1.00, 0.00, -0.00, -1.00, 600.2, 60.0)">c</text><text xml:space="preserve" font-family="Courier-Oblique" font-style="italic" font-size="40.0" fill="#4E9192" transform="matrix(1.00, 0.00, -0.00, -1.00, 624.2, 60.0)">a</text><text xml:space="preserve" font-family="Courier-Oblique" font-style="italic" font-size="40.0" fill="#4E9192" transform="matrix(1.00, 0.00, -0.00, -1.00, 648.2, 60.0)">n</text><text xml:space="preserve" font-family="Courier-Oblique" font-style="italic" font-size="40.0" fill="#4E9192" transform="matrix(1.00, 0.00, -0.00, -1.00, 672.2, 60.0)"> </text><text xml:space="preserve" font-family="Courier-Oblique" font-style="italic" font-size="40.0" fill="#4E9192" transform="matrix(1.00, 0.00, -0.00, -1.00, 696.2, 60.0)">a</text><text xml:space="preserve" font-family="Courier-Oblique" font-style="italic" font-size="40.0" fill="#4E9192" transform="matrix(1.00, 0.00, -0.00, -1.00, 720.2, 60.0)">d</text><text xml:space="preserve" font-family="Courier-Oblique" font-style="italic" font-size="40.0" fill="#4E9192" transform="matrix(1.00, 0.00, -0.00, -1.00, 744.2, 60.0)">m</text><text xml:space="preserve" font-family="Courier-Oblique" font-style="italic" font-size="40.0" fill="#4E9192" transform="matrix(1.00, 0.00, -0.00, -1.00, 768.2, 60.0)">i</text><text xml:space="preserve" font-family="Courier-Oblique" font-style="italic" font-size="40.0" fill="#4E9192" transform="matrix(1.00, 0.00, -0.00, -1.00, 792.2, 60.0)">n</text><text xml:space="preserve" font-family="Courier-Oblique" font-style="italic" font-size="40.0" fill="#4E9192" transform="matrix(1.00, 0.00, -0.00, -1.00, 816.2, 60.0)">i</text><text xml:space="preserve" font-family="Courier-Oblique" font-style="italic" font-size="40.0" fill="#4E9192" transform="matrix(1.00, 0.00, -0.00, -1.00, 840.2, 60.0)">s</text><text xml:space="preserve" font-family="Courier-Oblique" font-style="italic" font-size="40.0" fill="#4E9192" transform="matrix(1.00, 0.00, -0.00, -1.00, 864.2, 60.0)">t</text><text xml:space="preserve" font-family="Courier-Oblique" font-style="italic" font-size="40.0" fill="#4E9192" transform="matrix(1.00, 0.00, -0.00, -1.00, 888.2, 60.0)">e</text><text xml:space="preserve" font-family="Courier-Oblique" font-style="italic" font-size="40.0" fill="#4E9192" transform="matrix(1.00, 0.00, -0.00, -1.00, 912.3, 60.0)">r</text><text xml:space="preserve" font-family="Courier-Oblique" font-style="italic" font-size="40.0" fill="#4E9192" transform="matrix(1.00, 0.00, -0.00, -1.00, 936.3, 60.0)"> </text><text xml:space="preserve" font-family="Courier-Oblique" font-style="italic" font-size="40.0" fill="#4E9192" transform="matrix(1.00, 0.00, -0.00, -1.00, 960.3, 60.0)">t</text><text xml:space="preserve" font-family="Courier-Oblique" font-style="italic" font-size="40.0" fill="#4E9192" transform="matrix(1.00, 0.00, -0.00, -1.00, 984.3, 60.0)">h</text><text xml:space="preserve" font-family="Courier-Oblique" font-style="italic" font-size="40.0" fill="#4E9192" transform="matrix(1.00, 0.00, -0.00, -1.00, 1008.3, 60.0)">e</text><text xml:space="preserve" font-family="Courier-Oblique" font-style="italic" font-size="40.0" fill="#4E9192" transform="matrix(1.00, 0.00, -0.00, -1.00, 1032.3, 60.0)"> </text><text xml:space="preserve" font-family="Courier-Oblique" font-style="italic" font-size="40.0" fill="#4E9192" transform="matrix(1.00, 0.00, -0.00, -1.00, 1056.3, 60.0)">H</text><text xml:space="preserve" font-family="Courier-Oblique" font-style="italic" font-size="40.0" fill="#4E9192" transform="matrix(1.00, 0.00, -0.00, -1.00, 1080.3, 60.0)">u</text><text xml:space="preserve" font-family="Courier-Oblique" font-style="italic" font-size="40.0" fill="#4E9192" transform="matrix(1.00, 0.00, -0.00, -1.00, 1104.3, 60.0)">b</text><text xml:space="preserve" font-family="Courier-Oblique" font-style="italic" font-size="40.0" fill="#4E9192" transform="matrix(1.00, 0.00, -0.00, -1.00, 1128.3, 60.0)"> </text><text xml:space="preserve" font-family="Courier-Oblique" font-style="italic" font-size="40.0" fill="#4E9192" transform="matrix(1.00, 0.00, -0.00, -1.00, 1152.3, 60.0)">i</text><text xml:space="preserve" font-family="Courier-Oblique" font-style="italic" font-size="40.0" fill="#4E9192" transform="matrix(1.00, 0.00, -0.00, -1.00, 1176.3, 60.0)">t</text><text xml:space="preserve" font-family="Courier-Oblique" font-style="italic" font-size="40.0" fill="#4E9192" transform="matrix(1.00, 0.00, -0.00, -1.00, 1200.3, 60.0)">s</text><text xml:space="preserve" font-family="Courier-Oblique" font-style="italic" font-size="40.0" fill="#4E9192" transform="matrix(1.00, 0.00, -0.00, -1.00, 1224.4, 60.0)">e</text><text xml:space="preserve" font-family="Courier-Oblique" font-style="italic" font-size="40.0" fill="#4E9192" transform="matrix(1.00, 0.00, -0.00, -1.00, 1248.4, 60.0)">l</text><text xml:space="preserve" font-family="Courier-Oblique" font-style="italic" font-size="40.0" fill="#4E9192" transform="matrix(1.00, 0.00, -0.00, -1.00, 1272.4, 60.0)">f</text><text xml:space="preserve" font-family="Courier" font-size="40.0" fill="#000000" transform="matrix(1.00, 0.00, -0.00, -1.00, 144.0, 12.0)">c</text><text xml:space="preserve" font-family="Courier" font-size="40.0" fill="#797979" transform="matrix(1.00, 0.00, -0.00, -1.00, 168.0, 12.0)">.</text><text xml:space="preserve" font-family="Courier" font-size="40.0" fill="#000000" transform="matrix(1.00, 0.00, -0.00, -1.00, 192.0, 12.0)">A</text><text xml:space="preserve" font-family="Courier" font-size="40.0" fill="#000000" transform="matrix(1.00, 0.00, -0.00, -1.00, 216.0, 12.0)">u</text><text xml:space="preserve" font-family="Courier" font-size="40.0" fill="#000000" transform="matrix(1.00, 0.00, -0.00, -1.00, 240.0, 12.0)">t</text><text xml:space="preserve" font-family="Courier" font-size="40.0" fill="#000000" transform="matrix(1.00, 0.00, -0.00, -1.00, 264.0, 12.0)">h</text><text xml:space="preserve" font-family="Courier" font-size="40.0" fill="#000000" transform="matrix(1.00, 0.00, -0.00, -1.00, 288.0, 12.0)">e</text><text xml:space="preserve" font-family="Courier" font-size="40.0" fill="#000000" transform="matrix(1.00, 0.00, -0.00, -1.00, 312.0, 12.0)">n</text><text xml:space="preserve" font-family="Courier" font-size="40.0" fill="#000000" transform="matrix(1.00, 0.00, -0.00, -1.00, 336.1, 12.0)">t</text><text xml:space="preserve" font-family="Courier" font-size="40.0" fill="#000000" transform="matrix(1.00, 0.00, -0.00, -1.00, 360.1, 12.0)">i</text><text xml:space="preserve" font-family="Courier" font-size="40.0" fill="#000000" transform="matrix(1.00, 0.00, -0.00, -1.00, 384.1, 12.0)">c</text><text xml:space="preserve" font-family="Courier" font-size="40.0" fill="#000000" transform="matrix(1.00, 0.00, -0.00, -1.00, 408.1, 12.0)">a</text><text xml:space="preserve" font-family="Courier" font-size="40.0" fill="#000000" transform="matrix(1.00, 0.00, -0.00, -1.00, 432.1, 12.0)">t</text><text xml:space="preserve" font-family="Courier" font-size="40.0" fill="#000000" transform="matrix(1.00, 0.00, -0.00, -1.00, 456.1, 12.0)">o</text><text xml:space="preserve" font-family="Courier" font-size="40.0" fill="#000000" transform="matrix(1.00, 0.00, -0.00, -1.00, 480.1, 12.0)">r</text><text xml:space="preserve" font-family="Courier" font-size="40.0" fill="#797979" transform="matrix(1.00, 0.00, -0.00, -1.00, 504.1, 12.0)">.</text><text xml:space="preserve" font-family="Courier" font-size="40.0" fill="#000000" transform="matrix(1.00, 0.00, -0.00, -1.00, 528.1, 12.0)">a</text><text xml:space="preserve" font-family="Courier" font-size="40.0" fill="#000000" transform="matrix(1.00, 0.00, -0.00, -1.00, 552.1, 12.0)">d</text><text xml:space="preserve" font-family="Courier" font-size="40.0" fill="#000000" transform="matrix(1.00, 0.00, -0.00, -1.00, 576.1, 12.0)">m</text><text xml:space="preserve" font-family="Courier" font-size="40.0" fill="#000000" transform="matrix(1.00, 0.00, -0.00, -1.00, 600.1, 12.0)">i</text><text xml:space="preserve" font-family="Courier" font-size="40.0" fill="#000000" transform="matrix(1.00, 0.00, -0.00, -1.00, 624.1, 12.0)">n</text><text xml:space="preserve" font-family="Courier" font-size="40.0" fill="#000000" transform="matrix(1.00, 0.00, -0.00, -1.00, 648.1, 12.0)">_</text><text xml:space="preserve" font-family="Courier" font-size="40.0" fill="#000000" transform="matrix(1.00, 0.00, -0.00, -1.00, 672.1, 12.0)">u</text><text xml:space="preserve" font-family="Courier" font-size="40.0" fill="#000000" transform="matrix(1.00, 0.00, -0.00, -1.00, 696.1, 12.0)">s</text><text xml:space="preserve" font-family="Courier" font-size="40.0" fill="#000000" transform="matrix(1.00, 0.00, -0.00, -1.00, 720.1, 12.0)">e</text><text xml:space="preserve" font-family="Courier" font-size="40.0" fill="#000000" transform="matrix(1.00, 0.00, -0.00, -1.00, 744.1, 12.0)">r</text><text xml:space="preserve" font-family="Courier" font-size="40.0" fill="#000000" transform="matrix(1.00, 0.00, -0.00, -1.00, 768.1, 12.0)">s</text><text xml:space="preserve" font-family="Courier" font-size="40.0" fill="#000000" transform="matrix(1.00, 0.00, -0.00, -1.00, 792.1, 12.0)"> </text><text xml:space="preserve" font-family="Courier" font-size="40.0" fill="#797979" transform="matrix(1.00, 0.00, -0.00, -1.00, 816.1, 12.0)">=</text><text xml:space="preserve" font-family="Courier" font-size="40.0" fill="#000000" transform="matrix(1.00, 0.00, -0.00, -1.00, 840.1, 12.0)"> </text><text xml:space="preserve" font-family="Courier" font-size="40.0" fill="#000000" transform="matrix(1.00, 0.00, -0.00, -1.00, 864.1, 12.0)">{</text><text xml:space="preserve" font-family="Courier" font-size="40.0" fill="#C8352B" transform="matrix(1.00, 0.00, -0.00, -1.00, 888.1, 12.0)">'</text><text xml:space="preserve" font-family="Courier" font-size="40.0" fill="#C8352B" transform="matrix(1.00, 0.00, -0.00, -1.00, 912.1, 12.0)">m</text><text xml:space="preserve" font-family="Courier" font-size="40.0" fill="#C8352B" transform="matrix(1.00, 0.00, -0.00, -1.00, 936.1, 12.0)">i</text><text xml:space="preserve" font-family="Courier" font-size="40.0" fill="#C8352B" transform="matrix(1.00, 0.00, -0.00, -1.00, 960.1, 12.0)">n</text><text xml:space="preserve" font-family="Courier" font-size="40.0" fill="#C8352B" transform="matrix(1.00, 0.00, -0.00, -1.00, 984.2, 12.0)">r</text><text xml:space="preserve" font-family="Courier" font-size="40.0" fill="#C8352B" transform="matrix(1.00, 0.00, -0.00, -1.00, 1008.2, 12.0)">k</text><text xml:space="preserve" font-family="Courier" font-size="40.0" fill="#C8352B" transform="matrix(1.00, 0.00, -0.00, -1.00, 1032.2, 12.0)">'</text><text xml:space="preserve" font-family="Courier" font-size="40.0" fill="#000000" transform="matrix(1.00, 0.00, -0.00, -1.00, 1056.1, 12.0)">}</text></g></svg>