<?xml version="1.0" encoding="UTF-8" standalone="no"?><svg xmlns="http://www.w3.org/2000/svg" xmlns:xlink="http://www.w3.org/1999/xlink" clip-rule="evenodd" stroke-miterlimit="4.00" viewBox="0 0 1415 39"><desc>SVG generated by Keynote</desc><defs></defs><g transform="matrix(1.00, 0.00, -0.00, -1.00, 0.0, 39.0)"><text xml:space="preserve" font-family="Courier-Bold" font-weight="bold" font-size="40.0" fill="#008E00" transform="matrix(1.00, 0.00, -0.00, -1.00, -2.0, 9.0)">f</text><text xml:space="preserve" font-family="Courier-Bold" font-weight="bold" font-size="40.0" fill="#008E00" transform="matrix(1.00, 0.00, -0.00, -1.00, 22.0, 9.0)">r</text><text xml:space="preserve" font-family="Courier-Bold" font-weight="bold" font-size="40.0" fill="#008E00" transform="matrix(1.00, 0.00, -0.00, -1.00, 46.0, 9.0)">o</text><text xml:space="preserve" font-family="Courier-Bold" font-weight="bold" font-size="40.0" fill="#008E00" transform="matrix(1.00, 0.00, -0.00, -1.00, 70.0, 9.0)">m</text><text xml:space="preserve" font-family="Courier" font-size="40.0" fill="#000000" transform="matrix(1.00, 0.00, -0.00, -1.00, 94.0, 9.0)"> </text><text xml:space="preserve" font-family="Courier-Bold" font-weight="bold" font-size="40.0" fill="#0432FF" transform="matrix(1.00, 0.00, -0.00, -1.00, 118.0, 9.0)">o</text><text xml:space="preserve" font-family="Courier-Bold" font-weight="bold" font-size="40.0" fill="#0432FF" transform="matrix(1.00, 0.00, -0.00, -1.00, 142.0, 9.0)">a</text><text xml:space="preserve" font-family="Courier-Bold" font-weight="bold" font-size="40.0" fill="#0432FF" transform="matrix(1.00, 0.00, -0.00, -1.00, 166.0, 9.0)">u</text><text xml:space="preserve" font-family="Courier-Bold" font-weight="bold" font-size="40.0" fill="#0432FF" transform="matrix(1.00, 0.00, -0.00, -1.00, 190.0, 9.0)">t</text><text xml:space="preserve" font-family="Courier-Bold" font-weight="bold" font-size="40.0" fill="#0432FF" transform="matrix(1.00, 0.00, -0.00, -1.00, 214.1, 9.0)">h</text><text xml:space="preserve" font-family="Courier-Bold" font-weight="bold" font-size="40.0" fill="#0432FF" transform="matrix(1.00, 0.00, -0.00, -1.00, 238.1, 9.0)">e</text><text xml:space="preserve" font-family="Courier-Bold" font-weight="bold" font-size="40.0" fill="#0432FF" transform="matrix(1.00, 0.00, -0.00, -1.00, 262.1, 9.0)">n</text><text xml:space="preserve" font-family="Courier-Bold" font-weight="bold" font-size="40.0" fill="#0432FF" transform="matrix(1.00, 0.00, -0.00, -1.00, 286.1, 9.0)">t</text><text xml:space="preserve" font-family="Courier-Bold" font-weight="bold" font-size="40.0" fill="#0432FF" transform="matrix(1.00, 0.00, -0.00, -1.00, 310.1, 9.0)">i</text><text xml:space="preserve" font-family="Courier-Bold" font-weight="bold" font-size="40.0" fill="#0432FF" transform="matrix(1.00, 0.00, -0.00, -1.00, 334.1, 9.0)">c</text><text xml:space="preserve" font-family="Courier-Bold" font-weight="bold" font-size="40.0" fill="#0432FF" transform="matrix(1.00, 0.00, -0.00, -1.00, 358.1, 9.0)">a</text><text xml:space="preserve" font-family="Courier-Bold" font-weight="bold" font-size="40.0" fill="#0432FF" transform="matrix(1.00, 0.00, -0.00, -1.00, 382.1, 9.0)">t</text><text xml:space="preserve" font-family="Courier-Bold" font-weight="bold" font-size="40.0" fill="#0432FF" transform="matrix(1.00, 0.00, -0.00, -1.00, 406.1, 9.0)">o</text><text xml:space="preserve" font-family="Courier-Bold" font-weight="bold" font-size="40.0" fill="#0432FF" transform="matrix(1.00, 0.00, -0.00, -1.00, 430.1, 9.0)">r</text><text xml:space="preserve" font-family="Courier-Bold" font-weight="bold" font-size="40.0" fill="#0432FF" transform="matrix(1.00, 0.00, -0.00, -1.00, 454.1, 9.0)">.</text><text xml:space="preserve" font-family="Courier-Bold" font-weight="bold" font-size="40.0" fill="#0432FF" transform="matrix(1.00, 0.00, -0.00, -1.00, 478.1, 9.0)">g</text><text xml:space="preserve" font-family="Courier-Bold" font-weight="bold" font-size="40.0" fill="#0432FF" transform="matrix(1.00, 0.00, -0.00, -1.00, 502.1, 9.0)">i</text><text xml:space="preserve" font-family="Courier-Bold" font-weight="bold" font-size="40.0" fill="#0432FF" transform="matrix(1.00, 0.00, -0.00, -1.00, 526.2, 9.0)">t</text><text xml:space="preserve" font-family="Courier-Bold" font-weight="bold" font-size="40.0" fill="#0432FF" transform="matrix(1.00, 0.00, -0.00, -1.00, 550.2, 9.0)">h</text><text xml:space="preserve" font-family="Courier-Bold" font-weight="bold" font-size="40.0" fill="#0432FF" transform="matrix(1.00, 0.00, -0.00, -1.00, 574.2, 9.0)">u</text><text xml:space="preserve" font-family="Courier-Bold" font-weight="bold" font-size="40.0" fill="#0432FF" transform="matrix(1.00, 0.00, -0.00, -1.00, 598.2, 9.0)">b</text><text xml:space="preserve" font-family="Courier" font-size="40.0" fill="#000000" transform="matrix(1.00, 0.00, -0.00, -1.00, 622.1, 9.0)"> </text><text xml:space="preserve" font-family="Courier-Bold" font-weight="bold" font-size="40.0" fill="#008E00" transform="matrix(1.00, 0.00, -0.00, -1.00, 646.1, 9.0)">i</text><text xml:space="preserve" font-family="Courier-Bold" font-weight="bold" font-size="40.0" fill="#008E00" transform="matrix(1.00, 0.00, -0.00, -1.00, 670.1, 9.0)">m</text><text xml:space="preserve" font-family="Courier-Bold" font-weight="bold" font-size="40.0" fill="#008E00" transform="matrix(1.00, 0.00, -0.00, -1.00, 694.1, 9.0)">p</text><text xml:space="preserve" font-family="Courier-Bold" font-weight="bold" font-size="40.0" fill="#008E00" transform="matrix(1.00, 0.00, -0.00, -1.00, 718.1, 9.0)">o</text><text xml:space="preserve" font-family="Courier-Bold" font-weight="bold" font-size="40.0" fill="#008E00" transform="matrix(1.00, 0.00, -0.00, -1.00, 742.1, 9.0)">r</text><text xml:space="preserve" font-family="Courier-Bold" font-weight="bold" font-size="40.0" fill="#008E00" transform="matrix(1.00, 0.00, -0.00, -1.00, 766.1, 9.0)">t</text><text xml:space="preserve" font-family="Courier" font-size="40.0" fill="#000000" transform="matrix(1.00, 0.00, -0.00, -1.00, 790.1, 9.0)"> </text><text xml:space="preserve" font-family="Courier" font-size="40.0" fill="#000000" transform="matrix(1.00, 0.00, -0.00, -1.00, 814.1, 9.0)">L</text><text xml:space="preserve" font-family="Courier" font-size="40.0" fill="#000000" transform="matrix(1.00, 0.00, -0.00, -1.00, 838.1, 9.0)">o</text><text xml:space="preserve" font-family="Courier" font-size="40.0" fill="#000000" transform="matrix(1.00, 0.00, -0.00, -1.00, 862.2, 9.0)">c</text><text xml:space="preserve" font-family="Courier" font-size="40.0" fill="#000000" transform="matrix(1.00, 0.00, -0.00, -1.00, 886.2, 9.0)">a</text><text xml:space="preserve" font-family="Courier" font-size="40.0" fill="#000000" transform="matrix(1.00, 0.00, -0.00, -1.00, 910.2, 9.0)">l</text><text xml:space="preserve" font-family="Courier" font-size="40.0" fill="#000000" transform="matrix(1.00, 0.00, -0.00, -1.00, 934.2, 9.0)">G</text><text xml:space="preserve" font-family="Courier" font-size="40.0" fill="#000000" transform="matrix(1.00, 0.00, -0.00, -1.00, 958.2, 9.0)">i</text><text xml:space="preserve" font-family="Courier" font-size="40.0" fill="#000000" transform="matrix(1.00, 0.00, -0.00, -1.00, 982.2, 9.0)">t</text><text xml:space="preserve" font-family="Courier" font-size="40.0" fill="#000000" transform="matrix(1.00, 0.00, -0.00, -1.00, 1006.2, 9.0)">H</text><text xml:space="preserve" font-family="Courier" font-size="40.0" fill="#000000" transform="matrix(1.00, 0.00, -0.00, -1.00, 1030.2, 9.0)">u</text><text xml:space="preserve" font-family="Courier" font-size="40.0" fill="#000000" transform="matrix(1.00, 0.00, -0.00, -1.00, 1054.2, 9.0)">b</text><text xml:space="preserve" font-family="Courier" font-size="40.0" fill="#000000" transform="matrix(1.00, 0.00, -0.00, -1.00, 1078.2, 9.0)">O</text><text xml:space="preserve" font-family="Courier" font-size="40.0" fill="#000000" transform="matrix(1.00, 0.00, -0.00, -1.00, 1102.2, 9.0)">A</text><text xml:space="preserve" font-family="Courier" font-size="40.0" fill="#000000" transform="matrix(1.00, 0.00, -0.00, -1.00, 1126.2, 9.0)">u</text><text xml:space="preserve" font-family="Courier" font-size="40.0" fill="#000000" transform="matrix(1.00, 0.00, -0.00, -1.00, 1150.2, 9.0)">t</text><text xml:space="preserve" font-family="Courier" font-size="40.0" fill="#000000" transform="matrix(1.00, 0.00, -0.00, -1.00, 1174.3, 9.0)">h</text><text xml:space="preserve" font-family="Courier" font-size="40.0" fill="#000000" transform="matrix(1.00, 0.00, -0.00, -1.00, 1198.3, 9.0)">e</text><text xml:space="preserve" font-family="Courier" font-size="40.0" fill="#000000" transform="matrix(1.00, 0.00, -0.00, -1.00, 1222.3, 9.0)">n</text><text xml:space="preserve" font-family="Courier" font-size="40.0" fill="#000000" transform="matrix(1.00, 0.00, -0.00, -1.00, 1246.3, 9.0)">t</text><text xml:space="preserve" font-family="Courier" font-size="40.0" fill="#000000" transform="matrix(1.00, 0.00, -0.00, -1.00, 1270.3, 9.0)">i</text><text xml:space="preserve" font-family="Courier" font-size="40.0" fill="#000000" transform="matrix(1.00, 0.00, -0.00, -1.00, 1294.3, 9.0)">c</text><text xml:space="preserve" font-family="Courier" font-size="40.0" fill="#000000" transform="matrix(1.00, 0.00, -0.00, -1.00, 1318.3, 9.0)">a</text><text xml:space="preserve" font-family="Courier" font-size="40.0" fill="#000000" transform="matrix(1.00, 0.00, -0.00, -1.00, 1342.3, 9.0)">t</text><text xml:space="preserve" font-family="Courier" font-size="40.0" fill="#000000" transform="matrix(1.00, 0.00, -0.00, -1.00, 1366.3, 9.0)">o</text><text xml:space="preserve" font-family="Courier" font-size="40.0" fill="#000000" transform="matrix(1.00, 0.00, -0.00, -1.00, 1390.3, 9.0)">r</text></g></svg>