<?xml version="1.0" encoding="UTF-8" standalone="no"?><svg xmlns="http://www.w3.org/2000/svg" xmlns:xlink="http://www.w3.org/1999/xlink" clip-rule="evenodd" stroke-miterlimit="4.00" viewBox="0 0 1441 41"><desc>SVG generated by Keynote</desc><defs></defs><g transform="matrix(1.00, 0.00, -0.00, -1.00, 0.0, 41.0)"><text xml:space="preserve" font-family="Courier" font-size="40.0" fill="#000000" transform="matrix(1.00, 0.00, -0.00, -1.00, 0.0, 11.0)">c</text><text xml:space="preserve" font-family="Courier" font-size="40.0" fill="#797979" transform="matrix(1.00, 0.00, -0.00, -1.00, 24.0, 11.0)">.</text><text xml:space="preserve" font-family="Courier" font-size="40.0" fill="#000000" transform="matrix(1.00, 0.00, -0.00, -1.00, 48.0, 11.0)">J</text><text xml:space="preserve" font-family="Courier" font-size="40.0" fill="#000000" transform="matrix(1.00, 0.00, -0.00, -1.00, 72.0, 11.0)">u</text><text xml:space="preserve" font-family="Courier" font-size="40.0" fill="#000000" transform="matrix(1.00, 0.00, -0.00, -1.00, 96.0, 11.0)">p</text><text xml:space="preserve" font-family="Courier" font-size="40.0" fill="#000000" transform="matrix(1.00, 0.00, -0.00, -1.00, 120.0, 11.0)">y</text><text xml:space="preserve" font-family="Courier" font-size="40.0" fill="#000000" transform="matrix(1.00, 0.00, -0.00, -1.00, 144.0, 11.0)">t</text><text xml:space="preserve" font-family="Courier" font-size="40.0" fill="#000000" transform="matrix(1.00, 0.00, -0.00, -1.00, 168.0, 11.0)">e</text><text xml:space="preserve" font-family="Courier" font-size="40.0" fill="#000000" transform="matrix(1.00, 0.00, -0.00, -1.00, 192.1, 11.0)">r</text><text xml:space="preserve" font-family="Courier" font-size="40.0" fill="#000000" transform="matrix(1.00, 0.00, -0.00, -1.00, 216.1, 11.0)">H</text><text xml:space="preserve" font-family="Courier" font-size="40.0" fill="#000000" transform="matrix(1.00, 0.00, -0.00, -1.00, 240.1, 11.0)">u</text><text xml:space="preserve" font-family="Courier" font-size="40.0" fill="#000000" transform="matrix(1.00, 0.00, -0.00, -1.00, 264.1, 11.0)">b</text><text xml:space="preserve" font-family="Courier" font-size="40.0" fill="#797979" transform="matrix(1.00, 0.00, -0.00, -1.00, 288.0, 11.0)">.</text><text xml:space="preserve" font-family="Courier" font-size="40.0" fill="#000000" transform="matrix(1.00, 0.00, -0.00, -1.00, 312.1, 11.0)">a</text><text xml:space="preserve" font-family="Courier" font-size="40.0" fill="#000000" transform="matrix(1.00, 0.00, -0.00, -1.00, 336.1, 11.0)">u</text><text xml:space="preserve" font-family="Courier" font-size="40.0" fill="#000000" transform="matrix(1.00, 0.00, -0.00, -1.00, 360.1, 11.0)">t</text><text xml:space="preserve" font-family="Courier" font-size="40.0" fill="#000000" transform="matrix(1.00, 0.00, -0.00, -1.00, 384.1, 11.0)">h</text><text xml:space="preserve" font-family="Courier" font-size="40.0" fill="#000000" transform="matrix(1.00, 0.00, -0.00, -1.00, 408.1, 11.0)">e</text><text xml:space="preserve" font-family="Courier" font-size="40.0" fill="#000000" transform="matrix(1.00, 0.00, -0.00, -1.00, 432.1, 11.0)">n</text><text xml:space="preserve" font-family="Courier" font-size="40.0" fill="#000000" transform="matrix(1.00, 0.00, -0.00, -1.00, 456.1, 11.0)">t</text><text xml:space="preserve" font-family="Courier" font-size="40.0" fill="#000000" transform="matrix(1.00, 0.00, -0.00, -1.00, 480.1, 11.0)">i</text><text xml:space="preserve" font-family="Courier" font-size="40.0" fill="#000000" transform="matrix(1.00, 0.00, -0.00, -1.00, 504.1, 11.0)">c</text><text xml:space="preserve" font-family="Courier" font-size="40.0" fill="#000000" transform="matrix(1.00, 0.00, -0.00, -1.00, 528.1, 11.0)">a</text><text xml:space="preserve" font-family="Courier" font-size="40.0" fill="#000000" transform="matrix(1.00, 0.00, -0.00, -1.00, 552.1, 11.0)">t</text><text xml:space="preserve" font-family="Courier" font-size="40.0" fill="#000000" transform="matrix(1.00, 0.00, -0.00, -1.00, 576.1, 11.0)">o</text><text xml:space="preserve" font-family="Courier" font-size="40.0" fill="#000000" transform="matrix(1.00, 0.00, -0.00, -1.00, 600.1, 11.0)">r</text><text xml:space="preserve" font-family="Courier" font-size="40.0" fill="#000000" transform="matrix(1.00, 0.00, -0.00, -1.00, 624.2, 11.0)">_</text><text xml:space="preserve" font-family="Courier" font-size="40.0" fill="#000000" transform="matrix(1.00, 0.00, -0.00, -1.00, 648.2, 11.0)">c</text><text xml:space="preserve" font-family="Courier" font-size="40.0" fill="#000000" transform="matrix(1.00, 0.00, -0.00, -1.00, 672.2, 11.0)">l</text><text xml:space="preserve" font-family="Courier" font-size="40.0" fill="#000000" transform="matrix(1.00, 0.00, -0.00, -1.00, 696.2, 11.0)">a</text><text xml:space="preserve" font-family="Courier" font-size="40.0" fill="#000000" transform="matrix(1.00, 0.00, -0.00, -1.00, 720.2, 11.0)">s</text><text xml:space="preserve" font-family="Courier" font-size="40.0" fill="#000000" transform="matrix(1.00, 0.00, -0.00, -1.00, 744.2, 11.0)">s</text><text xml:space="preserve" font-family="Courier" font-size="40.0" fill="#000000" transform="matrix(1.00, 0.00, -0.00, -1.00, 768.2, 11.0)"> </text><text xml:space="preserve" font-family="Courier" font-size="40.0" fill="#797979" transform="matrix(1.00, 0.00, -0.00, -1.00, 792.1, 11.0)">=</text><text xml:space="preserve" font-family="Courier" font-size="40.0" fill="#000000" transform="matrix(1.00, 0.00, -0.00, -1.00, 816.1, 11.0)"> </text><text xml:space="preserve" font-family="Courier" font-size="40.0" fill="#000000" transform="matrix(1.00, 0.00, -0.00, -1.00, 840.1, 11.0)">L</text><text xml:space="preserve" font-family="Courier" font-size="40.0" fill="#000000" transform="matrix(1.00, 0.00, -0.00, -1.00, 864.1, 11.0)">o</text><text xml:space="preserve" font-family="Courier" font-size="40.0" fill="#000000" transform="matrix(1.00, 0.00, -0.00, -1.00, 888.2, 11.0)">c</text><text xml:space="preserve" font-family="Courier" font-size="40.0" fill="#000000" transform="matrix(1.00, 0.00, -0.00, -1.00, 912.2, 11.0)">a</text><text xml:space="preserve" font-family="Courier" font-size="40.0" fill="#000000" transform="matrix(1.00, 0.00, -0.00, -1.00, 936.2, 11.0)">l</text><text xml:space="preserve" font-family="Courier" font-size="40.0" fill="#000000" transform="matrix(1.00, 0.00, -0.00, -1.00, 960.2, 11.0)">G</text><text xml:space="preserve" font-family="Courier" font-size="40.0" fill="#000000" transform="matrix(1.00, 0.00, -0.00, -1.00, 984.2, 11.0)">i</text><text xml:space="preserve" font-family="Courier" font-size="40.0" fill="#000000" transform="matrix(1.00, 0.00, -0.00, -1.00, 1008.2, 11.0)">t</text><text xml:space="preserve" font-family="Courier" font-size="40.0" fill="#000000" transform="matrix(1.00, 0.00, -0.00, -1.00, 1032.2, 11.0)">H</text><text xml:space="preserve" font-family="Courier" font-size="40.0" fill="#000000" transform="matrix(1.00, 0.00, -0.00, -1.00, 1056.2, 11.0)">u</text><text xml:space="preserve" font-family="Courier" font-size="40.0" fill="#000000" transform="matrix(1.00, 0.00, -0.00, -1.00, 1080.2, 11.0)">b</text><text xml:space="preserve" font-family="Courier" font-size="40.0" fill="#000000" transform="matrix(1.00, 0.00, -0.00, -1.00, 1104.2, 11.0)">O</text><text xml:space="preserve" font-family="Courier" font-size="40.0" fill="#000000" transform="matrix(1.00, 0.00, -0.00, -1.00, 1128.2, 11.0)">A</text><text xml:space="preserve" font-family="Courier" font-size="40.0" fill="#000000" transform="matrix(1.00, 0.00, -0.00, -1.00, 1152.2, 11.0)">u</text><text xml:space="preserve" font-family="Courier" font-size="40.0" fill="#000000" transform="matrix(1.00, 0.00, -0.00, -1.00, 1176.3, 11.0)">t</text><text xml:space="preserve" font-family="Courier" font-size="40.0" fill="#000000" transform="matrix(1.00, 0.00, -0.00, -1.00, 1200.3, 11.0)">h</text><text xml:space="preserve" font-family="Courier" font-size="40.0" fill="#000000" transform="matrix(1.00, 0.00, -0.00, -1.00, 1224.3, 11.0)">e</text><text xml:space="preserve" font-family="Courier" font-size="40.0" fill="#000000" transform="matrix(1.00, 0.00, -0.00, -1.00, 1248.3, 11.0)">n</text><text xml:space="preserve" font-family="Courier" font-size="40.0" fill="#000000" transform="matrix(1.00, 0.00, -0.00, -1.00, 1272.3, 11.0)">t</text><text xml:space="preserve" font-family="Courier" font-size="40.0" fill="#000000" transform="matrix(1.00, 0.00, -0.00, -1.00, 1296.3, 11.0)">i</text><text xml:space="preserve" font-family="Courier" font-size="40.0" fill="#000000" transform="matrix(1.00, 0.00, -0.00, -1.00, 1320.3, 11.0)">c</text><text xml:space="preserve" font-family="Courier" font-size="40.0" fill="#000000" transform="matrix(1.00, 0.00, -0.00, -1.00, 1344.3, 11.0)">a</text><text xml:space="preserve" font-family="Courier" font-size="40.0" fill="#000000" transform="matrix(1.00, 0.00, -0.00, -1.00, 1368.3, 11.0)">t</text><text xml:space="preserve" font-family="Courier" font-size="40.0" fill="#000000" transform="matrix(1.00, 0.00, -0.00, -1.00, 1392.3, 11.0)">o</text><text xml:space="preserve" font-family="Courier" font-size="40.0" fill="#000000" transform="matrix(1.00, 0.00, -0.00, -1.00, 1416.3, 11.0)">r</text></g></svg>