<?xml version="1.0" encoding="UTF-8" standalone="no"?><svg xmlns="http://www.w3.org/2000/svg" xmlns:xlink="http://www.w3.org/1999/xlink" clip-rule="evenodd" stroke-miterlimit="4.00" viewBox="0 0 1231 50"><desc>SVG generated by Keynote</desc><defs></defs><g transform="matrix(1.00, 0.00, -0.00, -1.00, 0.0, 50.0)"><text xml:space="preserve" font-family="SourceCodePro-Regular" font-size="50.0" fill="#000000" transform="matrix(1.00, 0.00, -0.00, -1.00, 2.0, 12.0)"> </text><text xml:space="preserve" font-family="SourceCodePro-Regular" font-size="50.0" fill="#000000" transform="matrix(1.00, 0.00, -0.00, -1.00, 32.0, 12.0)"> </text><text xml:space="preserve" font-family="SourceCodePro-Regular" font-size="50.0" fill="#000000" transform="matrix(1.00, 0.00, -0.00, -1.00, 62.0, 12.0)"> </text><text xml:space="preserve" font-family="SourceCodePro-Regular" font-size="50.0" fill="#000000" transform="matrix(1.00, 0.00, -0.00, -1.00, 92.0, 12.0)"> </text><text xml:space="preserve" font-family="SourceCodePro-Regular" font-size="50.0" fill="#000000" transform="matrix(1.00, 0.00, -0.00, -1.00, 122.0, 12.0)">p</text><text xml:space="preserve" font-family="SourceCodePro-Regular" font-size="50.0" fill="#000000" transform="matrix(1.00, 0.00, -0.00, -1.00, 152.0, 12.0)">y</text><text xml:space="preserve" font-family="SourceCodePro-Regular" font-size="50.0" fill="#000000" transform="matrix(1.00, 0.00, -0.00, -1.00, 182.0, 12.0)">t</text><text xml:space="preserve" font-family="SourceCodePro-Regular" font-size="50.0" fill="#000000" transform="matrix(1.00, 0.00, -0.00, -1.00, 212.0, 12.0)">h</text><text xml:space="preserve" font-family="SourceCodePro-Regular" font-size="50.0" fill="#000000" transform="matrix(1.00, 0.00, -0.00, -1.00, 242.0, 12.0)">o</text><text xml:space="preserve" font-family="SourceCodePro-Regular" font-size="50.0" fill="#000000" transform="matrix(1.00, 0.00, -0.00, -1.00, 272.0, 12.0)">n</text><text xml:space="preserve" font-family="SourceCodePro-Regular" font-size="50.0" fill="#000000" transform="matrix(1.00, 0.00, -0.00, -1.00, 302.0, 12.0)">3</text><text xml:space="preserve" font-family="SourceCodePro-Regular" font-size="50.0" fill="#000000" transform="matrix(1.00, 0.00, -0.00, -1.00, 332.0, 12.0)"> </text><text xml:space="preserve" font-family="SourceCodePro-Regular" font-size="50.0" fill="#000000" transform="matrix(1.00, 0.00, -0.00, -1.00, 362.0, 12.0)">-</text><text xml:space="preserve" font-family="SourceCodePro-Regular" font-size="50.0" fill="#000000" transform="matrix(1.00, 0.00, -0.00, -1.00, 392.0, 12.0)">m</text><text xml:space="preserve" font-family="SourceCodePro-Regular" font-size="50.0" fill="#000000" transform="matrix(1.00, 0.00, -0.00, -1.00, 422.0, 12.0)"> </text><text xml:space="preserve" font-family="SourceCodePro-Regular" font-size="50.0" fill="#000000" transform="matrix(1.00, 0.00, -0.00, -1.00, 452.0, 12.0)">p</text><text xml:space="preserve" font-family="SourceCodePro-Regular" font-size="50.0" fill="#000000" transform="matrix(1.00, 0.00, -0.00, -1.00, 482.0, 12.0)">i</text><text xml:space="preserve" font-family="SourceCodePro-Regular" font-size="50.0" fill="#000000" transform="matrix(1.00, 0.00, -0.00, -1.00, 512.0, 12.0)">p</text><text xml:space="preserve" font-family="SourceCodePro-Regular" font-size="50.0" fill="#000000" transform="matrix(1.00, 0.00, -0.00, -1.00, 542.0, 12.0)"> </text><text xml:space="preserve" font-family="SourceCodePro-Regular" font-size="50.0" fill="#000000" transform="matrix(1.00, 0.00, -0.00, -1.00, 572.0, 12.0)">i</text><text xml:space="preserve" font-family="SourceCodePro-Regular" font-size="50.0" fill="#000000" transform="matrix(1.00, 0.00, -0.00, -1.00, 602.0, 12.0)">n</text><text xml:space="preserve" font-family="SourceCodePro-Regular" font-size="50.0" fill="#000000" transform="matrix(1.00, 0.00, -0.00, -1.00, 632.0, 12.0)">s</text><text xml:space="preserve" font-family="SourceCodePro-Regular" font-size="50.0" fill="#000000" transform="matrix(1.00, 0.00, -0.00, -1.00, 662.0, 12.0)">t</text><text xml:space="preserve" font-family="SourceCodePro-Regular" font-size="50.0" fill="#000000" transform="matrix(1.00, 0.00, -0.00, -1.00, 692.0, 12.0)">a</text><text xml:space="preserve" font-family="SourceCodePro-Regular" font-size="50.0" fill="#000000" transform="matrix(1.00, 0.00, -0.00, -1.00, 722.0, 12.0)">l</text><text xml:space="preserve" font-family="SourceCodePro-Regular" font-size="50.0" fill="#000000" transform="matrix(1.00, 0.00, -0.00, -1.00, 752.0, 12.0)">l</text><text xml:space="preserve" font-family="SourceCodePro-Regular" font-size="50.0" fill="#000000" transform="matrix(1.00, 0.00, -0.00, -1.00, 782.0, 12.0)"> </text><text xml:space="preserve" font-family="SourceCodePro-Regular" font-size="50.0" fill="#000000" transform="matrix(1.00, 0.00, -0.00, -1.00, 812.0, 12.0)">o</text><text xml:space="preserve" font-family="SourceCodePro-Regular" font-size="50.0" fill="#000000" transform="matrix(1.00, 0.00, -0.00, -1.00, 842.0, 12.0)">a</text><text xml:space="preserve" font-family="SourceCodePro-Regular" font-size="50.0" fill="#000000" transform="matrix(1.00, 0.00, -0.00, -1.00, 872.0, 12.0)">u</text><text xml:space="preserve" font-family="SourceCodePro-Regular" font-size="50.0" fill="#000000" transform="matrix(1.00, 0.00, -0.00, -1.00, 902.0, 12.0)">t</text><text xml:space="preserve" font-family="SourceCodePro-Regular" font-size="50.0" fill="#000000" transform="matrix(1.00, 0.00, -0.00, -1.00, 932.0, 12.0)">h</text><text xml:space="preserve" font-family="SourceCodePro-Regular" font-size="50.0" fill="#000000" transform="matrix(1.00, 0.00, -0.00, -1.00, 962.0, 12.0)">e</text><text xml:space="preserve" font-family="SourceCodePro-Regular" font-size="50.0" fill="#000000" transform="matrix(1.00, 0.00, -0.00, -1.00, 992.0, 12.0)">n</text><text xml:space="preserve" font-family="SourceCodePro-Regular" font-size="50.0" fill="#000000" transform="matrix(1.00, 0.00, -0.00, -1.00, 1022.0, 12.0)">t</text><text xml:space="preserve" font-family="SourceCodePro-Regular" font-size="50.0" fill="#000000" transform="matrix(1.00, 0.00, -0.00, -1.00, 1052.0, 12.0)">i</text><text xml:space="preserve" font-family="SourceCodePro-Regular" font-size="50.0" fill="#000000" transform="matrix(1.00, 0.00, -0.00, -1.00, 1082.0, 12.0)">c</text><text xml:space="preserve" font-family="SourceCodePro-Regular" font-size="50.0" fill="#000000" transform="matrix(1.00, 0.00, -0.00, -1.00, 1112.0, 12.0)">a</text><text xml:space="preserve" font-family="SourceCodePro-Regular" font-size="50.0" fill="#000000" transform="matrix(1.00, 0.00, -0.00, -1.00, 1142.0, 12.0)">t</text><text xml:space="preserve" font-family="SourceCodePro-Regular" font-size="50.0" fill="#000000" transform="matrix(1.00, 0.00, -0.00, -1.00, 1172.0, 12.0)">o</text><text xml:space="preserve" font-family="SourceCodePro-Regular" font-size="50.0" fill="#000000" transform="matrix(1.00, 0.00, -0.00, -1.00, 1202.0, 12.0)">r</text></g></svg>