<?xml version="1.0" encoding="UTF-8" standalone="no"?><svg xmlns="http://www.w3.org/2000/svg" xmlns:xlink="http://www.w3.org/1999/xlink" clip-rule="evenodd" stroke-miterlimit="4.00" viewBox="0 0 1920 1080"><desc>SVG generated by Keynote</desc><defs></defs><g transform="matrix(1.00, 0.00, -0.00, -1.00, 0.0, 1080.0)"><path d="M 0.0 1080.0 L 1920.0 1080.0 L 1920.0 0.0 L 0.0 0.0 Z M 0.0 1080.0 " fill="#FEFFFF"></path><g><clipPath id="clip-967"><path d="M 191.0 965.0 L 284.0 965.0 L 284.0 857.0 L 191.0 857.0 Z M 190.9 965.1 "></path></clipPath><g clip-path="url(#clip-967)"><image xlink:href="../../501581DD-E1D1-4738-8AE3-F573C3B06ED2/assets/D6FB576FDB4D798F7363F3BF6AC733AF.png" width="108.00" height="108.00" transform="matrix(0.99, 0.00, -0.00, -1.00, 184.0, 965.0)"></image></g></g><text xml:space="preserve" font-family="MyriadPro-Regular" font-size="112.0" fill="#000000" transform="matrix(1.00, 0.00, -0.00, -1.00, 491.0, 884.0)">D</text><text xml:space="preserve" font-family="MyriadPro-Regular" font-size="112.0" fill="#000000" transform="matrix(1.00, 0.00, -0.00, -1.00, 566.0, 884.0)">o</text><text xml:space="preserve" font-family="MyriadPro-Regular" font-size="112.0" fill="#000000" transform="matrix(1.00, 0.00, -0.00, -1.00, 627.5, 884.0)">c</text><text xml:space="preserve" font-family="MyriadPro-Regular" font-size="112.0" fill="#000000" transform="matrix(1.00, 0.00, -0.00, -1.00, 677.7, 884.0)">k</text><text xml:space="preserve" font-family="MyriadPro-Regular" font-size="112.0" fill="#000000" transform="matrix(1.00, 0.00, -0.00, -1.00, 730.2, 884.0)">e</text><text xml:space="preserve" font-family="MyriadPro-Regular" font-size="112.0" fill="#000000" transform="matrix(1.00, 0.00, -0.00, -1.00, 786.3, 884.0)">r</text><text xml:space="preserve" font-family="MyriadPro-Regular" font-size="112.0" fill="#000000" transform="matrix(1.00, 0.00, -0.00, -1.00, 823.0, 884.0)"> </text><text xml:space="preserve" font-family="MyriadPro-Regular" font-size="112.0" fill="#000000" transform="matrix(1.00, 0.00, -0.00, -1.00, 846.7, 884.0)">D</text><text xml:space="preserve" font-family="MyriadPro-Regular" font-size="112.0" fill="#000000" transform="matrix(1.00, 0.00, -0.00, -1.00, 921.8, 884.0)">e</text><text xml:space="preserve" font-family="MyriadPro-Regular" font-size="112.0" fill="#000000" transform="matrix(1.00, 0.00, -0.00, -1.00, 977.9, 884.0)">p</text><text xml:space="preserve" font-family="MyriadPro-Regular" font-size="112.0" fill="#000000" transform="matrix(1.00, 0.00, -0.00, -1.00, 1041.6, 884.0)">l</text><text xml:space="preserve" font-family="MyriadPro-Regular" font-size="112.0" fill="#000000" transform="matrix(1.00, 0.00, -0.00, -1.00, 1068.0, 884.0)">o</text><text xml:space="preserve" font-family="MyriadPro-Regular" font-size="112.0" fill="#000000" transform="matrix(1.00, 0.00, -0.00, -1.00, 1128.7, 884.0)">y</text><text xml:space="preserve" font-family="MyriadPro-Regular" font-size="112.0" fill="#000000" transform="matrix(1.00, 0.00, -0.00, -1.00, 1181.5, 884.0)">m</text><text xml:space="preserve" font-family="MyriadPro-Regular" font-size="112.0" fill="#000000" transform="matrix(1.00, 0.00, -0.00, -1.00, 1274.9, 884.0)">e</text><text xml:space="preserve" font-family="MyriadPro-Regular" font-size="112.0" fill="#000000" transform="matrix(1.00, 0.00, -0.00, -1.00, 1331.0, 884.0)">n</text><text xml:space="preserve" font-family="MyriadPro-Regular" font-size="112.0" fill="#000000" transform="matrix(1.00, 0.00, -0.00, -1.00, 1392.7, 884.0)">t</text><text xml:space="preserve" font-family="SourceCodePro-Regular" font-size="37.5" fill="#000000" transform="matrix(1.00, 0.00, -0.00, -1.00, 513.3, 603.7)">•</text><text xml:space="preserve" font-family="SourceCodePro-Regular" font-size="50.0" fill="#000000" transform="matrix(1.00, 0.00, -0.00, -1.00, 562.0, 599.0)">m</text><text xml:space="preserve" font-family="SourceCodePro-Regular" font-size="50.0" fill="#000000" transform="matrix(1.00, 0.00, -0.00, -1.00, 592.0, 599.0)">k</text><text xml:space="preserve" font-family="SourceCodePro-Regular" font-size="50.0" fill="#000000" transform="matrix(1.00, 0.00, -0.00, -1.00, 622.0, 599.0)">d</text><text xml:space="preserve" font-family="SourceCodePro-Regular" font-size="50.0" fill="#000000" transform="matrix(1.00, 0.00, -0.00, -1.00, 652.0, 599.0)">i</text><text xml:space="preserve" font-family="SourceCodePro-Regular" font-size="50.0" fill="#000000" transform="matrix(1.00, 0.00, -0.00, -1.00, 682.0, 599.0)">r</text><text xml:space="preserve" font-family="SourceCodePro-Regular" font-size="50.0" fill="#000000" transform="matrix(1.00, 0.00, -0.00, -1.00, 712.0, 599.0)"> </text><text xml:space="preserve" font-family="SourceCodePro-Regular" font-size="50.0" fill="#000000" transform="matrix(1.00, 0.00, -0.00, -1.00, 742.0, 599.0)">s</text><text xml:space="preserve" font-family="SourceCodePro-Regular" font-size="50.0" fill="#000000" transform="matrix(1.00, 0.00, -0.00, -1.00, 772.0, 599.0)">e</text><text xml:space="preserve" font-family="SourceCodePro-Regular" font-size="50.0" fill="#000000" transform="matrix(1.00, 0.00, -0.00, -1.00, 802.0, 599.0)">c</text><text xml:space="preserve" font-family="SourceCodePro-Regular" font-size="50.0" fill="#000000" transform="matrix(1.00, 0.00, -0.00, -1.00, 832.0, 599.0)">r</text><text xml:space="preserve" font-family="SourceCodePro-Regular" font-size="50.0" fill="#000000" transform="matrix(1.00, 0.00, -0.00, -1.00, 862.0, 599.0)">e</text><text xml:space="preserve" font-family="SourceCodePro-Regular" font-size="50.0" fill="#000000" transform="matrix(1.00, 0.00, -0.00, -1.00, 892.0, 599.0)">t</text><text xml:space="preserve" font-family="SourceCodePro-Regular" font-size="50.0" fill="#000000" transform="matrix(1.00, 0.00, -0.00, -1.00, 922.0, 599.0)">s</text><text xml:space="preserve" font-family="Helvetica-Light" font-size="37.5" fill="#000000" transform="matrix(1.00, 0.00, -0.00, -1.00, 513.3, 482.0)">•</text><text xml:space="preserve" font-family="Helvetica-Light" font-size="50.0" fill="#000000" transform="matrix(1.00, 0.00, -0.00, -1.00, 562.0, 478.0)">C</text><text xml:space="preserve" font-family="Helvetica-Light" font-size="50.0" fill="#000000" transform="matrix(1.00, 0.00, -0.00, -1.00, 598.1, 478.0)">o</text><text xml:space="preserve" font-family="Helvetica-Light" font-size="50.0" fill="#000000" transform="matrix(1.00, 0.00, -0.00, -1.00, 625.9, 478.0)">p</text><text xml:space="preserve" font-family="Helvetica-Light" font-size="50.0" fill="#000000" transform="matrix(1.00, 0.00, -0.00, -1.00, 656.5, 478.0)">y</text><text xml:space="preserve" font-family="Helvetica-Light" font-size="50.0" fill="#000000" transform="matrix(1.00, 0.00, -0.00, -1.00, 681.5, 478.0)"> </text><text xml:space="preserve" font-family="Helvetica-Light" font-size="50.0" fill="#000000" transform="matrix(1.00, 0.00, -0.00, -1.00, 695.4, 478.0)">S</text><text xml:space="preserve" font-family="Helvetica-Light" font-size="50.0" fill="#000000" transform="matrix(1.00, 0.00, -0.00, -1.00, 725.9, 478.0)">S</text><text xml:space="preserve" font-family="Helvetica-Light" font-size="50.0" fill="#000000" transform="matrix(1.00, 0.00, -0.00, -1.00, 756.5, 478.0)">L</text><text xml:space="preserve" font-family="Helvetica-Light" font-size="50.0" fill="#000000" transform="matrix(1.00, 0.00, -0.00, -1.00, 784.2, 478.0)"> </text><text xml:space="preserve" font-family="Helvetica-Light" font-size="50.0" fill="#000000" transform="matrix(1.00, 0.00, -0.00, -1.00, 798.2, 478.0)">k</text><text xml:space="preserve" font-family="Helvetica-Light" font-size="50.0" fill="#000000" transform="matrix(1.00, 0.00, -0.00, -1.00, 823.2, 478.0)">e</text><text xml:space="preserve" font-family="Helvetica-Light" font-size="50.0" fill="#000000" transform="matrix(1.00, 0.00, -0.00, -1.00, 851.0, 478.0)">y</text><text xml:space="preserve" font-family="Helvetica-Light" font-size="50.0" fill="#000000" transform="matrix(1.00, 0.00, -0.00, -1.00, 871.4, 478.0)">,</text><text xml:space="preserve" font-family="Helvetica-Light" font-size="50.0" fill="#000000" transform="matrix(1.00, 0.00, -0.00, -1.00, 885.2, 478.0)"> </text><text xml:space="preserve" font-family="Helvetica-Light" font-size="50.0" fill="#000000" transform="matrix(1.00, 0.00, -0.00, -1.00, 899.1, 478.0)">c</text><text xml:space="preserve" font-family="Helvetica-Light" font-size="50.0" fill="#000000" transform="matrix(1.00, 0.00, -0.00, -1.00, 927.0, 478.0)">e</text><text xml:space="preserve" font-family="Helvetica-Light" font-size="50.0" fill="#000000" transform="matrix(1.00, 0.00, -0.00, -1.00, 954.8, 478.0)">r</text><text xml:space="preserve" font-family="Helvetica-Light" font-size="50.0" fill="#000000" transform="matrix(1.00, 0.00, -0.00, -1.00, 972.3, 478.0)">t</text><text xml:space="preserve" font-family="Helvetica-Light" font-size="50.0" fill="#000000" transform="matrix(1.00, 0.00, -0.00, -1.00, 986.2, 478.0)"> </text><text xml:space="preserve" font-family="Helvetica-Light" font-size="50.0" fill="#000000" transform="matrix(1.00, 0.00, -0.00, -1.00, 1000.1, 478.0)">t</text><text xml:space="preserve" font-family="Helvetica-Light" font-size="50.0" fill="#000000" transform="matrix(1.00, 0.00, -0.00, -1.00, 1014.0, 478.0)">o</text><text xml:space="preserve" font-family="Helvetica-Light" font-size="50.0" fill="#000000" transform="matrix(1.00, 0.00, -0.00, -1.00, 1041.8, 478.0)">:</text><text xml:space="preserve" font-family="Helvetica-Light" font-size="50.0" fill="#000000" transform="matrix(1.00, 0.00, -0.00, -1.00, 1055.7, 478.0)"> </text><text xml:space="preserve" font-family="Helvetica-Light" font-size="37.5" fill="#000000" transform="matrix(1.00, 0.00, -0.00, -1.00, 548.3, 363.0)">•</text><text xml:space="preserve" font-family="Helvetica-Light" font-size="50.0" fill="#000000" transform="matrix(1.00, 0.00, -0.00, -1.00, 597.0, 359.0)">s</text><text xml:space="preserve" font-family="Helvetica-Light" font-size="50.0" fill="#000000" transform="matrix(1.00, 0.00, -0.00, -1.00, 622.0, 359.0)">e</text><text xml:space="preserve" font-family="Helvetica-Light" font-size="50.0" fill="#000000" transform="matrix(1.00, 0.00, -0.00, -1.00, 649.8, 359.0)">c</text><text xml:space="preserve" font-family="Helvetica-Light" font-size="50.0" fill="#000000" transform="matrix(1.00, 0.00, -0.00, -1.00, 677.6, 359.0)">r</text><text xml:space="preserve" font-family="Helvetica-Light" font-size="50.0" fill="#000000" transform="matrix(1.00, 0.00, -0.00, -1.00, 693.4, 359.0)">e</text><text xml:space="preserve" font-family="Helvetica-Light" font-size="50.0" fill="#000000" transform="matrix(1.00, 0.00, -0.00, -1.00, 721.1, 359.0)">t</text><text xml:space="preserve" font-family="Helvetica-Light" font-size="50.0" fill="#000000" transform="matrix(1.00, 0.00, -0.00, -1.00, 735.0, 359.0)">s</text><text xml:space="preserve" font-family="Helvetica-Light" font-size="50.0" fill="#000000" transform="matrix(1.00, 0.00, -0.00, -1.00, 760.0, 359.0)">/</text><text xml:space="preserve" font-family="Helvetica-Light" font-size="50.0" fill="#000000" transform="matrix(1.00, 0.00, -0.00, -1.00, 774.0, 359.0)">j</text><text xml:space="preserve" font-family="Helvetica-Light" font-size="50.0" fill="#000000" transform="matrix(1.00, 0.00, -0.00, -1.00, 785.0, 359.0)">u</text><text xml:space="preserve" font-family="Helvetica-Light" font-size="50.0" fill="#000000" transform="matrix(1.00, 0.00, -0.00, -1.00, 812.9, 359.0)">p</text><text xml:space="preserve" font-family="Helvetica-Light" font-size="50.0" fill="#000000" transform="matrix(1.00, 0.00, -0.00, -1.00, 843.4, 359.0)">y</text><text xml:space="preserve" font-family="Helvetica-Light" font-size="50.0" fill="#000000" transform="matrix(1.00, 0.00, -0.00, -1.00, 868.4, 359.0)">t</text><text xml:space="preserve" font-family="Helvetica-Light" font-size="50.0" fill="#000000" transform="matrix(1.00, 0.00, -0.00, -1.00, 882.3, 359.0)">e</text><text xml:space="preserve" font-family="Helvetica-Light" font-size="50.0" fill="#000000" transform="matrix(1.00, 0.00, -0.00, -1.00, 910.1, 359.0)">r</text><text xml:space="preserve" font-family="Helvetica-Light" font-size="50.0" fill="#000000" transform="matrix(1.00, 0.00, -0.00, -1.00, 926.8, 359.0)">h</text><text xml:space="preserve" font-family="Helvetica-Light" font-size="50.0" fill="#000000" transform="matrix(1.00, 0.00, -0.00, -1.00, 954.5, 359.0)">u</text><text xml:space="preserve" font-family="Helvetica-Light" font-size="50.0" fill="#000000" transform="matrix(1.00, 0.00, -0.00, -1.00, 982.3, 359.0)">b</text><text xml:space="preserve" font-family="Helvetica-Light" font-size="50.0" fill="#000000" transform="matrix(1.00, 0.00, -0.00, -1.00, 1012.9, 359.0)">.</text><text xml:space="preserve" font-family="Helvetica-Light" font-size="50.0" fill="#000000" transform="matrix(1.00, 0.00, -0.00, -1.00, 1026.8, 359.0)">c</text><text xml:space="preserve" font-family="Helvetica-Light" font-size="50.0" fill="#000000" transform="matrix(1.00, 0.00, -0.00, -1.00, 1054.6, 359.0)">e</text><text xml:space="preserve" font-family="Helvetica-Light" font-size="50.0" fill="#000000" transform="matrix(1.00, 0.00, -0.00, -1.00, 1082.4, 359.0)">r</text><text xml:space="preserve" font-family="Helvetica-Light" font-size="50.0" fill="#000000" transform="matrix(1.00, 0.00, -0.00, -1.00, 1099.0, 359.0)"> </text><text xml:space="preserve" font-family="Helvetica-Light" font-size="50.0" fill="#000000" transform="matrix(1.00, 0.00, -0.00, -1.00, 1112.9, 359.0)">(</text><text xml:space="preserve" font-family="Helvetica-Light" font-size="50.0" fill="#000000" transform="matrix(1.00, 0.00, -0.00, -1.00, 1129.6, 359.0)">c</text><text xml:space="preserve" font-family="Helvetica-Light" font-size="50.0" fill="#000000" transform="matrix(1.00, 0.00, -0.00, -1.00, 1157.4, 359.0)">e</text><text xml:space="preserve" font-family="Helvetica-Light" font-size="50.0" fill="#000000" transform="matrix(1.00, 0.00, -0.00, -1.00, 1185.2, 359.0)">r</text><text xml:space="preserve" font-family="Helvetica-Light" font-size="50.0" fill="#000000" transform="matrix(1.00, 0.00, -0.00, -1.00, 1202.7, 359.0)">t</text><text xml:space="preserve" font-family="Helvetica-Light" font-size="50.0" fill="#000000" transform="matrix(1.00, 0.00, -0.00, -1.00, 1216.6, 359.0)">)</text><text xml:space="preserve" font-family="Helvetica-Light" font-size="50.0" fill="#000000" transform="matrix(1.00, 0.00, -0.00, -1.00, 1233.3, 359.0)"> </text><text xml:space="preserve" font-family="Helvetica-Light" font-size="37.5" fill="#000000" transform="matrix(1.00, 0.00, -0.00, -1.00, 548.3, 243.9)">•</text><text xml:space="preserve" font-family="Helvetica-Light" font-size="50.0" fill="#000000" transform="matrix(1.00, 0.00, -0.00, -1.00, 597.0, 240.0)">s</text><text xml:space="preserve" font-family="Helvetica-Light" font-size="50.0" fill="#000000" transform="matrix(1.00, 0.00, -0.00, -1.00, 622.0, 240.0)">e</text><text xml:space="preserve" font-family="Helvetica-Light" font-size="50.0" fill="#000000" transform="matrix(1.00, 0.00, -0.00, -1.00, 649.8, 240.0)">c</text><text xml:space="preserve" font-family="Helvetica-Light" font-size="50.0" fill="#000000" transform="matrix(1.00, 0.00, -0.00, -1.00, 677.6, 240.0)">r</text><text xml:space="preserve" font-family="Helvetica-Light" font-size="50.0" fill="#000000" transform="matrix(1.00, 0.00, -0.00, -1.00, 693.4, 240.0)">e</text><text xml:space="preserve" font-family="Helvetica-Light" font-size="50.0" fill="#000000" transform="matrix(1.00, 0.00, -0.00, -1.00, 721.1, 240.0)">t</text><text xml:space="preserve" font-family="Helvetica-Light" font-size="50.0" fill="#000000" transform="matrix(1.00, 0.00, -0.00, -1.00, 735.0, 240.0)">s</text><text xml:space="preserve" font-family="Helvetica-Light" font-size="50.0" fill="#000000" transform="matrix(1.00, 0.00, -0.00, -1.00, 760.0, 240.0)">/</text><text xml:space="preserve" font-family="Helvetica-Light" font-size="50.0" fill="#000000" transform="matrix(1.00, 0.00, -0.00, -1.00, 774.0, 240.0)">j</text><text xml:space="preserve" font-family="Helvetica-Light" font-size="50.0" fill="#000000" transform="matrix(1.00, 0.00, -0.00, -1.00, 785.0, 240.0)">u</text><text xml:space="preserve" font-family="Helvetica-Light" font-size="50.0" fill="#000000" transform="matrix(1.00, 0.00, -0.00, -1.00, 812.9, 240.0)">p</text><text xml:space="preserve" font-family="Helvetica-Light" font-size="50.0" fill="#000000" transform="matrix(1.00, 0.00, -0.00, -1.00, 843.4, 240.0)">y</text><text xml:space="preserve" font-family="Helvetica-Light" font-size="50.0" fill="#000000" transform="matrix(1.00, 0.00, -0.00, -1.00, 868.4, 240.0)">t</text><text xml:space="preserve" font-family="Helvetica-Light" font-size="50.0" fill="#000000" transform="matrix(1.00, 0.00, -0.00, -1.00, 882.3, 240.0)">e</text><text xml:space="preserve" font-family="Helvetica-Light" font-size="50.0" fill="#000000" transform="matrix(1.00, 0.00, -0.00, -1.00, 910.1, 240.0)">r</text><text xml:space="preserve" font-family="Helvetica-Light" font-size="50.0" fill="#000000" transform="matrix(1.00, 0.00, -0.00, -1.00, 926.8, 240.0)">h</text><text xml:space="preserve" font-family="Helvetica-Light" font-size="50.0" fill="#000000" transform="matrix(1.00, 0.00, -0.00, -1.00, 954.5, 240.0)">u</text><text xml:space="preserve" font-family="Helvetica-Light" font-size="50.0" fill="#000000" transform="matrix(1.00, 0.00, -0.00, -1.00, 982.3, 240.0)">b</text><text xml:space="preserve" font-family="Helvetica-Light" font-size="50.0" fill="#000000" transform="matrix(1.00, 0.00, -0.00, -1.00, 1012.9, 240.0)">.</text><text xml:space="preserve" font-family="Helvetica-Light" font-size="50.0" fill="#000000" transform="matrix(1.00, 0.00, -0.00, -1.00, 1026.8, 240.0)">k</text><text xml:space="preserve" font-family="Helvetica-Light" font-size="50.0" fill="#000000" transform="matrix(1.00, 0.00, -0.00, -1.00, 1051.8, 240.0)">e</text><text xml:space="preserve" font-family="Helvetica-Light" font-size="50.0" fill="#000000" transform="matrix(1.00, 0.00, -0.00, -1.00, 1079.6, 240.0)">y</text><text xml:space="preserve" font-family="Helvetica-Light" font-size="50.0" fill="#000000" transform="matrix(1.00, 0.00, -0.00, -1.00, 1104.6, 240.0)"> </text><text xml:space="preserve" font-family="Helvetica-Light" font-size="50.0" fill="#000000" transform="matrix(1.00, 0.00, -0.00, -1.00, 1118.5, 240.0)">(</text><text xml:space="preserve" font-family="Helvetica-Light" font-size="50.0" fill="#000000" transform="matrix(1.00, 0.00, -0.00, -1.00, 1135.2, 240.0)">k</text><text xml:space="preserve" font-family="Helvetica-Light" font-size="50.0" fill="#000000" transform="matrix(1.00, 0.00, -0.00, -1.00, 1160.2, 240.0)">e</text><text xml:space="preserve" font-family="Helvetica-Light" font-size="50.0" fill="#000000" transform="matrix(1.00, 0.00, -0.00, -1.00, 1187.9, 240.0)">y</text><text xml:space="preserve" font-family="Helvetica-Light" font-size="50.0" fill="#000000" transform="matrix(1.00, 0.00, -0.00, -1.00, 1212.9, 240.0)">)</text></g></svg>