<?xml version="1.0" encoding="UTF-8" standalone="no"?><svg xmlns="http://www.w3.org/2000/svg" xmlns:xlink="http://www.w3.org/1999/xlink" clip-rule="evenodd" stroke-miterlimit="4.00" viewBox="0 0 437 48"><desc>SVG generated by Keynote</desc><defs></defs><g transform="matrix(1.00, 0.00, -0.00, -1.00, 0.0, 48.0)"><text xml:space="preserve" font-family="SourceCodePro-Regular" font-size="37.5" fill="#000000" transform="matrix(1.00, 0.00, -0.00, -1.00, 0.3, 10.7)">•</text><text xml:space="preserve" font-family="SourceCodePro-Regular" font-size="50.0" fill="#000000" transform="matrix(1.00, 0.00, -0.00, -1.00, 49.0, 6.0)">m</text><text xml:space="preserve" font-family="SourceCodePro-Regular" font-size="50.0" fill="#000000" transform="matrix(1.00, 0.00, -0.00, -1.00, 79.0, 6.0)">k</text><text xml:space="preserve" font-family="SourceCodePro-Regular" font-size="50.0" fill="#000000" transform="matrix(1.00, 0.00, -0.00, -1.00, 109.0, 6.0)">d</text><text xml:space="preserve" font-family="SourceCodePro-Regular" font-size="50.0" fill="#000000" transform="matrix(1.00, 0.00, -0.00, -1.00, 139.0, 6.0)">i</text><text xml:space="preserve" font-family="SourceCodePro-Regular" font-size="50.0" fill="#000000" transform="matrix(1.00, 0.00, -0.00, -1.00, 169.0, 6.0)">r</text><text xml:space="preserve" font-family="SourceCodePro-Regular" font-size="50.0" fill="#000000" transform="matrix(1.00, 0.00, -0.00, -1.00, 199.0, 6.0)"> </text><text xml:space="preserve" font-family="SourceCodePro-Regular" font-size="50.0" fill="#000000" transform="matrix(1.00, 0.00, -0.00, -1.00, 229.0, 6.0)">s</text><text xml:space="preserve" font-family="SourceCodePro-Regular" font-size="50.0" fill="#000000" transform="matrix(1.00, 0.00, -0.00, -1.00, 259.0, 6.0)">e</text><text xml:space="preserve" font-family="SourceCodePro-Regular" font-size="50.0" fill="#000000" transform="matrix(1.00, 0.00, -0.00, -1.00, 289.0, 6.0)">c</text><text xml:space="preserve" font-family="SourceCodePro-Regular" font-size="50.0" fill="#000000" transform="matrix(1.00, 0.00, -0.00, -1.00, 319.0, 6.0)">r</text><text xml:space="preserve" font-family="SourceCodePro-Regular" font-size="50.0" fill="#000000" transform="matrix(1.00, 0.00, -0.00, -1.00, 349.0, 6.0)">e</text><text xml:space="preserve" font-family="SourceCodePro-Regular" font-size="50.0" fill="#000000" transform="matrix(1.00, 0.00, -0.00, -1.00, 379.0, 6.0)">t</text><text xml:space="preserve" font-family="SourceCodePro-Regular" font-size="50.0" fill="#000000" transform="matrix(1.00, 0.00, -0.00, -1.00, 409.0, 6.0)">s</text></g></svg>