<?xml version="1.0" encoding="UTF-8" standalone="no"?><svg xmlns="http://www.w3.org/2000/svg" xmlns:xlink="http://www.w3.org/1999/xlink" clip-rule="evenodd" stroke-miterlimit="4.00" viewBox="0 0 467 85"><desc>SVG generated by Keynote</desc><defs></defs><g transform="matrix(1.00, 0.00, -0.00, -1.00, 0.0, 85.0)"><text xml:space="preserve" font-family="MyriadPro-Regular" font-size="112.0" fill="#000000" transform="matrix(1.00, 0.00, -0.00, -1.00, -1.0, 4.0)">A</text><text xml:space="preserve" font-family="MyriadPro-Regular" font-size="112.0" fill="#000000" transform="matrix(1.00, 0.00, -0.00, -1.00, 66.9, 4.0)">s</text><text xml:space="preserve" font-family="MyriadPro-Regular" font-size="112.0" fill="#000000" transform="matrix(1.00, 0.00, -0.00, -1.00, 111.2, 4.0)">i</text><text xml:space="preserve" font-family="MyriadPro-Regular" font-size="112.0" fill="#000000" transform="matrix(1.00, 0.00, -0.00, -1.00, 137.4, 4.0)">d</text><text xml:space="preserve" font-family="MyriadPro-Regular" font-size="112.0" fill="#000000" transform="matrix(1.00, 0.00, -0.00, -1.00, 200.6, 4.0)">e</text><text xml:space="preserve" font-family="MyriadPro-Regular" font-size="112.0" fill="#000000" transform="matrix(1.00, 0.00, -0.00, -1.00, 256.7, 4.0)">:</text><text xml:space="preserve" font-family="MyriadPro-Regular" font-size="112.0" fill="#000000" transform="matrix(1.00, 0.00, -0.00, -1.00, 279.9, 4.0)"> </text><text xml:space="preserve" font-family="MyriadPro-Regular" font-size="112.0" fill="#000000" transform="matrix(1.00, 0.00, -0.00, -1.00, 303.6, 4.0)">S</text><text xml:space="preserve" font-family="MyriadPro-Regular" font-size="112.0" fill="#000000" transform="matrix(1.00, 0.00, -0.00, -1.00, 358.9, 4.0)">S</text><text xml:space="preserve" font-family="MyriadPro-Regular" font-size="112.0" fill="#000000" transform="matrix(1.00, 0.00, -0.00, -1.00, 414.1, 4.0)">L</text></g></svg>