<?xml version="1.0" encoding="UTF-8" standalone="no"?><svg xmlns="http://www.w3.org/2000/svg" xmlns:xlink="http://www.w3.org/1999/xlink" clip-rule="evenodd" stroke-miterlimit="4.00" viewBox="0 0 1920 1080"><desc>SVG generated by Keynote</desc><defs></defs><g transform="matrix(1.00, 0.00, -0.00, -1.00, 0.0, 1080.0)"><path d="M 0.0 1080.0 L 1920.0 1080.0 L 1920.0 0.0 L 0.0 0.0 Z M 0.0 1080.0 " fill="#FEFFFF"></path><g><clipPath id="clip-891"><path d="M 191.0 965.0 L 284.0 965.0 L 284.0 857.0 L 191.0 857.0 Z M 190.9 965.1 "></path></clipPath><g clip-path="url(#clip-891)"><image xlink:href="../../501581DD-E1D1-4738-8AE3-F573C3B06ED2/assets/D6FB576FDB4D798F7363F3BF6AC733AF.png" width="108.00" height="108.00" transform="matrix(0.99, 0.00, -0.00, -1.00, 184.0, 965.0)"></image></g></g><text xml:space="preserve" font-family="Avenir-Book" font-size="50.0" fill="#000000" transform="matrix(1.00, 0.00, -0.00, -1.00, 446.0, 553.0)">C</text><text xml:space="preserve" font-family="Avenir-Book" font-size="50.0" fill="#000000" transform="matrix(1.00, 0.00, -0.00, -1.00, 481.2, 553.0)">o</text><text xml:space="preserve" font-family="Avenir-Book" font-size="50.0" fill="#000000" transform="matrix(1.00, 0.00, -0.00, -1.00, 510.9, 553.0)">m</text><text xml:space="preserve" font-family="Avenir-Book" font-size="50.0" fill="#000000" transform="matrix(1.00, 0.00, -0.00, -1.00, 553.5, 553.0)">m</text><text xml:space="preserve" font-family="Avenir-Book" font-size="50.0" fill="#000000" transform="matrix(1.00, 0.00, -0.00, -1.00, 596.0, 553.0)">u</text><text xml:space="preserve" font-family="Avenir-Book" font-size="50.0" fill="#000000" transform="matrix(1.00, 0.00, -0.00, -1.00, 623.9, 553.0)">n</text><text xml:space="preserve" font-family="Avenir-Book" font-size="50.0" fill="#000000" transform="matrix(1.00, 0.00, -0.00, -1.00, 651.7, 553.0)">i</text><text xml:space="preserve" font-family="Avenir-Book" font-size="50.0" fill="#000000" transform="matrix(1.00, 0.00, -0.00, -1.00, 663.7, 553.0)">t</text><text xml:space="preserve" font-family="Avenir-Book" font-size="50.0" fill="#000000" transform="matrix(1.00, 0.00, -0.00, -1.00, 680.2, 553.0)">y</text><text xml:space="preserve" font-family="Avenir-Book" font-size="50.0" fill="#000000" transform="matrix(1.00, 0.00, -0.00, -1.00, 704.4, 553.0)">-</text><text xml:space="preserve" font-family="Avenir-Book" font-size="50.0" fill="#000000" transform="matrix(1.00, 0.00, -0.00, -1.00, 721.0, 553.0)">m</text><text xml:space="preserve" font-family="Avenir-Book" font-size="50.0" fill="#000000" transform="matrix(1.00, 0.00, -0.00, -1.00, 763.6, 553.0)">a</text><text xml:space="preserve" font-family="Avenir-Book" font-size="50.0" fill="#000000" transform="matrix(1.00, 0.00, -0.00, -1.00, 789.5, 553.0)">n</text><text xml:space="preserve" font-family="Avenir-Book" font-size="50.0" fill="#000000" transform="matrix(1.00, 0.00, -0.00, -1.00, 817.4, 553.0)">a</text><text xml:space="preserve" font-family="Avenir-Book" font-size="50.0" fill="#000000" transform="matrix(1.00, 0.00, -0.00, -1.00, 843.3, 553.0)">g</text><text xml:space="preserve" font-family="Avenir-Book" font-size="50.0" fill="#000000" transform="matrix(1.00, 0.00, -0.00, -1.00, 873.9, 553.0)">e</text><text xml:space="preserve" font-family="Avenir-Book" font-size="50.0" fill="#000000" transform="matrix(1.00, 0.00, -0.00, -1.00, 901.7, 553.0)">d</text><text xml:space="preserve" font-family="Avenir-Book" font-size="50.0" fill="#000000" transform="matrix(1.00, 0.00, -0.00, -1.00, 932.2, 553.0)"> </text><text xml:space="preserve" font-family="Avenir-Book" font-size="50.0" fill="#000000" transform="matrix(1.00, 0.00, -0.00, -1.00, 946.1, 553.0)">c</text><text xml:space="preserve" font-family="Avenir-Book" font-size="50.0" fill="#000000" transform="matrix(1.00, 0.00, -0.00, -1.00, 970.2, 553.0)">o</text><text xml:space="preserve" font-family="Avenir-Book" font-size="50.0" fill="#000000" transform="matrix(1.00, 0.00, -0.00, -1.00, 999.9, 553.0)">n</text><text xml:space="preserve" font-family="Avenir-Book" font-size="50.0" fill="#000000" transform="matrix(1.00, 0.00, -0.00, -1.00, 1027.7, 553.0)">d</text><text xml:space="preserve" font-family="Avenir-Book" font-size="50.0" fill="#000000" transform="matrix(1.00, 0.00, -0.00, -1.00, 1058.2, 553.0)">a</text><text xml:space="preserve" font-family="Avenir-Book" font-size="50.0" fill="#000000" transform="matrix(1.00, 0.00, -0.00, -1.00, 1084.2, 553.0)"> </text><text xml:space="preserve" font-family="Avenir-Book" font-size="50.0" fill="#000000" transform="matrix(1.00, 0.00, -0.00, -1.00, 1098.0, 553.0)">p</text><text xml:space="preserve" font-family="Avenir-Book" font-size="50.0" fill="#000000" transform="matrix(1.00, 0.00, -0.00, -1.00, 1128.6, 553.0)">a</text><text xml:space="preserve" font-family="Avenir-Book" font-size="50.0" fill="#000000" transform="matrix(1.00, 0.00, -0.00, -1.00, 1154.5, 553.0)">c</text><text xml:space="preserve" font-family="Avenir-Book" font-size="50.0" fill="#000000" transform="matrix(1.00, 0.00, -0.00, -1.00, 1178.7, 553.0)">k</text><text xml:space="preserve" font-family="Avenir-Book" font-size="50.0" fill="#000000" transform="matrix(1.00, 0.00, -0.00, -1.00, 1202.8, 553.0)">a</text><text xml:space="preserve" font-family="Avenir-Book" font-size="50.0" fill="#000000" transform="matrix(1.00, 0.00, -0.00, -1.00, 1228.7, 553.0)">g</text><text xml:space="preserve" font-family="Avenir-Book" font-size="50.0" fill="#000000" transform="matrix(1.00, 0.00, -0.00, -1.00, 1259.2, 553.0)">e</text><text xml:space="preserve" font-family="Avenir-Book" font-size="50.0" fill="#000000" transform="matrix(1.00, 0.00, -0.00, -1.00, 1287.0, 553.0)">s</text><text xml:space="preserve" font-family="Avenir-Book" font-size="50.0" fill="#000000" transform="matrix(1.00, 0.00, -0.00, -1.00, 1308.3, 553.0)">.</text><text xml:space="preserve" font-family="Avenir-Book" font-size="50.0" fill="#000000" transform="matrix(1.00, 0.00, -0.00, -1.00, 1322.2, 553.0)"> </text><text xml:space="preserve" font-family="Avenir-Book" font-size="50.0" fill="#000000" transform="matrix(1.00, 0.00, -0.00, -1.00, 446.0, 417.0)">h</text><text xml:space="preserve" font-family="Avenir-Book" font-size="50.0" fill="#000000" transform="matrix(1.00, 0.00, -0.00, -1.00, 473.8, 417.0)">t</text><text xml:space="preserve" font-family="Avenir-Book" font-size="50.0" fill="#000000" transform="matrix(1.00, 0.00, -0.00, -1.00, 490.4, 417.0)">t</text><text xml:space="preserve" font-family="Avenir-Book" font-size="50.0" fill="#000000" transform="matrix(1.00, 0.00, -0.00, -1.00, 507.0, 417.0)">p</text><text xml:space="preserve" font-family="Avenir-Book" font-size="50.0" fill="#000000" transform="matrix(1.00, 0.00, -0.00, -1.00, 537.5, 417.0)">s</text><text xml:space="preserve" font-family="Avenir-Book" font-size="50.0" fill="#000000" transform="matrix(1.00, 0.00, -0.00, -1.00, 558.9, 417.0)">:</text><text xml:space="preserve" font-family="Avenir-Book" font-size="50.0" fill="#000000" transform="matrix(1.00, 0.00, -0.00, -1.00, 572.8, 417.0)">/</text><text xml:space="preserve" font-family="Avenir-Book" font-size="50.0" fill="#000000" transform="matrix(1.00, 0.00, -0.00, -1.00, 591.2, 417.0)">/</text><text xml:space="preserve" font-family="Avenir-Book" font-size="50.0" fill="#000000" transform="matrix(1.00, 0.00, -0.00, -1.00, 609.8, 417.0)">c</text><text xml:space="preserve" font-family="Avenir-Book" font-size="50.0" fill="#000000" transform="matrix(1.00, 0.00, -0.00, -1.00, 633.9, 417.0)">o</text><text xml:space="preserve" font-family="Avenir-Book" font-size="50.0" fill="#000000" transform="matrix(1.00, 0.00, -0.00, -1.00, 663.5, 417.0)">n</text><text xml:space="preserve" font-family="Avenir-Book" font-size="50.0" fill="#000000" transform="matrix(1.00, 0.00, -0.00, -1.00, 691.3, 417.0)">d</text><text xml:space="preserve" font-family="Avenir-Book" font-size="50.0" fill="#000000" transform="matrix(1.00, 0.00, -0.00, -1.00, 721.9, 417.0)">a</text><text xml:space="preserve" font-family="Avenir-Book" font-size="50.0" fill="#000000" transform="matrix(1.00, 0.00, -0.00, -1.00, 747.8, 417.0)">-</text><text xml:space="preserve" font-family="Avenir-Book" font-size="50.0" fill="#000000" transform="matrix(1.00, 0.00, -0.00, -1.00, 764.5, 417.0)">f</text><text xml:space="preserve" font-family="Avenir-Book" font-size="50.0" fill="#000000" transform="matrix(1.00, 0.00, -0.00, -1.00, 779.2, 417.0)">o</text><text xml:space="preserve" font-family="Avenir-Book" font-size="50.0" fill="#000000" transform="matrix(1.00, 0.00, -0.00, -1.00, 808.9, 417.0)">r</text><text xml:space="preserve" font-family="Avenir-Book" font-size="50.0" fill="#000000" transform="matrix(1.00, 0.00, -0.00, -1.00, 824.6, 417.0)">g</text><text xml:space="preserve" font-family="Avenir-Book" font-size="50.0" fill="#000000" transform="matrix(1.00, 0.00, -0.00, -1.00, 855.2, 417.0)">e</text><text xml:space="preserve" font-family="Avenir-Book" font-size="50.0" fill="#000000" transform="matrix(1.00, 0.00, -0.00, -1.00, 883.0, 417.0)">.</text><text xml:space="preserve" font-family="Avenir-Book" font-size="50.0" fill="#000000" transform="matrix(1.00, 0.00, -0.00, -1.00, 896.9, 417.0)">g</text><text xml:space="preserve" font-family="Avenir-Book" font-size="50.0" fill="#000000" transform="matrix(1.00, 0.00, -0.00, -1.00, 927.4, 417.0)">i</text><text xml:space="preserve" font-family="Avenir-Book" font-size="50.0" fill="#000000" transform="matrix(1.00, 0.00, -0.00, -1.00, 939.4, 417.0)">t</text><text xml:space="preserve" font-family="Avenir-Book" font-size="50.0" fill="#000000" transform="matrix(1.00, 0.00, -0.00, -1.00, 956.0, 417.0)">h</text><text xml:space="preserve" font-family="Avenir-Book" font-size="50.0" fill="#000000" transform="matrix(1.00, 0.00, -0.00, -1.00, 983.8, 417.0)">u</text><text xml:space="preserve" font-family="Avenir-Book" font-size="50.0" fill="#000000" transform="matrix(1.00, 0.00, -0.00, -1.00, 1011.6, 417.0)">b</text><text xml:space="preserve" font-family="Avenir-Book" font-size="50.0" fill="#000000" transform="matrix(1.00, 0.00, -0.00, -1.00, 1042.2, 417.0)">.</text><text xml:space="preserve" font-family="Avenir-Book" font-size="50.0" fill="#000000" transform="matrix(1.00, 0.00, -0.00, -1.00, 1056.0, 417.0)">i</text><text xml:space="preserve" font-family="Avenir-Book" font-size="50.0" fill="#000000" transform="matrix(1.00, 0.00, -0.00, -1.00, 1068.0, 417.0)">o</text><text xml:space="preserve" font-family="Avenir-Book" font-size="50.0" fill="#000000" transform="matrix(1.00, 0.00, -0.00, -1.00, 1097.7, 417.0)"> </text><g><clipPath id="clip-892"><path d="M 444.8 410.8 L 1097.5 410.8 L 1097.5 415.3 L 444.8 415.3 Z M 444.8 410.8 "></path></clipPath><g clip-path="url(#clip-892)"><path d="M 5.6 195.1 L 657.3 195.1 " fill="none" stroke="#000000" stroke-width="2.50" stroke-miterlimit="0.00" transform="matrix(1.00, 0.00, 0.00, -1.00, 440.1, 608.1)"></path></g></g><text xml:space="preserve" font-family="SourceCodePro-Regular" font-size="50.0" fill="#000000" transform="matrix(1.00, 0.00, -0.00, -1.00, 446.0, 281.0)">c</text><text xml:space="preserve" font-family="SourceCodePro-Regular" font-size="50.0" fill="#000000" transform="matrix(1.00, 0.00, -0.00, -1.00, 476.0, 281.0)">o</text><text xml:space="preserve" font-family="SourceCodePro-Regular" font-size="50.0" fill="#000000" transform="matrix(1.00, 0.00, -0.00, -1.00, 506.0, 281.0)">n</text><text xml:space="preserve" font-family="SourceCodePro-Regular" font-size="50.0" fill="#000000" transform="matrix(1.00, 0.00, -0.00, -1.00, 536.0, 281.0)">d</text><text xml:space="preserve" font-family="SourceCodePro-Regular" font-size="50.0" fill="#000000" transform="matrix(1.00, 0.00, -0.00, -1.00, 566.0, 281.0)">a</text><text xml:space="preserve" font-family="SourceCodePro-Regular" font-size="50.0" fill="#000000" transform="matrix(1.00, 0.00, -0.00, -1.00, 596.0, 281.0)"> </text><text xml:space="preserve" font-family="SourceCodePro-Regular" font-size="50.0" fill="#000000" transform="matrix(1.00, 0.00, -0.00, -1.00, 626.0, 281.0)">c</text><text xml:space="preserve" font-family="SourceCodePro-Regular" font-size="50.0" fill="#000000" transform="matrix(1.00, 0.00, -0.00, -1.00, 656.0, 281.0)">o</text><text xml:space="preserve" font-family="SourceCodePro-Regular" font-size="50.0" fill="#000000" transform="matrix(1.00, 0.00, -0.00, -1.00, 686.0, 281.0)">n</text><text xml:space="preserve" font-family="SourceCodePro-Regular" font-size="50.0" fill="#000000" transform="matrix(1.00, 0.00, -0.00, -1.00, 716.0, 281.0)">f</text><text xml:space="preserve" font-family="SourceCodePro-Regular" font-size="50.0" fill="#000000" transform="matrix(1.00, 0.00, -0.00, -1.00, 746.0, 281.0)">i</text><text xml:space="preserve" font-family="SourceCodePro-Regular" font-size="50.0" fill="#000000" transform="matrix(1.00, 0.00, -0.00, -1.00, 776.0, 281.0)">g</text><text xml:space="preserve" font-family="SourceCodePro-Regular" font-size="50.0" fill="#000000" transform="matrix(1.00, 0.00, -0.00, -1.00, 806.0, 281.0)"> </text><text xml:space="preserve" font-family="SourceCodePro-Regular" font-size="50.0" fill="#000000" transform="matrix(1.00, 0.00, -0.00, -1.00, 836.0, 281.0)">-</text><text xml:space="preserve" font-family="SourceCodePro-Regular" font-size="50.0" fill="#000000" transform="matrix(1.00, 0.00, -0.00, -1.00, 866.0, 281.0)">-</text><text xml:space="preserve" font-family="SourceCodePro-Regular" font-size="50.0" fill="#000000" transform="matrix(1.00, 0.00, -0.00, -1.00, 896.0, 281.0)">a</text><text xml:space="preserve" font-family="SourceCodePro-Regular" font-size="50.0" fill="#000000" transform="matrix(1.00, 0.00, -0.00, -1.00, 926.0, 281.0)">d</text><text xml:space="preserve" font-family="SourceCodePro-Regular" font-size="50.0" fill="#000000" transform="matrix(1.00, 0.00, -0.00, -1.00, 956.0, 281.0)">d</text><text xml:space="preserve" font-family="SourceCodePro-Regular" font-size="50.0" fill="#000000" transform="matrix(1.00, 0.00, -0.00, -1.00, 986.0, 281.0)"> </text><text xml:space="preserve" font-family="SourceCodePro-Regular" font-size="50.0" fill="#000000" transform="matrix(1.00, 0.00, -0.00, -1.00, 1016.0, 281.0)">c</text><text xml:space="preserve" font-family="SourceCodePro-Regular" font-size="50.0" fill="#000000" transform="matrix(1.00, 0.00, -0.00, -1.00, 1046.0, 281.0)">h</text><text xml:space="preserve" font-family="SourceCodePro-Regular" font-size="50.0" fill="#000000" transform="matrix(1.00, 0.00, -0.00, -1.00, 1076.0, 281.0)">a</text><text xml:space="preserve" font-family="SourceCodePro-Regular" font-size="50.0" fill="#000000" transform="matrix(1.00, 0.00, -0.00, -1.00, 1106.0, 281.0)">n</text><text xml:space="preserve" font-family="SourceCodePro-Regular" font-size="50.0" fill="#000000" transform="matrix(1.00, 0.00, -0.00, -1.00, 1136.0, 281.0)">n</text><text xml:space="preserve" font-family="SourceCodePro-Regular" font-size="50.0" fill="#000000" transform="matrix(1.00, 0.00, -0.00, -1.00, 1166.0, 281.0)">e</text><text xml:space="preserve" font-family="SourceCodePro-Regular" font-size="50.0" fill="#000000" transform="matrix(1.00, 0.00, -0.00, -1.00, 1196.0, 281.0)">l</text><text xml:space="preserve" font-family="SourceCodePro-Regular" font-size="50.0" fill="#000000" transform="matrix(1.00, 0.00, -0.00, -1.00, 1226.0, 281.0)">s</text><text xml:space="preserve" font-family="SourceCodePro-Regular" font-size="50.0" fill="#000000" transform="matrix(1.00, 0.00, -0.00, -1.00, 1256.0, 281.0)"> </text><text xml:space="preserve" font-family="SourceCodePro-Regular" font-size="50.0" fill="#000000" transform="matrix(1.00, 0.00, -0.00, -1.00, 1286.0, 281.0)">c</text><text xml:space="preserve" font-family="SourceCodePro-Regular" font-size="50.0" fill="#000000" transform="matrix(1.00, 0.00, -0.00, -1.00, 1316.0, 281.0)">o</text><text xml:space="preserve" font-family="SourceCodePro-Regular" font-size="50.0" fill="#000000" transform="matrix(1.00, 0.00, -0.00, -1.00, 1346.0, 281.0)">n</text><text xml:space="preserve" font-family="SourceCodePro-Regular" font-size="50.0" fill="#000000" transform="matrix(1.00, 0.00, -0.00, -1.00, 1376.0, 281.0)">d</text><text xml:space="preserve" font-family="SourceCodePro-Regular" font-size="50.0" fill="#000000" transform="matrix(1.00, 0.00, -0.00, -1.00, 1406.0, 281.0)">a</text><text xml:space="preserve" font-family="SourceCodePro-Regular" font-size="50.0" fill="#000000" transform="matrix(1.00, 0.00, -0.00, -1.00, 1436.0, 281.0)">-</text><text xml:space="preserve" font-family="SourceCodePro-Regular" font-size="50.0" fill="#000000" transform="matrix(1.00, 0.00, -0.00, -1.00, 1466.0, 281.0)">f</text><text xml:space="preserve" font-family="SourceCodePro-Regular" font-size="50.0" fill="#000000" transform="matrix(1.00, 0.00, -0.00, -1.00, 1496.0, 281.0)">o</text><text xml:space="preserve" font-family="SourceCodePro-Regular" font-size="50.0" fill="#000000" transform="matrix(1.00, 0.00, -0.00, -1.00, 1526.0, 281.0)">r</text><text xml:space="preserve" font-family="SourceCodePro-Regular" font-size="50.0" fill="#000000" transform="matrix(1.00, 0.00, -0.00, -1.00, 1556.0, 281.0)">g</text><text xml:space="preserve" font-family="SourceCodePro-Regular" font-size="50.0" fill="#000000" transform="matrix(1.00, 0.00, -0.00, -1.00, 1586.0, 281.0)">e</text><text xml:space="preserve" font-family="MyriadPro-Regular" font-size="112.0" fill="#000000" transform="matrix(1.00, 0.00, -0.00, -1.00, 546.0, 884.0)">P</text><text xml:space="preserve" font-family="MyriadPro-Regular" font-size="112.0" fill="#000000" transform="matrix(1.00, 0.00, -0.00, -1.00, 605.0, 884.0)">l</text><text xml:space="preserve" font-family="MyriadPro-Regular" font-size="112.0" fill="#000000" transform="matrix(1.00, 0.00, -0.00, -1.00, 631.5, 884.0)">u</text><text xml:space="preserve" font-family="MyriadPro-Regular" font-size="112.0" fill="#000000" transform="matrix(1.00, 0.00, -0.00, -1.00, 693.2, 884.0)">g</text><text xml:space="preserve" font-family="MyriadPro-Regular" font-size="112.0" fill="#000000" transform="matrix(1.00, 0.00, -0.00, -1.00, 755.8, 884.0)">:</text><text xml:space="preserve" font-family="MyriadPro-Regular" font-size="112.0" fill="#000000" transform="matrix(1.00, 0.00, -0.00, -1.00, 779.0, 884.0)"> </text><text xml:space="preserve" font-family="MyriadPro-Regular" font-size="112.0" fill="#000000" transform="matrix(1.00, 0.00, -0.00, -1.00, 802.7, 884.0)">c</text><text xml:space="preserve" font-family="MyriadPro-Regular" font-size="112.0" fill="#000000" transform="matrix(1.00, 0.00, -0.00, -1.00, 852.2, 884.0)">o</text><text xml:space="preserve" font-family="MyriadPro-Regular" font-size="112.0" fill="#000000" transform="matrix(1.00, 0.00, -0.00, -1.00, 913.7, 884.0)">n</text><text xml:space="preserve" font-family="MyriadPro-Regular" font-size="112.0" fill="#000000" transform="matrix(1.00, 0.00, -0.00, -1.00, 975.9, 884.0)">d</text><text xml:space="preserve" font-family="MyriadPro-Regular" font-size="112.0" fill="#000000" transform="matrix(1.00, 0.00, -0.00, -1.00, 1039.0, 884.0)">a</text><text xml:space="preserve" font-family="MyriadPro-Regular" font-size="112.0" fill="#000000" transform="matrix(1.00, 0.00, -0.00, -1.00, 1093.0, 884.0)">-</text><text xml:space="preserve" font-family="MyriadPro-Regular" font-size="112.0" fill="#000000" transform="matrix(1.00, 0.00, -0.00, -1.00, 1127.4, 884.0)">f</text><text xml:space="preserve" font-family="MyriadPro-Regular" font-size="112.0" fill="#000000" transform="matrix(1.00, 0.00, -0.00, -1.00, 1158.6, 884.0)">o</text><text xml:space="preserve" font-family="MyriadPro-Regular" font-size="112.0" fill="#000000" transform="matrix(1.00, 0.00, -0.00, -1.00, 1220.1, 884.0)">r</text><text xml:space="preserve" font-family="MyriadPro-Regular" font-size="112.0" fill="#000000" transform="matrix(1.00, 0.00, -0.00, -1.00, 1255.9, 884.0)">g</text><text xml:space="preserve" font-family="MyriadPro-Regular" font-size="112.0" fill="#000000" transform="matrix(1.00, 0.00, -0.00, -1.00, 1318.5, 884.0)">e</text><g><clipPath id="clip-893"><path d="M 941.2 642.9 L 1076.7 642.9 L 1076.7 778.4 L 941.2 778.4 Z M 941.2 642.9 "></path></clipPath><g clip-path="url(#clip-893)"><image xlink:href="../../5D3B03B1-A234-453C-A358-CDBA686B3807/assets/9C4FC9D10D7791C138F997FDFFF9E673.png" width="133.00" height="133.00" transform="matrix(1.00, 0.00, -0.00, -1.00, 942.2, 777.4)" opacity="0.50"></image><path d="M 1053.3 757.0 C 1077.8 732.5 1077.8 692.8 1053.3 668.3 C 1028.8 643.8 989.1 643.8 964.6 668.3 C 940.1 692.8 940.1 732.5 964.6 757.0 C 989.1 781.5 1028.8 781.5 1053.3 757.0 Z M 1053.3 757.0 " fill="#000000"></path></g></g><g><clipPath id="clip-894"><path d="M 958.2 684.4 L 1048.2 684.4 L 1048.2 731.4 L 958.2 731.4 Z M 958.2 684.4 "></path></clipPath><g clip-path="url(#clip-894)"><image xlink:href="../../5D3B03B1-A234-453C-A358-CDBA686B3807/assets/659B2B0E4A867A74D994F2D3AC145B32.png" width="90.00" height="47.00" transform="matrix(1.00, 0.00, -0.00, -1.00, 958.0, 731.0)"></image></g></g></g></svg>