<?xml version="1.0" encoding="UTF-8" standalone="no"?><svg xmlns="http://www.w3.org/2000/svg" xmlns:xlink="http://www.w3.org/1999/xlink" clip-rule="evenodd" stroke-miterlimit="4.00" viewBox="0 0 776 219"><desc>SVG generated by Keynote</desc><defs></defs><g transform="matrix(1.00, 0.00, -0.00, -1.00, 0.0, 219.0)"><text xml:space="preserve" font-family="MyriadPro-Regular" font-size="103.0" fill="#000000" transform="matrix(1.00, 0.00, -0.00, -1.00, 86.0, 147.0)">O</text><text xml:space="preserve" font-family="MyriadPro-Regular" font-size="103.0" fill="#000000" transform="matrix(1.00, 0.00, -0.00, -1.00, 157.0, 147.0)">p</text><text xml:space="preserve" font-family="MyriadPro-Regular" font-size="103.0" fill="#000000" transform="matrix(1.00, 0.00, -0.00, -1.00, 215.6, 147.0)">t</text><text xml:space="preserve" font-family="MyriadPro-Regular" font-size="103.0" fill="#000000" transform="matrix(1.00, 0.00, -0.00, -1.00, 249.7, 147.0)">i</text><text xml:space="preserve" font-family="MyriadPro-Regular" font-size="103.0" fill="#000000" transform="matrix(1.00, 0.00, -0.00, -1.00, 273.8, 147.0)">m</text><text xml:space="preserve" font-family="MyriadPro-Regular" font-size="103.0" fill="#000000" transform="matrix(1.00, 0.00, -0.00, -1.00, 359.8, 147.0)">i</text><text xml:space="preserve" font-family="MyriadPro-Regular" font-size="103.0" fill="#000000" transform="matrix(1.00, 0.00, -0.00, -1.00, 383.9, 147.0)">z</text><text xml:space="preserve" font-family="MyriadPro-Regular" font-size="103.0" fill="#000000" transform="matrix(1.00, 0.00, -0.00, -1.00, 428.0, 147.0)">a</text><text xml:space="preserve" font-family="MyriadPro-Regular" font-size="103.0" fill="#000000" transform="matrix(1.00, 0.00, -0.00, -1.00, 477.2, 147.0)">t</text><text xml:space="preserve" font-family="MyriadPro-Regular" font-size="103.0" fill="#000000" transform="matrix(1.00, 0.00, -0.00, -1.00, 511.3, 147.0)">i</text><text xml:space="preserve" font-family="MyriadPro-Regular" font-size="103.0" fill="#000000" transform="matrix(1.00, 0.00, -0.00, -1.00, 535.5, 147.0)">o</text><text xml:space="preserve" font-family="MyriadPro-Regular" font-size="103.0" fill="#000000" transform="matrix(1.00, 0.00, -0.00, -1.00, 592.0, 147.0)">n</text><text xml:space="preserve" font-family="MyriadPro-Regular" font-size="103.0" fill="#000000" transform="matrix(1.00, 0.00, -0.00, -1.00, 649.2, 147.0)">s</text><text xml:space="preserve" font-family="MyriadPro-Regular" font-size="103.0" fill="#000000" transform="matrix(1.00, 0.00, -0.00, -1.00, 690.0, 147.0)"> </text><text xml:space="preserve" font-family="MyriadPro-Regular" font-size="103.0" fill="#000000" transform="matrix(1.00, 0.00, -0.00, -1.00, -1.0, 23.0)">a</text><text xml:space="preserve" font-family="MyriadPro-Regular" font-size="103.0" fill="#000000" transform="matrix(1.00, 0.00, -0.00, -1.00, 48.7, 23.0)">n</text><text xml:space="preserve" font-family="MyriadPro-Regular" font-size="103.0" fill="#000000" transform="matrix(1.00, 0.00, -0.00, -1.00, 105.9, 23.0)">d</text><text xml:space="preserve" font-family="MyriadPro-Regular" font-size="103.0" fill="#000000" transform="matrix(1.00, 0.00, -0.00, -1.00, 164.0, 23.0)"> </text><text xml:space="preserve" font-family="MyriadPro-Regular" font-size="103.0" fill="#000000" transform="matrix(1.00, 0.00, -0.00, -1.00, 185.8, 23.0)">b</text><text xml:space="preserve" font-family="MyriadPro-Regular" font-size="103.0" fill="#000000" transform="matrix(1.00, 0.00, -0.00, -1.00, 244.4, 23.0)">e</text><text xml:space="preserve" font-family="MyriadPro-Regular" font-size="103.0" fill="#000000" transform="matrix(1.00, 0.00, -0.00, -1.00, 296.1, 23.0)">s</text><text xml:space="preserve" font-family="MyriadPro-Regular" font-size="103.0" fill="#000000" transform="matrix(1.00, 0.00, -0.00, -1.00, 336.9, 23.0)">t</text><text xml:space="preserve" font-family="MyriadPro-Regular" font-size="103.0" fill="#000000" transform="matrix(1.00, 0.00, -0.00, -1.00, 371.0, 23.0)"> </text><text xml:space="preserve" font-family="MyriadPro-Regular" font-size="103.0" fill="#000000" transform="matrix(1.00, 0.00, -0.00, -1.00, 392.8, 23.0)">p</text><text xml:space="preserve" font-family="MyriadPro-Regular" font-size="103.0" fill="#000000" transform="matrix(1.00, 0.00, -0.00, -1.00, 451.4, 23.0)">r</text><text xml:space="preserve" font-family="MyriadPro-Regular" font-size="103.0" fill="#000000" transform="matrix(1.00, 0.00, -0.00, -1.00, 484.6, 23.0)">a</text><text xml:space="preserve" font-family="MyriadPro-Regular" font-size="103.0" fill="#000000" transform="matrix(1.00, 0.00, -0.00, -1.00, 534.3, 23.0)">c</text><text xml:space="preserve" font-family="MyriadPro-Regular" font-size="103.0" fill="#000000" transform="matrix(1.00, 0.00, -0.00, -1.00, 581.8, 23.0)">t</text><text xml:space="preserve" font-family="MyriadPro-Regular" font-size="103.0" fill="#000000" transform="matrix(1.00, 0.00, -0.00, -1.00, 615.9, 23.0)">i</text><text xml:space="preserve" font-family="MyriadPro-Regular" font-size="103.0" fill="#000000" transform="matrix(1.00, 0.00, -0.00, -1.00, 640.0, 23.0)">c</text><text xml:space="preserve" font-family="MyriadPro-Regular" font-size="103.0" fill="#000000" transform="matrix(1.00, 0.00, -0.00, -1.00, 685.6, 23.0)">e</text><text xml:space="preserve" font-family="MyriadPro-Regular" font-size="103.0" fill="#000000" transform="matrix(1.00, 0.00, -0.00, -1.00, 737.2, 23.0)">s</text></g></svg>