<?xml version="1.0" encoding="UTF-8" standalone="no"?><svg xmlns="http://www.w3.org/2000/svg" xmlns:xlink="http://www.w3.org/1999/xlink" clip-rule="evenodd" stroke-miterlimit="4.00" viewBox="0 0 1118 669"><desc>SVG generated by Keynote</desc><defs></defs><g transform="matrix(1.00, 0.00, -0.00, -1.00, 0.0, 669.0)"><text xml:space="preserve" font-family="Helvetica-Bold" font-weight="bold" font-size="35.2" fill="#000000" transform="matrix(1.00, 0.00, -0.00, -1.00, 0.2, 636.1)">•</text><text xml:space="preserve" font-family="Helvetica-Bold" font-weight="bold" font-size="47.0" fill="#000000" transform="matrix(1.00, 0.00, -0.00, -1.00, 46.0, 632.0)">A</text><text xml:space="preserve" font-family="Helvetica-Bold" font-weight="bold" font-size="47.0" fill="#000000" transform="matrix(1.00, 0.00, -0.00, -1.00, 80.0, 632.0)">l</text><text xml:space="preserve" font-family="Helvetica-Bold" font-weight="bold" font-size="47.0" fill="#000000" transform="matrix(1.00, 0.00, -0.00, -1.00, 93.0, 632.0)">w</text><text xml:space="preserve" font-family="Helvetica-Bold" font-weight="bold" font-size="47.0" fill="#000000" transform="matrix(1.00, 0.00, -0.00, -1.00, 129.5, 632.0)">a</text><text xml:space="preserve" font-family="Helvetica-Bold" font-weight="bold" font-size="47.0" fill="#000000" transform="matrix(1.00, 0.00, -0.00, -1.00, 155.7, 632.0)">y</text><text xml:space="preserve" font-family="Helvetica-Bold" font-weight="bold" font-size="47.0" fill="#000000" transform="matrix(1.00, 0.00, -0.00, -1.00, 181.8, 632.0)">s</text><text xml:space="preserve" font-family="Helvetica-Bold" font-weight="bold" font-size="47.0" fill="#000000" transform="matrix(1.00, 0.00, -0.00, -1.00, 208.0, 632.0)"> </text><text xml:space="preserve" font-family="Helvetica-Bold" font-weight="bold" font-size="47.0" fill="#000000" transform="matrix(1.00, 0.00, -0.00, -1.00, 221.0, 632.0)">u</text><text xml:space="preserve" font-family="Helvetica-Bold" font-weight="bold" font-size="47.0" fill="#000000" transform="matrix(1.00, 0.00, -0.00, -1.00, 249.7, 632.0)">s</text><text xml:space="preserve" font-family="Helvetica-Bold" font-weight="bold" font-size="47.0" fill="#000000" transform="matrix(1.00, 0.00, -0.00, -1.00, 275.9, 632.0)">e</text><text xml:space="preserve" font-family="Helvetica-Bold" font-weight="bold" font-size="47.0" fill="#000000" transform="matrix(1.00, 0.00, -0.00, -1.00, 302.0, 632.0)"> </text><text xml:space="preserve" font-family="Helvetica-Bold" font-weight="bold" font-size="47.0" fill="#000000" transform="matrix(1.00, 0.00, -0.00, -1.00, 315.1, 632.0)">S</text><text xml:space="preserve" font-family="Helvetica-Bold" font-weight="bold" font-size="47.0" fill="#000000" transform="matrix(1.00, 0.00, -0.00, -1.00, 346.4, 632.0)">S</text><text xml:space="preserve" font-family="Helvetica-Bold" font-weight="bold" font-size="47.0" fill="#000000" transform="matrix(1.00, 0.00, -0.00, -1.00, 377.8, 632.0)">L</text><text xml:space="preserve" font-family="Helvetica-Bold" font-weight="bold" font-size="47.0" fill="#000000" transform="matrix(1.00, 0.00, -0.00, -1.00, 406.5, 632.0)">!</text><text xml:space="preserve" font-family="Helvetica-Light" font-size="35.2" fill="#000000" transform="matrix(1.00, 0.00, -0.00, -1.00, 0.2, 524.6)">•</text><text xml:space="preserve" font-family="Helvetica-Light" font-size="47.0" fill="#000000" transform="matrix(1.00, 0.00, -0.00, -1.00, 46.0, 520.0)">U</text><text xml:space="preserve" font-family="Helvetica-Light" font-size="47.0" fill="#000000" transform="matrix(1.00, 0.00, -0.00, -1.00, 79.9, 520.0)">s</text><text xml:space="preserve" font-family="Helvetica-Light" font-size="47.0" fill="#000000" transform="matrix(1.00, 0.00, -0.00, -1.00, 103.4, 520.0)">e</text><text xml:space="preserve" font-family="Helvetica-Light" font-size="47.0" fill="#000000" transform="matrix(1.00, 0.00, -0.00, -1.00, 129.6, 520.0)"> </text><text xml:space="preserve" font-family="Helvetica-Light" font-size="47.0" fill="#000000" transform="matrix(1.00, 0.00, -0.00, -1.00, 142.6, 520.0)">p</text><text xml:space="preserve" font-family="Helvetica-Light" font-size="47.0" fill="#000000" transform="matrix(1.00, 0.00, -0.00, -1.00, 171.3, 520.0)">o</text><text xml:space="preserve" font-family="Helvetica-Light" font-size="47.0" fill="#000000" transform="matrix(1.00, 0.00, -0.00, -1.00, 197.5, 520.0)">s</text><text xml:space="preserve" font-family="Helvetica-Light" font-size="47.0" fill="#000000" transform="matrix(1.00, 0.00, -0.00, -1.00, 221.0, 520.0)">t</text><text xml:space="preserve" font-family="Helvetica-Light" font-size="47.0" fill="#000000" transform="matrix(1.00, 0.00, -0.00, -1.00, 234.0, 520.0)">g</text><text xml:space="preserve" font-family="Helvetica-Light" font-size="47.0" fill="#000000" transform="matrix(1.00, 0.00, -0.00, -1.00, 262.8, 520.0)">r</text><text xml:space="preserve" font-family="Helvetica-Light" font-size="47.0" fill="#000000" transform="matrix(1.00, 0.00, -0.00, -1.00, 277.6, 520.0)">e</text><text xml:space="preserve" font-family="Helvetica-Light" font-size="47.0" fill="#000000" transform="matrix(1.00, 0.00, -0.00, -1.00, 303.7, 520.0)">s</text><text xml:space="preserve" font-family="Helvetica-Light" font-size="47.0" fill="#000000" transform="matrix(1.00, 0.00, -0.00, -1.00, 327.2, 520.0)"> </text><text xml:space="preserve" font-family="Helvetica-Light" font-size="47.0" fill="#000000" transform="matrix(1.00, 0.00, -0.00, -1.00, 340.3, 520.0)">f</text><text xml:space="preserve" font-family="Helvetica-Light" font-size="47.0" fill="#000000" transform="matrix(1.00, 0.00, -0.00, -1.00, 353.3, 520.0)">o</text><text xml:space="preserve" font-family="Helvetica-Light" font-size="47.0" fill="#000000" transform="matrix(1.00, 0.00, -0.00, -1.00, 379.5, 520.0)">r</text><text xml:space="preserve" font-family="Helvetica-Light" font-size="47.0" fill="#000000" transform="matrix(1.00, 0.00, -0.00, -1.00, 395.1, 520.0)"> </text><text xml:space="preserve" font-family="Helvetica-Light" font-size="47.0" fill="#000000" transform="matrix(1.00, 0.00, -0.00, -1.00, 408.2, 520.0)">t</text><text xml:space="preserve" font-family="Helvetica-Light" font-size="47.0" fill="#000000" transform="matrix(1.00, 0.00, -0.00, -1.00, 421.2, 520.0)">h</text><text xml:space="preserve" font-family="Helvetica-Light" font-size="47.0" fill="#000000" transform="matrix(1.00, 0.00, -0.00, -1.00, 447.4, 520.0)">e</text><text xml:space="preserve" font-family="Helvetica-Light" font-size="47.0" fill="#000000" transform="matrix(1.00, 0.00, -0.00, -1.00, 473.5, 520.0)"> </text><text xml:space="preserve" font-family="Helvetica-Light" font-size="47.0" fill="#000000" transform="matrix(1.00, 0.00, -0.00, -1.00, 486.6, 520.0)">H</text><text xml:space="preserve" font-family="Helvetica-Light" font-size="47.0" fill="#000000" transform="matrix(1.00, 0.00, -0.00, -1.00, 520.5, 520.0)">u</text><text xml:space="preserve" font-family="Helvetica-Light" font-size="47.0" fill="#000000" transform="matrix(1.00, 0.00, -0.00, -1.00, 546.6, 520.0)">b</text><text xml:space="preserve" font-family="Helvetica-Light" font-size="47.0" fill="#000000" transform="matrix(1.00, 0.00, -0.00, -1.00, 575.4, 520.0)"> </text><text xml:space="preserve" font-family="Helvetica-Light" font-size="47.0" fill="#000000" transform="matrix(1.00, 0.00, -0.00, -1.00, 588.4, 520.0)">d</text><text xml:space="preserve" font-family="Helvetica-Light" font-size="47.0" fill="#000000" transform="matrix(1.00, 0.00, -0.00, -1.00, 617.1, 520.0)">a</text><text xml:space="preserve" font-family="Helvetica-Light" font-size="47.0" fill="#000000" transform="matrix(1.00, 0.00, -0.00, -1.00, 643.3, 520.0)">t</text><text xml:space="preserve" font-family="Helvetica-Light" font-size="47.0" fill="#000000" transform="matrix(1.00, 0.00, -0.00, -1.00, 656.3, 520.0)">a</text><text xml:space="preserve" font-family="Helvetica-Light" font-size="47.0" fill="#000000" transform="matrix(1.00, 0.00, -0.00, -1.00, 682.5, 520.0)">b</text><text xml:space="preserve" font-family="Helvetica-Light" font-size="47.0" fill="#000000" transform="matrix(1.00, 0.00, -0.00, -1.00, 711.2, 520.0)">a</text><text xml:space="preserve" font-family="Helvetica-Light" font-size="47.0" fill="#000000" transform="matrix(1.00, 0.00, -0.00, -1.00, 737.3, 520.0)">s</text><text xml:space="preserve" font-family="Helvetica-Light" font-size="47.0" fill="#000000" transform="matrix(1.00, 0.00, -0.00, -1.00, 760.8, 520.0)">e</text><text xml:space="preserve" font-family="Helvetica-Light" font-size="47.0" fill="#000000" transform="matrix(1.00, 0.00, -0.00, -1.00, 787.0, 520.0)"> </text><text xml:space="preserve" font-family="Helvetica-Light" font-size="35.2" fill="#000000" transform="matrix(1.00, 0.00, -0.00, -1.00, 0.2, 413.0)">•</text><text xml:space="preserve" font-family="Helvetica-Light" font-size="47.0" fill="#000000" transform="matrix(1.00, 0.00, -0.00, -1.00, 46.0, 409.0)">P</text><text xml:space="preserve" font-family="Helvetica-Light" font-size="47.0" fill="#000000" transform="matrix(1.00, 0.00, -0.00, -1.00, 74.7, 409.0)">u</text><text xml:space="preserve" font-family="Helvetica-Light" font-size="47.0" fill="#000000" transform="matrix(1.00, 0.00, -0.00, -1.00, 100.8, 409.0)">t</text><text xml:space="preserve" font-family="Helvetica-Light" font-size="47.0" fill="#000000" transform="matrix(1.00, 0.00, -0.00, -1.00, 113.9, 409.0)"> </text><text xml:space="preserve" font-family="Helvetica-Light" font-size="47.0" fill="#000000" transform="matrix(1.00, 0.00, -0.00, -1.00, 127.0, 409.0)">n</text><text xml:space="preserve" font-family="Helvetica-Light" font-size="47.0" fill="#000000" transform="matrix(1.00, 0.00, -0.00, -1.00, 153.1, 409.0)">g</text><text xml:space="preserve" font-family="Helvetica-Light" font-size="47.0" fill="#000000" transform="matrix(1.00, 0.00, -0.00, -1.00, 181.8, 409.0)">i</text><text xml:space="preserve" font-family="Helvetica-Light" font-size="47.0" fill="#000000" transform="matrix(1.00, 0.00, -0.00, -1.00, 192.3, 409.0)">n</text><text xml:space="preserve" font-family="Helvetica-Light" font-size="47.0" fill="#000000" transform="matrix(1.00, 0.00, -0.00, -1.00, 218.4, 409.0)">x</text><text xml:space="preserve" font-family="Helvetica-Light" font-size="47.0" fill="#000000" transform="matrix(1.00, 0.00, -0.00, -1.00, 241.9, 409.0)"> </text><text xml:space="preserve" font-family="Helvetica-Light" font-size="47.0" fill="#000000" transform="matrix(1.00, 0.00, -0.00, -1.00, 255.0, 409.0)">i</text><text xml:space="preserve" font-family="Helvetica-Light" font-size="47.0" fill="#000000" transform="matrix(1.00, 0.00, -0.00, -1.00, 265.4, 409.0)">n</text><text xml:space="preserve" font-family="Helvetica-Light" font-size="47.0" fill="#000000" transform="matrix(1.00, 0.00, -0.00, -1.00, 291.5, 409.0)"> </text><text xml:space="preserve" font-family="Helvetica-Light" font-size="47.0" fill="#000000" transform="matrix(1.00, 0.00, -0.00, -1.00, 304.6, 409.0)">f</text><text xml:space="preserve" font-family="Helvetica-Light" font-size="47.0" fill="#000000" transform="matrix(1.00, 0.00, -0.00, -1.00, 317.7, 409.0)">r</text><text xml:space="preserve" font-family="Helvetica-Light" font-size="47.0" fill="#000000" transform="matrix(1.00, 0.00, -0.00, -1.00, 332.5, 409.0)">o</text><text xml:space="preserve" font-family="Helvetica-Light" font-size="47.0" fill="#000000" transform="matrix(1.00, 0.00, -0.00, -1.00, 358.6, 409.0)">n</text><text xml:space="preserve" font-family="Helvetica-Light" font-size="47.0" fill="#000000" transform="matrix(1.00, 0.00, -0.00, -1.00, 384.7, 409.0)">t</text><text xml:space="preserve" font-family="Helvetica-Light" font-size="47.0" fill="#000000" transform="matrix(1.00, 0.00, -0.00, -1.00, 397.8, 409.0)"> </text><text xml:space="preserve" font-family="Helvetica-Light" font-size="47.0" fill="#000000" transform="matrix(1.00, 0.00, -0.00, -1.00, 410.9, 409.0)">o</text><text xml:space="preserve" font-family="Helvetica-Light" font-size="47.0" fill="#000000" transform="matrix(1.00, 0.00, -0.00, -1.00, 437.0, 409.0)">f</text><text xml:space="preserve" font-family="Helvetica-Light" font-size="47.0" fill="#000000" transform="matrix(1.00, 0.00, -0.00, -1.00, 450.1, 409.0)"> </text><text xml:space="preserve" font-family="Helvetica-Light" font-size="47.0" fill="#000000" transform="matrix(1.00, 0.00, -0.00, -1.00, 463.1, 409.0)">t</text><text xml:space="preserve" font-family="Helvetica-Light" font-size="47.0" fill="#000000" transform="matrix(1.00, 0.00, -0.00, -1.00, 476.2, 409.0)">h</text><text xml:space="preserve" font-family="Helvetica-Light" font-size="47.0" fill="#000000" transform="matrix(1.00, 0.00, -0.00, -1.00, 502.3, 409.0)">e</text><text xml:space="preserve" font-family="Helvetica-Light" font-size="47.0" fill="#000000" transform="matrix(1.00, 0.00, -0.00, -1.00, 528.5, 409.0)"> </text><text xml:space="preserve" font-family="Helvetica-Light" font-size="47.0" fill="#000000" transform="matrix(1.00, 0.00, -0.00, -1.00, 541.5, 409.0)">p</text><text xml:space="preserve" font-family="Helvetica-Light" font-size="47.0" fill="#000000" transform="matrix(1.00, 0.00, -0.00, -1.00, 570.2, 409.0)">r</text><text xml:space="preserve" font-family="Helvetica-Light" font-size="47.0" fill="#000000" transform="matrix(1.00, 0.00, -0.00, -1.00, 585.0, 409.0)">o</text><text xml:space="preserve" font-family="Helvetica-Light" font-size="47.0" fill="#000000" transform="matrix(1.00, 0.00, -0.00, -1.00, 611.2, 409.0)">x</text><text xml:space="preserve" font-family="Helvetica-Light" font-size="47.0" fill="#000000" transform="matrix(1.00, 0.00, -0.00, -1.00, 634.7, 409.0)">y</text><text xml:space="preserve" font-family="Helvetica-Light" font-size="47.0" fill="#000000" transform="matrix(1.00, 0.00, -0.00, -1.00, 658.2, 409.0)"> </text><text xml:space="preserve" font-family="Helvetica-Light" font-size="35.2" fill="#000000" transform="matrix(1.00, 0.00, -0.00, -1.00, 0.2, 301.5)">•</text><text xml:space="preserve" font-family="Helvetica-Light" font-size="47.0" fill="#000000" transform="matrix(1.00, 0.00, -0.00, -1.00, 46.0, 297.0)">R</text><text xml:space="preserve" font-family="Helvetica-Light" font-size="47.0" fill="#000000" transform="matrix(1.00, 0.00, -0.00, -1.00, 77.3, 297.0)">u</text><text xml:space="preserve" font-family="Helvetica-Light" font-size="47.0" fill="#000000" transform="matrix(1.00, 0.00, -0.00, -1.00, 103.5, 297.0)">n</text><text xml:space="preserve" font-family="Helvetica-Light" font-size="47.0" fill="#000000" transform="matrix(1.00, 0.00, -0.00, -1.00, 129.6, 297.0)"> </text><text xml:space="preserve" font-family="Helvetica-Light" font-size="47.0" fill="#000000" transform="matrix(1.00, 0.00, -0.00, -1.00, 142.7, 297.0)">c</text><text xml:space="preserve" font-family="Helvetica-Light" font-size="47.0" fill="#000000" transform="matrix(1.00, 0.00, -0.00, -1.00, 168.8, 297.0)">u</text><text xml:space="preserve" font-family="Helvetica-Light" font-size="47.0" fill="#000000" transform="matrix(1.00, 0.00, -0.00, -1.00, 194.9, 297.0)">l</text><text xml:space="preserve" font-family="Helvetica-Light" font-size="47.0" fill="#000000" transform="matrix(1.00, 0.00, -0.00, -1.00, 205.4, 297.0)">l</text><text xml:space="preserve" font-family="Helvetica-Light" font-size="47.0" fill="#000000" transform="matrix(1.00, 0.00, -0.00, -1.00, 215.8, 297.0)">-</text><text xml:space="preserve" font-family="Helvetica-Light" font-size="47.0" fill="#000000" transform="matrix(1.00, 0.00, -0.00, -1.00, 231.5, 297.0)">i</text><text xml:space="preserve" font-family="Helvetica-Light" font-size="47.0" fill="#000000" transform="matrix(1.00, 0.00, -0.00, -1.00, 241.9, 297.0)">d</text><text xml:space="preserve" font-family="Helvetica-Light" font-size="47.0" fill="#000000" transform="matrix(1.00, 0.00, -0.00, -1.00, 270.6, 297.0)">l</text><text xml:space="preserve" font-family="Helvetica-Light" font-size="47.0" fill="#000000" transform="matrix(1.00, 0.00, -0.00, -1.00, 281.0, 297.0)">e</text><text xml:space="preserve" font-family="Helvetica-Light" font-size="47.0" fill="#000000" transform="matrix(1.00, 0.00, -0.00, -1.00, 307.2, 297.0)">-</text><text xml:space="preserve" font-family="Helvetica-Light" font-size="47.0" fill="#000000" transform="matrix(1.00, 0.00, -0.00, -1.00, 322.8, 297.0)">s</text><text xml:space="preserve" font-family="Helvetica-Light" font-size="47.0" fill="#000000" transform="matrix(1.00, 0.00, -0.00, -1.00, 346.3, 297.0)">e</text><text xml:space="preserve" font-family="Helvetica-Light" font-size="47.0" fill="#000000" transform="matrix(1.00, 0.00, -0.00, -1.00, 372.5, 297.0)">r</text><text xml:space="preserve" font-family="Helvetica-Light" font-size="47.0" fill="#000000" transform="matrix(1.00, 0.00, -0.00, -1.00, 388.1, 297.0)">v</text><text xml:space="preserve" font-family="Helvetica-Light" font-size="47.0" fill="#000000" transform="matrix(1.00, 0.00, -0.00, -1.00, 411.6, 297.0)">e</text><text xml:space="preserve" font-family="Helvetica-Light" font-size="47.0" fill="#000000" transform="matrix(1.00, 0.00, -0.00, -1.00, 437.7, 297.0)">r</text><text xml:space="preserve" font-family="Helvetica-Light" font-size="47.0" fill="#000000" transform="matrix(1.00, 0.00, -0.00, -1.00, 453.4, 297.0)">s</text><text xml:space="preserve" font-family="Helvetica-Light" font-size="47.0" fill="#000000" transform="matrix(1.00, 0.00, -0.00, -1.00, 476.9, 297.0)"> </text><text xml:space="preserve" font-family="Helvetica-Light" font-size="47.0" fill="#000000" transform="matrix(1.00, 0.00, -0.00, -1.00, 490.0, 297.0)">s</text><text xml:space="preserve" font-family="Helvetica-Light" font-size="47.0" fill="#000000" transform="matrix(1.00, 0.00, -0.00, -1.00, 513.5, 297.0)">e</text><text xml:space="preserve" font-family="Helvetica-Light" font-size="47.0" fill="#000000" transform="matrix(1.00, 0.00, -0.00, -1.00, 539.6, 297.0)">r</text><text xml:space="preserve" font-family="Helvetica-Light" font-size="47.0" fill="#000000" transform="matrix(1.00, 0.00, -0.00, -1.00, 555.2, 297.0)">v</text><text xml:space="preserve" font-family="Helvetica-Light" font-size="47.0" fill="#000000" transform="matrix(1.00, 0.00, -0.00, -1.00, 578.7, 297.0)">i</text><text xml:space="preserve" font-family="Helvetica-Light" font-size="47.0" fill="#000000" transform="matrix(1.00, 0.00, -0.00, -1.00, 589.2, 297.0)">c</text><text xml:space="preserve" font-family="Helvetica-Light" font-size="47.0" fill="#000000" transform="matrix(1.00, 0.00, -0.00, -1.00, 615.3, 297.0)">e</text><text xml:space="preserve" font-family="Helvetica-Light" font-size="47.0" fill="#000000" transform="matrix(1.00, 0.00, -0.00, -1.00, 641.4, 297.0)"> </text><text xml:space="preserve" font-family="Helvetica-Light" font-size="47.0" fill="#000000" transform="matrix(1.00, 0.00, -0.00, -1.00, 654.5, 297.0)">t</text><text xml:space="preserve" font-family="Helvetica-Light" font-size="47.0" fill="#000000" transform="matrix(1.00, 0.00, -0.00, -1.00, 667.6, 297.0)">o</text><text xml:space="preserve" font-family="Helvetica-Light" font-size="47.0" fill="#000000" transform="matrix(1.00, 0.00, -0.00, -1.00, 693.7, 297.0)"> </text><text xml:space="preserve" font-family="Helvetica-Light" font-size="47.0" fill="#000000" transform="matrix(1.00, 0.00, -0.00, -1.00, 706.8, 297.0)">p</text><text xml:space="preserve" font-family="Helvetica-Light" font-size="47.0" fill="#000000" transform="matrix(1.00, 0.00, -0.00, -1.00, 735.5, 297.0)">r</text><text xml:space="preserve" font-family="Helvetica-Light" font-size="47.0" fill="#000000" transform="matrix(1.00, 0.00, -0.00, -1.00, 751.1, 297.0)">u</text><text xml:space="preserve" font-family="Helvetica-Light" font-size="47.0" fill="#000000" transform="matrix(1.00, 0.00, -0.00, -1.00, 777.3, 297.0)">n</text><text xml:space="preserve" font-family="Helvetica-Light" font-size="47.0" fill="#000000" transform="matrix(1.00, 0.00, -0.00, -1.00, 803.4, 297.0)">e</text><text xml:space="preserve" font-family="Helvetica-Light" font-size="47.0" fill="#000000" transform="matrix(1.00, 0.00, -0.00, -1.00, 829.5, 297.0)"> </text><text xml:space="preserve" font-family="Helvetica-Light" font-size="47.0" fill="#000000" transform="matrix(1.00, 0.00, -0.00, -1.00, 842.6, 297.0)">r</text><text xml:space="preserve" font-family="Helvetica-Light" font-size="47.0" fill="#000000" transform="matrix(1.00, 0.00, -0.00, -1.00, 857.4, 297.0)">e</text><text xml:space="preserve" font-family="Helvetica-Light" font-size="47.0" fill="#000000" transform="matrix(1.00, 0.00, -0.00, -1.00, 883.5, 297.0)">s</text><text xml:space="preserve" font-family="Helvetica-Light" font-size="47.0" fill="#000000" transform="matrix(1.00, 0.00, -0.00, -1.00, 907.0, 297.0)">o</text><text xml:space="preserve" font-family="Helvetica-Light" font-size="47.0" fill="#000000" transform="matrix(1.00, 0.00, -0.00, -1.00, 933.2, 297.0)">u</text><text xml:space="preserve" font-family="Helvetica-Light" font-size="47.0" fill="#000000" transform="matrix(1.00, 0.00, -0.00, -1.00, 959.3, 297.0)">r</text><text xml:space="preserve" font-family="Helvetica-Light" font-size="47.0" fill="#000000" transform="matrix(1.00, 0.00, -0.00, -1.00, 974.1, 297.0)">c</text><text xml:space="preserve" font-family="Helvetica-Light" font-size="47.0" fill="#000000" transform="matrix(1.00, 0.00, -0.00, -1.00, 1000.2, 297.0)">e</text><text xml:space="preserve" font-family="Helvetica-Light" font-size="47.0" fill="#000000" transform="matrix(1.00, 0.00, -0.00, -1.00, 1026.4, 297.0)">s</text><text xml:space="preserve" font-family="Helvetica-Light" font-size="47.0" fill="#000000" transform="matrix(1.00, 0.00, -0.00, -1.00, 1049.9, 297.0)"> </text><text xml:space="preserve" font-family="Helvetica-Light" font-size="35.2" fill="#000000" transform="matrix(1.00, 0.00, -0.00, -1.00, 0.2, 188.5)">•</text><text xml:space="preserve" font-family="Helvetica-Light" font-size="47.0" fill="#000000" transform="matrix(1.00, 0.00, -0.00, -1.00, 46.0, 185.0)">G</text><text xml:space="preserve" font-family="Helvetica-Light" font-size="47.0" fill="#000000" transform="matrix(1.00, 0.00, -0.00, -1.00, 82.6, 185.0)">l</text><text xml:space="preserve" font-family="Helvetica-Light" font-size="47.0" fill="#000000" transform="matrix(1.00, 0.00, -0.00, -1.00, 93.0, 185.0)">o</text><text xml:space="preserve" font-family="Helvetica-Light" font-size="47.0" fill="#000000" transform="matrix(1.00, 0.00, -0.00, -1.00, 119.1, 185.0)">b</text><text xml:space="preserve" font-family="Helvetica-Light" font-size="47.0" fill="#000000" transform="matrix(1.00, 0.00, -0.00, -1.00, 147.8, 185.0)">a</text><text xml:space="preserve" font-family="Helvetica-Light" font-size="47.0" fill="#000000" transform="matrix(1.00, 0.00, -0.00, -1.00, 174.0, 185.0)">l</text><text xml:space="preserve" font-family="Helvetica-Light" font-size="47.0" fill="#000000" transform="matrix(1.00, 0.00, -0.00, -1.00, 184.4, 185.0)"> </text><text xml:space="preserve" font-family="Helvetica-Light" font-size="47.0" fill="#000000" transform="matrix(1.00, 0.00, -0.00, -1.00, 197.5, 185.0)">c</text><text xml:space="preserve" font-family="Helvetica-Light" font-size="47.0" fill="#000000" transform="matrix(1.00, 0.00, -0.00, -1.00, 223.6, 185.0)">o</text><text xml:space="preserve" font-family="Helvetica-Light" font-size="47.0" fill="#000000" transform="matrix(1.00, 0.00, -0.00, -1.00, 249.7, 185.0)">n</text><text xml:space="preserve" font-family="Helvetica-Light" font-size="47.0" fill="#000000" transform="matrix(1.00, 0.00, -0.00, -1.00, 275.9, 185.0)">ﬁ</text><text xml:space="preserve" font-family="Helvetica-Light" font-size="47.0" fill="#000000" transform="matrix(1.00, 0.00, -0.00, -1.00, 299.4, 185.0)">g</text><text xml:space="preserve" font-family="Helvetica-Light" font-size="47.0" fill="#000000" transform="matrix(1.00, 0.00, -0.00, -1.00, 328.1, 185.0)">u</text><text xml:space="preserve" font-family="Helvetica-Light" font-size="47.0" fill="#000000" transform="matrix(1.00, 0.00, -0.00, -1.00, 354.2, 185.0)">r</text><text xml:space="preserve" font-family="Helvetica-Light" font-size="47.0" fill="#000000" transform="matrix(1.00, 0.00, -0.00, -1.00, 369.9, 185.0)">a</text><text xml:space="preserve" font-family="Helvetica-Light" font-size="47.0" fill="#000000" transform="matrix(1.00, 0.00, -0.00, -1.00, 396.0, 185.0)">t</text><text xml:space="preserve" font-family="Helvetica-Light" font-size="47.0" fill="#000000" transform="matrix(1.00, 0.00, -0.00, -1.00, 409.1, 185.0)">i</text><text xml:space="preserve" font-family="Helvetica-Light" font-size="47.0" fill="#000000" transform="matrix(1.00, 0.00, -0.00, -1.00, 419.5, 185.0)">o</text><text xml:space="preserve" font-family="Helvetica-Light" font-size="47.0" fill="#000000" transform="matrix(1.00, 0.00, -0.00, -1.00, 445.6, 185.0)">n</text><text xml:space="preserve" font-family="Helvetica-Light" font-size="47.0" fill="#000000" transform="matrix(1.00, 0.00, -0.00, -1.00, 471.8, 185.0)"> </text><text xml:space="preserve" font-family="Helvetica-Light" font-size="47.0" fill="#000000" transform="matrix(1.00, 0.00, -0.00, -1.00, 484.8, 185.0)">i</text><text xml:space="preserve" font-family="Helvetica-Light" font-size="47.0" fill="#000000" transform="matrix(1.00, 0.00, -0.00, -1.00, 495.3, 185.0)">n</text><text xml:space="preserve" font-family="Helvetica-Light" font-size="47.0" fill="#000000" transform="matrix(1.00, 0.00, -0.00, -1.00, 521.4, 185.0)"> </text><text xml:space="preserve" font-family="SourceCodePro-Regular" font-size="47.0" fill="#000000" transform="matrix(1.00, 0.00, -0.00, -1.00, 534.5, 185.0)">/</text><text xml:space="preserve" font-family="SourceCodePro-Regular" font-size="47.0" fill="#000000" transform="matrix(1.00, 0.00, -0.00, -1.00, 562.7, 185.0)">e</text><text xml:space="preserve" font-family="SourceCodePro-Regular" font-size="47.0" fill="#000000" transform="matrix(1.00, 0.00, -0.00, -1.00, 590.9, 185.0)">t</text><text xml:space="preserve" font-family="SourceCodePro-Regular" font-size="47.0" fill="#000000" transform="matrix(1.00, 0.00, -0.00, -1.00, 619.1, 185.0)">c</text><text xml:space="preserve" font-family="SourceCodePro-Regular" font-size="47.0" fill="#000000" transform="matrix(1.00, 0.00, -0.00, -1.00, 647.3, 185.0)">/</text><text xml:space="preserve" font-family="SourceCodePro-Regular" font-size="47.0" fill="#000000" transform="matrix(1.00, 0.00, -0.00, -1.00, 675.5, 185.0)">j</text><text xml:space="preserve" font-family="SourceCodePro-Regular" font-size="47.0" fill="#000000" transform="matrix(1.00, 0.00, -0.00, -1.00, 703.7, 185.0)">u</text><text xml:space="preserve" font-family="SourceCodePro-Regular" font-size="47.0" fill="#000000" transform="matrix(1.00, 0.00, -0.00, -1.00, 731.9, 185.0)">p</text><text xml:space="preserve" font-family="SourceCodePro-Regular" font-size="47.0" fill="#000000" transform="matrix(1.00, 0.00, -0.00, -1.00, 760.1, 185.0)">y</text><text xml:space="preserve" font-family="SourceCodePro-Regular" font-size="47.0" fill="#000000" transform="matrix(1.00, 0.00, -0.00, -1.00, 788.3, 185.0)">t</text><text xml:space="preserve" font-family="SourceCodePro-Regular" font-size="47.0" fill="#000000" transform="matrix(1.00, 0.00, -0.00, -1.00, 816.5, 185.0)">e</text><text xml:space="preserve" font-family="SourceCodePro-Regular" font-size="47.0" fill="#000000" transform="matrix(1.00, 0.00, -0.00, -1.00, 844.7, 185.0)">r</text><text xml:space="preserve" font-family="Helvetica-Light" font-size="47.0" fill="#000000" transform="matrix(1.00, 0.00, -0.00, -1.00, 872.9, 185.0)"> </text><text xml:space="preserve" font-family="Helvetica-Light" font-size="47.0" fill="#000000" transform="matrix(1.00, 0.00, -0.00, -1.00, 885.9, 185.0)">a</text><text xml:space="preserve" font-family="Helvetica-Light" font-size="47.0" fill="#000000" transform="matrix(1.00, 0.00, -0.00, -1.00, 912.1, 185.0)">n</text><text xml:space="preserve" font-family="Helvetica-Light" font-size="47.0" fill="#000000" transform="matrix(1.00, 0.00, -0.00, -1.00, 938.2, 185.0)">d</text><text xml:space="preserve" font-family="Helvetica-Light" font-size="47.0" fill="#000000" transform="matrix(1.00, 0.00, -0.00, -1.00, 966.9, 185.0)"> </text><text xml:space="preserve" font-family="SourceCodePro-Regular" font-size="47.0" fill="#000000" transform="matrix(1.00, 0.00, -0.00, -1.00, 980.0, 185.0)">/</text><text xml:space="preserve" font-family="SourceCodePro-Regular" font-size="47.0" fill="#000000" transform="matrix(1.00, 0.00, -0.00, -1.00, 1008.2, 185.0)">e</text><text xml:space="preserve" font-family="SourceCodePro-Regular" font-size="47.0" fill="#000000" transform="matrix(1.00, 0.00, -0.00, -1.00, 1036.4, 185.0)">t</text><text xml:space="preserve" font-family="SourceCodePro-Regular" font-size="47.0" fill="#000000" transform="matrix(1.00, 0.00, -0.00, -1.00, 1064.6, 185.0)">c</text><text xml:space="preserve" font-family="SourceCodePro-Regular" font-size="47.0" fill="#000000" transform="matrix(1.00, 0.00, -0.00, -1.00, 1092.8, 185.0)">/</text><text xml:space="preserve" font-family="SourceCodePro-Regular" font-size="47.0" fill="#000000" transform="matrix(1.00, 0.00, -0.00, -1.00, 46.0, 126.0)">i</text><text xml:space="preserve" font-family="SourceCodePro-Regular" font-size="47.0" fill="#000000" transform="matrix(1.00, 0.00, -0.00, -1.00, 74.2, 126.0)">p</text><text xml:space="preserve" font-family="SourceCodePro-Regular" font-size="47.0" fill="#000000" transform="matrix(1.00, 0.00, -0.00, -1.00, 102.4, 126.0)">y</text><text xml:space="preserve" font-family="SourceCodePro-Regular" font-size="47.0" fill="#000000" transform="matrix(1.00, 0.00, -0.00, -1.00, 130.6, 126.0)">t</text><text xml:space="preserve" font-family="SourceCodePro-Regular" font-size="47.0" fill="#000000" transform="matrix(1.00, 0.00, -0.00, -1.00, 158.8, 126.0)">h</text><text xml:space="preserve" font-family="SourceCodePro-Regular" font-size="47.0" fill="#000000" transform="matrix(1.00, 0.00, -0.00, -1.00, 187.0, 126.0)">o</text><text xml:space="preserve" font-family="SourceCodePro-Regular" font-size="47.0" fill="#000000" transform="matrix(1.00, 0.00, -0.00, -1.00, 215.2, 126.0)">n</text><text xml:space="preserve" font-family="Helvetica-Light" font-size="47.0" fill="#000000" transform="matrix(1.00, 0.00, -0.00, -1.00, 243.4, 126.0)"> </text><text xml:space="preserve" font-family="Helvetica-Bold" font-weight="bold" font-size="35.2" fill="#000000" transform="matrix(1.00, 0.00, -0.00, -1.00, 0.2, 16.5)">•</text><text xml:space="preserve" font-family="Helvetica-Bold" font-weight="bold" font-size="47.0" fill="#000000" transform="matrix(1.00, 0.00, -0.00, -1.00, 46.0, 12.0)">B</text><text xml:space="preserve" font-family="Helvetica-Bold" font-weight="bold" font-size="47.0" fill="#000000" transform="matrix(1.00, 0.00, -0.00, -1.00, 80.0, 12.0)">a</text><text xml:space="preserve" font-family="Helvetica-Bold" font-weight="bold" font-size="47.0" fill="#000000" transform="matrix(1.00, 0.00, -0.00, -1.00, 106.1, 12.0)">c</text><text xml:space="preserve" font-family="Helvetica-Bold" font-weight="bold" font-size="47.0" fill="#000000" transform="matrix(1.00, 0.00, -0.00, -1.00, 132.2, 12.0)">k</text><text xml:space="preserve" font-family="Helvetica-Bold" font-weight="bold" font-size="47.0" fill="#000000" transform="matrix(1.00, 0.00, -0.00, -1.00, 158.4, 12.0)"> </text><text xml:space="preserve" font-family="Helvetica-Bold" font-weight="bold" font-size="47.0" fill="#000000" transform="matrix(1.00, 0.00, -0.00, -1.00, 171.4, 12.0)">u</text><text xml:space="preserve" font-family="Helvetica-Bold" font-weight="bold" font-size="47.0" fill="#000000" transform="matrix(1.00, 0.00, -0.00, -1.00, 200.1, 12.0)">p</text><text xml:space="preserve" font-family="Helvetica-Bold" font-weight="bold" font-size="47.0" fill="#000000" transform="matrix(1.00, 0.00, -0.00, -1.00, 228.8, 12.0)"> </text><text xml:space="preserve" font-family="Helvetica-Bold" font-weight="bold" font-size="47.0" fill="#000000" transform="matrix(1.00, 0.00, -0.00, -1.00, 241.9, 12.0)">y</text><text xml:space="preserve" font-family="Helvetica-Bold" font-weight="bold" font-size="47.0" fill="#000000" transform="matrix(1.00, 0.00, -0.00, -1.00, 268.0, 12.0)">o</text><text xml:space="preserve" font-family="Helvetica-Bold" font-weight="bold" font-size="47.0" fill="#000000" transform="matrix(1.00, 0.00, -0.00, -1.00, 296.7, 12.0)">u</text><text xml:space="preserve" font-family="Helvetica-Bold" font-weight="bold" font-size="47.0" fill="#000000" transform="matrix(1.00, 0.00, -0.00, -1.00, 325.4, 12.0)">r</text><text xml:space="preserve" font-family="Helvetica-Bold" font-weight="bold" font-size="47.0" fill="#000000" transform="matrix(1.00, 0.00, -0.00, -1.00, 343.7, 12.0)"> </text><text xml:space="preserve" font-family="Helvetica-Bold" font-weight="bold" font-size="47.0" fill="#000000" transform="matrix(1.00, 0.00, -0.00, -1.00, 356.8, 12.0)">u</text><text xml:space="preserve" font-family="Helvetica-Bold" font-weight="bold" font-size="47.0" fill="#000000" transform="matrix(1.00, 0.00, -0.00, -1.00, 385.5, 12.0)">s</text><text xml:space="preserve" font-family="Helvetica-Bold" font-weight="bold" font-size="47.0" fill="#000000" transform="matrix(1.00, 0.00, -0.00, -1.00, 411.6, 12.0)">e</text><text xml:space="preserve" font-family="Helvetica-Bold" font-weight="bold" font-size="47.0" fill="#000000" transform="matrix(1.00, 0.00, -0.00, -1.00, 437.8, 12.0)">r</text><text xml:space="preserve" font-family="Helvetica-Bold" font-weight="bold" font-size="47.0" fill="#000000" transform="matrix(1.00, 0.00, -0.00, -1.00, 456.1, 12.0)"> </text><text xml:space="preserve" font-family="Helvetica-Bold" font-weight="bold" font-size="47.0" fill="#000000" transform="matrix(1.00, 0.00, -0.00, -1.00, 469.1, 12.0)">d</text><text xml:space="preserve" font-family="Helvetica-Bold" font-weight="bold" font-size="47.0" fill="#000000" transform="matrix(1.00, 0.00, -0.00, -1.00, 497.8, 12.0)">a</text><text xml:space="preserve" font-family="Helvetica-Bold" font-weight="bold" font-size="47.0" fill="#000000" transform="matrix(1.00, 0.00, -0.00, -1.00, 524.0, 12.0)">t</text><text xml:space="preserve" font-family="Helvetica-Bold" font-weight="bold" font-size="47.0" fill="#000000" transform="matrix(1.00, 0.00, -0.00, -1.00, 539.6, 12.0)">a</text><text xml:space="preserve" font-family="Helvetica-Bold" font-weight="bold" font-size="47.0" fill="#000000" transform="matrix(1.00, 0.00, -0.00, -1.00, 565.8, 12.0)">!</text><text xml:space="preserve" font-family="Helvetica-Bold" font-weight="bold" font-size="47.0" fill="#000000" transform="matrix(1.00, 0.00, -0.00, -1.00, 581.4, 12.0)">!</text><text xml:space="preserve" font-family="Helvetica-Bold" font-weight="bold" font-size="47.0" fill="#000000" transform="matrix(1.00, 0.00, -0.00, -1.00, 597.1, 12.0)">!</text></g></svg>