<?xml version="1.0" encoding="UTF-8" standalone="no"?><svg xmlns="http://www.w3.org/2000/svg" xmlns:xlink="http://www.w3.org/1999/xlink" clip-rule="evenodd" stroke-miterlimit="4.00" viewBox="0 0 1307 58"><desc>SVG generated by Keynote</desc><defs></defs><g transform="matrix(1.00, 0.00, -0.00, -1.00, 0.0, 58.0)"><text xml:space="preserve" font-family="Helvetica-Light" font-size="35.2" fill="#000000" transform="matrix(1.00, 0.00, -0.00, -1.00, 0.9, 16.5)">•</text><text xml:space="preserve" font-family="Helvetica-Light" font-size="47.0" fill="#000000" transform="matrix(1.00, 0.00, -0.00, -1.00, 47.0, 12.0)">D</text><text xml:space="preserve" font-family="Helvetica-Light" font-size="47.0" fill="#000000" transform="matrix(1.00, 0.00, -0.00, -1.00, 80.9, 12.0)">o</text><text xml:space="preserve" font-family="Helvetica-Light" font-size="47.0" fill="#000000" transform="matrix(1.00, 0.00, -0.00, -1.00, 107.1, 12.0)">c</text><text xml:space="preserve" font-family="Helvetica-Light" font-size="47.0" fill="#000000" transform="matrix(1.00, 0.00, -0.00, -1.00, 133.2, 12.0)">k</text><text xml:space="preserve" font-family="Helvetica-Light" font-size="47.0" fill="#000000" transform="matrix(1.00, 0.00, -0.00, -1.00, 156.7, 12.0)">e</text><text xml:space="preserve" font-family="Helvetica-Light" font-size="47.0" fill="#000000" transform="matrix(1.00, 0.00, -0.00, -1.00, 182.8, 12.0)">r</text><text xml:space="preserve" font-family="Helvetica-Light" font-size="47.0" fill="#000000" transform="matrix(1.00, 0.00, -0.00, -1.00, 198.5, 12.0)"> </text><text xml:space="preserve" font-family="Helvetica-Light" font-size="47.0" fill="#000000" transform="matrix(1.00, 0.00, -0.00, -1.00, 211.5, 12.0)">C</text><text xml:space="preserve" font-family="Helvetica-Light" font-size="47.0" fill="#000000" transform="matrix(1.00, 0.00, -0.00, -1.00, 245.5, 12.0)">o</text><text xml:space="preserve" font-family="Helvetica-Light" font-size="47.0" fill="#000000" transform="matrix(1.00, 0.00, -0.00, -1.00, 271.6, 12.0)">m</text><text xml:space="preserve" font-family="Helvetica-Light" font-size="47.0" fill="#000000" transform="matrix(1.00, 0.00, -0.00, -1.00, 310.8, 12.0)">p</text><text xml:space="preserve" font-family="Helvetica-Light" font-size="47.0" fill="#000000" transform="matrix(1.00, 0.00, -0.00, -1.00, 339.5, 12.0)">o</text><text xml:space="preserve" font-family="Helvetica-Light" font-size="47.0" fill="#000000" transform="matrix(1.00, 0.00, -0.00, -1.00, 365.6, 12.0)">s</text><text xml:space="preserve" font-family="Helvetica-Light" font-size="47.0" fill="#000000" transform="matrix(1.00, 0.00, -0.00, -1.00, 389.1, 12.0)">e</text><text xml:space="preserve" font-family="Helvetica-Light" font-size="47.0" fill="#000000" transform="matrix(1.00, 0.00, -0.00, -1.00, 415.2, 12.0)">:</text><text xml:space="preserve" font-family="Helvetica-Light" font-size="47.0" fill="#000000" transform="matrix(1.00, 0.00, -0.00, -1.00, 428.3, 12.0)"> </text><text xml:space="preserve" font-family="Helvetica-Light" font-size="47.0" fill="#000000" transform="matrix(1.00, 0.00, -0.00, -1.00, 441.4, 12.0)">h</text><text xml:space="preserve" font-family="Helvetica-Light" font-size="47.0" fill="#000000" transform="matrix(1.00, 0.00, -0.00, -1.00, 467.5, 12.0)">t</text><text xml:space="preserve" font-family="Helvetica-Light" font-size="47.0" fill="#000000" transform="matrix(1.00, 0.00, -0.00, -1.00, 480.6, 12.0)">t</text><text xml:space="preserve" font-family="Helvetica-Light" font-size="47.0" fill="#000000" transform="matrix(1.00, 0.00, -0.00, -1.00, 493.6, 12.0)">p</text><text xml:space="preserve" font-family="Helvetica-Light" font-size="47.0" fill="#000000" transform="matrix(1.00, 0.00, -0.00, -1.00, 522.4, 12.0)">s</text><text xml:space="preserve" font-family="Helvetica-Light" font-size="47.0" fill="#000000" transform="matrix(1.00, 0.00, -0.00, -1.00, 545.9, 12.0)">:</text><text xml:space="preserve" font-family="Helvetica-Light" font-size="47.0" fill="#000000" transform="matrix(1.00, 0.00, -0.00, -1.00, 558.9, 12.0)">/</text><text xml:space="preserve" font-family="Helvetica-Light" font-size="47.0" fill="#000000" transform="matrix(1.00, 0.00, -0.00, -1.00, 572.0, 12.0)">/</text><text xml:space="preserve" font-family="Helvetica-Light" font-size="47.0" fill="#000000" transform="matrix(1.00, 0.00, -0.00, -1.00, 585.1, 12.0)">d</text><text xml:space="preserve" font-family="Helvetica-Light" font-size="47.0" fill="#000000" transform="matrix(1.00, 0.00, -0.00, -1.00, 613.8, 12.0)">o</text><text xml:space="preserve" font-family="Helvetica-Light" font-size="47.0" fill="#000000" transform="matrix(1.00, 0.00, -0.00, -1.00, 639.9, 12.0)">c</text><text xml:space="preserve" font-family="Helvetica-Light" font-size="47.0" fill="#000000" transform="matrix(1.00, 0.00, -0.00, -1.00, 666.0, 12.0)">s</text><text xml:space="preserve" font-family="Helvetica-Light" font-size="47.0" fill="#000000" transform="matrix(1.00, 0.00, -0.00, -1.00, 689.5, 12.0)">.</text><text xml:space="preserve" font-family="Helvetica-Light" font-size="47.0" fill="#000000" transform="matrix(1.00, 0.00, -0.00, -1.00, 702.6, 12.0)">d</text><text xml:space="preserve" font-family="Helvetica-Light" font-size="47.0" fill="#000000" transform="matrix(1.00, 0.00, -0.00, -1.00, 731.3, 12.0)">o</text><text xml:space="preserve" font-family="Helvetica-Light" font-size="47.0" fill="#000000" transform="matrix(1.00, 0.00, -0.00, -1.00, 757.5, 12.0)">c</text><text xml:space="preserve" font-family="Helvetica-Light" font-size="47.0" fill="#000000" transform="matrix(1.00, 0.00, -0.00, -1.00, 783.6, 12.0)">k</text><text xml:space="preserve" font-family="Helvetica-Light" font-size="47.0" fill="#000000" transform="matrix(1.00, 0.00, -0.00, -1.00, 807.1, 12.0)">e</text><text xml:space="preserve" font-family="Helvetica-Light" font-size="47.0" fill="#000000" transform="matrix(1.00, 0.00, -0.00, -1.00, 833.2, 12.0)">r</text><text xml:space="preserve" font-family="Helvetica-Light" font-size="47.0" fill="#000000" transform="matrix(1.00, 0.00, -0.00, -1.00, 844.5, 12.0)">.</text><text xml:space="preserve" font-family="Helvetica-Light" font-size="47.0" fill="#000000" transform="matrix(1.00, 0.00, -0.00, -1.00, 857.6, 12.0)">c</text><text xml:space="preserve" font-family="Helvetica-Light" font-size="47.0" fill="#000000" transform="matrix(1.00, 0.00, -0.00, -1.00, 883.7, 12.0)">o</text><text xml:space="preserve" font-family="Helvetica-Light" font-size="47.0" fill="#000000" transform="matrix(1.00, 0.00, -0.00, -1.00, 909.9, 12.0)">m</text><text xml:space="preserve" font-family="Helvetica-Light" font-size="47.0" fill="#000000" transform="matrix(1.00, 0.00, -0.00, -1.00, 949.0, 12.0)">/</text><text xml:space="preserve" font-family="Helvetica-Light" font-size="47.0" fill="#000000" transform="matrix(1.00, 0.00, -0.00, -1.00, 962.1, 12.0)">c</text><text xml:space="preserve" font-family="Helvetica-Light" font-size="47.0" fill="#000000" transform="matrix(1.00, 0.00, -0.00, -1.00, 988.2, 12.0)">o</text><text xml:space="preserve" font-family="Helvetica-Light" font-size="47.0" fill="#000000" transform="matrix(1.00, 0.00, -0.00, -1.00, 1014.4, 12.0)">m</text><text xml:space="preserve" font-family="Helvetica-Light" font-size="47.0" fill="#000000" transform="matrix(1.00, 0.00, -0.00, -1.00, 1053.5, 12.0)">p</text><text xml:space="preserve" font-family="Helvetica-Light" font-size="47.0" fill="#000000" transform="matrix(1.00, 0.00, -0.00, -1.00, 1082.2, 12.0)">o</text><text xml:space="preserve" font-family="Helvetica-Light" font-size="47.0" fill="#000000" transform="matrix(1.00, 0.00, -0.00, -1.00, 1108.4, 12.0)">s</text><text xml:space="preserve" font-family="Helvetica-Light" font-size="47.0" fill="#000000" transform="matrix(1.00, 0.00, -0.00, -1.00, 1131.9, 12.0)">e</text><text xml:space="preserve" font-family="Helvetica-Light" font-size="47.0" fill="#000000" transform="matrix(1.00, 0.00, -0.00, -1.00, 1158.0, 12.0)">/</text><text xml:space="preserve" font-family="Helvetica-Light" font-size="47.0" fill="#000000" transform="matrix(1.00, 0.00, -0.00, -1.00, 1171.1, 12.0)">i</text><text xml:space="preserve" font-family="Helvetica-Light" font-size="47.0" fill="#000000" transform="matrix(1.00, 0.00, -0.00, -1.00, 1181.5, 12.0)">n</text><text xml:space="preserve" font-family="Helvetica-Light" font-size="47.0" fill="#000000" transform="matrix(1.00, 0.00, -0.00, -1.00, 1207.6, 12.0)">s</text><text xml:space="preserve" font-family="Helvetica-Light" font-size="47.0" fill="#000000" transform="matrix(1.00, 0.00, -0.00, -1.00, 1231.1, 12.0)">t</text><text xml:space="preserve" font-family="Helvetica-Light" font-size="47.0" fill="#000000" transform="matrix(1.00, 0.00, -0.00, -1.00, 1244.2, 12.0)">a</text><text xml:space="preserve" font-family="Helvetica-Light" font-size="47.0" fill="#000000" transform="matrix(1.00, 0.00, -0.00, -1.00, 1270.3, 12.0)">l</text><text xml:space="preserve" font-family="Helvetica-Light" font-size="47.0" fill="#000000" transform="matrix(1.00, 0.00, -0.00, -1.00, 1280.7, 12.0)">l</text><text xml:space="preserve" font-family="Helvetica-Light" font-size="47.0" fill="#000000" transform="matrix(1.00, 0.00, -0.00, -1.00, 1291.2, 12.0)">/</text><g><clipPath id="clip-960"><path d="M 440.0 6.5 L 1303.8 6.5 L 1303.8 10.8 L 440.0 10.8 Z M 440.0 6.5 "></path></clipPath><g clip-path="url(#clip-960)"><path d="M 445.7 57.3 L 1308.6 57.3 " fill="none" stroke="#000000" stroke-width="2.35" stroke-miterlimit="0.00" transform="matrix(1.00, 0.00, 0.00, -1.00, -4.7, 66.0)"></path></g></g></g></svg>