<?xml version="1.0" encoding="UTF-8" standalone="no"?><svg xmlns="http://www.w3.org/2000/svg" xmlns:xlink="http://www.w3.org/1999/xlink" clip-rule="evenodd" stroke-miterlimit="4.00" viewBox="0 0 1378 106"><desc>SVG generated by Keynote</desc><defs></defs><g transform="matrix(1.00, 0.00, -0.00, -1.00, 0.0, 106.0)"><text xml:space="preserve" font-family="Helvetica-Light" font-size="35.2" fill="#000000" transform="matrix(1.00, 0.00, -0.00, -1.00, 0.9, 73.9)">•</text><text xml:space="preserve" font-family="Helvetica-Light" font-size="47.0" fill="#000000" transform="matrix(1.00, 0.00, -0.00, -1.00, 47.0, 70.0)">C</text><text xml:space="preserve" font-family="Helvetica-Light" font-size="47.0" fill="#000000" transform="matrix(1.00, 0.00, -0.00, -1.00, 80.9, 70.0)">r</text><text xml:space="preserve" font-family="Helvetica-Light" font-size="47.0" fill="#000000" transform="matrix(1.00, 0.00, -0.00, -1.00, 95.7, 70.0)">e</text><text xml:space="preserve" font-family="Helvetica-Light" font-size="47.0" fill="#000000" transform="matrix(1.00, 0.00, -0.00, -1.00, 121.9, 70.0)">a</text><text xml:space="preserve" font-family="Helvetica-Light" font-size="47.0" fill="#000000" transform="matrix(1.00, 0.00, -0.00, -1.00, 148.0, 70.0)">t</text><text xml:space="preserve" font-family="Helvetica-Light" font-size="47.0" fill="#000000" transform="matrix(1.00, 0.00, -0.00, -1.00, 161.1, 70.0)">e</text><text xml:space="preserve" font-family="Helvetica-Light" font-size="47.0" fill="#000000" transform="matrix(1.00, 0.00, -0.00, -1.00, 187.2, 70.0)"> </text><text xml:space="preserve" font-family="Helvetica-Light" font-size="47.0" fill="#000000" transform="matrix(1.00, 0.00, -0.00, -1.00, 200.3, 70.0)">a</text><text xml:space="preserve" font-family="Helvetica-Light" font-size="47.0" fill="#000000" transform="matrix(1.00, 0.00, -0.00, -1.00, 226.4, 70.0)"> </text><text xml:space="preserve" font-family="Helvetica-Light" font-size="47.0" fill="#000000" transform="matrix(1.00, 0.00, -0.00, -1.00, 239.5, 70.0)">v</text><text xml:space="preserve" font-family="Helvetica-Light" font-size="47.0" fill="#000000" transform="matrix(1.00, 0.00, -0.00, -1.00, 263.0, 70.0)">o</text><text xml:space="preserve" font-family="Helvetica-Light" font-size="47.0" fill="#000000" transform="matrix(1.00, 0.00, -0.00, -1.00, 289.1, 70.0)">l</text><text xml:space="preserve" font-family="Helvetica-Light" font-size="47.0" fill="#000000" transform="matrix(1.00, 0.00, -0.00, -1.00, 299.5, 70.0)">u</text><text xml:space="preserve" font-family="Helvetica-Light" font-size="47.0" fill="#000000" transform="matrix(1.00, 0.00, -0.00, -1.00, 325.7, 70.0)">m</text><text xml:space="preserve" font-family="Helvetica-Light" font-size="47.0" fill="#000000" transform="matrix(1.00, 0.00, -0.00, -1.00, 364.8, 70.0)">e</text><text xml:space="preserve" font-family="Helvetica-Light" font-size="47.0" fill="#000000" transform="matrix(1.00, 0.00, -0.00, -1.00, 390.9, 70.0)"> </text><text xml:space="preserve" font-family="Helvetica-Light" font-size="47.0" fill="#000000" transform="matrix(1.00, 0.00, -0.00, -1.00, 404.0, 70.0)">f</text><text xml:space="preserve" font-family="Helvetica-Light" font-size="47.0" fill="#000000" transform="matrix(1.00, 0.00, -0.00, -1.00, 417.1, 70.0)">o</text><text xml:space="preserve" font-family="Helvetica-Light" font-size="47.0" fill="#000000" transform="matrix(1.00, 0.00, -0.00, -1.00, 443.2, 70.0)">r</text><text xml:space="preserve" font-family="Helvetica-Light" font-size="47.0" fill="#000000" transform="matrix(1.00, 0.00, -0.00, -1.00, 458.9, 70.0)"> </text><text xml:space="preserve" font-family="Helvetica-Light" font-size="47.0" fill="#000000" transform="matrix(1.00, 0.00, -0.00, -1.00, 471.9, 70.0)">s</text><text xml:space="preserve" font-family="Helvetica-Light" font-size="47.0" fill="#000000" transform="matrix(1.00, 0.00, -0.00, -1.00, 495.4, 70.0)">e</text><text xml:space="preserve" font-family="Helvetica-Light" font-size="47.0" fill="#000000" transform="matrix(1.00, 0.00, -0.00, -1.00, 521.6, 70.0)">c</text><text xml:space="preserve" font-family="Helvetica-Light" font-size="47.0" fill="#000000" transform="matrix(1.00, 0.00, -0.00, -1.00, 547.7, 70.0)">r</text><text xml:space="preserve" font-family="Helvetica-Light" font-size="47.0" fill="#000000" transform="matrix(1.00, 0.00, -0.00, -1.00, 562.5, 70.0)">e</text><text xml:space="preserve" font-family="Helvetica-Light" font-size="47.0" fill="#000000" transform="matrix(1.00, 0.00, -0.00, -1.00, 588.6, 70.0)">t</text><text xml:space="preserve" font-family="Helvetica-Light" font-size="47.0" fill="#000000" transform="matrix(1.00, 0.00, -0.00, -1.00, 601.7, 70.0)">s</text><text xml:space="preserve" font-family="Helvetica-Light" font-size="47.0" fill="#000000" transform="matrix(1.00, 0.00, -0.00, -1.00, 625.2, 70.0)">:</text><text xml:space="preserve" font-family="Helvetica-Light" font-size="47.0" fill="#000000" transform="matrix(1.00, 0.00, -0.00, -1.00, 638.3, 70.0)"> </text><text xml:space="preserve" font-family="SourceCodePro-Regular" font-size="47.0" fill="#000000" transform="matrix(1.00, 0.00, -0.00, -1.00, 82.0, 13.0)">d</text><text xml:space="preserve" font-family="SourceCodePro-Regular" font-size="47.0" fill="#000000" transform="matrix(1.00, 0.00, -0.00, -1.00, 110.2, 13.0)">o</text><text xml:space="preserve" font-family="SourceCodePro-Regular" font-size="47.0" fill="#000000" transform="matrix(1.00, 0.00, -0.00, -1.00, 138.4, 13.0)">c</text><text xml:space="preserve" font-family="SourceCodePro-Regular" font-size="47.0" fill="#000000" transform="matrix(1.00, 0.00, -0.00, -1.00, 166.6, 13.0)">k</text><text xml:space="preserve" font-family="SourceCodePro-Regular" font-size="47.0" fill="#000000" transform="matrix(1.00, 0.00, -0.00, -1.00, 194.8, 13.0)">e</text><text xml:space="preserve" font-family="SourceCodePro-Regular" font-size="47.0" fill="#000000" transform="matrix(1.00, 0.00, -0.00, -1.00, 223.0, 13.0)">r</text><text xml:space="preserve" font-family="SourceCodePro-Regular" font-size="47.0" fill="#000000" transform="matrix(1.00, 0.00, -0.00, -1.00, 251.2, 13.0)"> </text><text xml:space="preserve" font-family="SourceCodePro-Regular" font-size="47.0" fill="#000000" transform="matrix(1.00, 0.00, -0.00, -1.00, 279.4, 13.0)">v</text><text xml:space="preserve" font-family="SourceCodePro-Regular" font-size="47.0" fill="#000000" transform="matrix(1.00, 0.00, -0.00, -1.00, 307.6, 13.0)">o</text><text xml:space="preserve" font-family="SourceCodePro-Regular" font-size="47.0" fill="#000000" transform="matrix(1.00, 0.00, -0.00, -1.00, 335.8, 13.0)">l</text><text xml:space="preserve" font-family="SourceCodePro-Regular" font-size="47.0" fill="#000000" transform="matrix(1.00, 0.00, -0.00, -1.00, 364.0, 13.0)">u</text><text xml:space="preserve" font-family="SourceCodePro-Regular" font-size="47.0" fill="#000000" transform="matrix(1.00, 0.00, -0.00, -1.00, 392.2, 13.0)">m</text><text xml:space="preserve" font-family="SourceCodePro-Regular" font-size="47.0" fill="#000000" transform="matrix(1.00, 0.00, -0.00, -1.00, 420.4, 13.0)">e</text><text xml:space="preserve" font-family="SourceCodePro-Regular" font-size="47.0" fill="#000000" transform="matrix(1.00, 0.00, -0.00, -1.00, 448.6, 13.0)"> </text><text xml:space="preserve" font-family="SourceCodePro-Regular" font-size="47.0" fill="#000000" transform="matrix(1.00, 0.00, -0.00, -1.00, 476.8, 13.0)">c</text><text xml:space="preserve" font-family="SourceCodePro-Regular" font-size="47.0" fill="#000000" transform="matrix(1.00, 0.00, -0.00, -1.00, 505.0, 13.0)">r</text><text xml:space="preserve" font-family="SourceCodePro-Regular" font-size="47.0" fill="#000000" transform="matrix(1.00, 0.00, -0.00, -1.00, 533.2, 13.0)">e</text><text xml:space="preserve" font-family="SourceCodePro-Regular" font-size="47.0" fill="#000000" transform="matrix(1.00, 0.00, -0.00, -1.00, 561.4, 13.0)">a</text><text xml:space="preserve" font-family="SourceCodePro-Regular" font-size="47.0" fill="#000000" transform="matrix(1.00, 0.00, -0.00, -1.00, 589.6, 13.0)">t</text><text xml:space="preserve" font-family="SourceCodePro-Regular" font-size="47.0" fill="#000000" transform="matrix(1.00, 0.00, -0.00, -1.00, 617.8, 13.0)">e</text><text xml:space="preserve" font-family="SourceCodePro-Regular" font-size="47.0" fill="#000000" transform="matrix(1.00, 0.00, -0.00, -1.00, 646.0, 13.0)"> </text><text xml:space="preserve" font-family="SourceCodePro-Regular" font-size="47.0" fill="#000000" transform="matrix(1.00, 0.00, -0.00, -1.00, 674.2, 13.0)">-</text><text xml:space="preserve" font-family="SourceCodePro-Regular" font-size="47.0" fill="#000000" transform="matrix(1.00, 0.00, -0.00, -1.00, 702.4, 13.0)">-</text><text xml:space="preserve" font-family="SourceCodePro-Regular" font-size="47.0" fill="#000000" transform="matrix(1.00, 0.00, -0.00, -1.00, 730.6, 13.0)">n</text><text xml:space="preserve" font-family="SourceCodePro-Regular" font-size="47.0" fill="#000000" transform="matrix(1.00, 0.00, -0.00, -1.00, 758.8, 13.0)">a</text><text xml:space="preserve" font-family="SourceCodePro-Regular" font-size="47.0" fill="#000000" transform="matrix(1.00, 0.00, -0.00, -1.00, 787.0, 13.0)">m</text><text xml:space="preserve" font-family="SourceCodePro-Regular" font-size="47.0" fill="#000000" transform="matrix(1.00, 0.00, -0.00, -1.00, 815.2, 13.0)">e</text><text xml:space="preserve" font-family="SourceCodePro-Regular" font-size="47.0" fill="#000000" transform="matrix(1.00, 0.00, -0.00, -1.00, 843.4, 13.0)"> </text><text xml:space="preserve" font-family="SourceCodePro-Regular" font-size="47.0" fill="#000000" transform="matrix(1.00, 0.00, -0.00, -1.00, 871.6, 13.0)">j</text><text xml:space="preserve" font-family="SourceCodePro-Regular" font-size="47.0" fill="#000000" transform="matrix(1.00, 0.00, -0.00, -1.00, 899.8, 13.0)">u</text><text xml:space="preserve" font-family="SourceCodePro-Regular" font-size="47.0" fill="#000000" transform="matrix(1.00, 0.00, -0.00, -1.00, 928.0, 13.0)">p</text><text xml:space="preserve" font-family="SourceCodePro-Regular" font-size="47.0" fill="#000000" transform="matrix(1.00, 0.00, -0.00, -1.00, 956.2, 13.0)">y</text><text xml:space="preserve" font-family="SourceCodePro-Regular" font-size="47.0" fill="#000000" transform="matrix(1.00, 0.00, -0.00, -1.00, 984.4, 13.0)">t</text><text xml:space="preserve" font-family="SourceCodePro-Regular" font-size="47.0" fill="#000000" transform="matrix(1.00, 0.00, -0.00, -1.00, 1012.6, 13.0)">e</text><text xml:space="preserve" font-family="SourceCodePro-Regular" font-size="47.0" fill="#000000" transform="matrix(1.00, 0.00, -0.00, -1.00, 1040.8, 13.0)">r</text><text xml:space="preserve" font-family="SourceCodePro-Regular" font-size="47.0" fill="#000000" transform="matrix(1.00, 0.00, -0.00, -1.00, 1069.0, 13.0)">h</text><text xml:space="preserve" font-family="SourceCodePro-Regular" font-size="47.0" fill="#000000" transform="matrix(1.00, 0.00, -0.00, -1.00, 1097.2, 13.0)">u</text><text xml:space="preserve" font-family="SourceCodePro-Regular" font-size="47.0" fill="#000000" transform="matrix(1.00, 0.00, -0.00, -1.00, 1125.4, 13.0)">b</text><text xml:space="preserve" font-family="SourceCodePro-Regular" font-size="47.0" fill="#000000" transform="matrix(1.00, 0.00, -0.00, -1.00, 1153.6, 13.0)">-</text><text xml:space="preserve" font-family="SourceCodePro-Regular" font-size="47.0" fill="#000000" transform="matrix(1.00, 0.00, -0.00, -1.00, 1181.8, 13.0)">s</text><text xml:space="preserve" font-family="SourceCodePro-Regular" font-size="47.0" fill="#000000" transform="matrix(1.00, 0.00, -0.00, -1.00, 1210.0, 13.0)">e</text><text xml:space="preserve" font-family="SourceCodePro-Regular" font-size="47.0" fill="#000000" transform="matrix(1.00, 0.00, -0.00, -1.00, 1238.2, 13.0)">c</text><text xml:space="preserve" font-family="SourceCodePro-Regular" font-size="47.0" fill="#000000" transform="matrix(1.00, 0.00, -0.00, -1.00, 1266.4, 13.0)">r</text><text xml:space="preserve" font-family="SourceCodePro-Regular" font-size="47.0" fill="#000000" transform="matrix(1.00, 0.00, -0.00, -1.00, 1294.6, 13.0)">e</text><text xml:space="preserve" font-family="SourceCodePro-Regular" font-size="47.0" fill="#000000" transform="matrix(1.00, 0.00, -0.00, -1.00, 1322.8, 13.0)">t</text><text xml:space="preserve" font-family="SourceCodePro-Regular" font-size="47.0" fill="#000000" transform="matrix(1.00, 0.00, -0.00, -1.00, 1351.0, 13.0)">s</text></g></svg>