<?xml version="1.0" encoding="UTF-8" standalone="no"?><svg xmlns="http://www.w3.org/2000/svg" xmlns:xlink="http://www.w3.org/1999/xlink" clip-rule="evenodd" stroke-miterlimit="4.00" viewBox="0 0 287 39"><desc>SVG generated by Keynote</desc><defs></defs><g transform="matrix(1.00, 0.00, -0.00, -1.00, 0.0, 39.0)"><text xml:space="preserve" font-family="SourceCodePro-Regular" font-size="40.0" fill="#000000" transform="matrix(1.00, 0.00, -0.00, -1.00, -1.0, 9.0)">s</text><text xml:space="preserve" font-family="SourceCodePro-Regular" font-size="40.0" fill="#000000" transform="matrix(1.00, 0.00, -0.00, -1.00, 23.0, 9.0)">o</text><text xml:space="preserve" font-family="SourceCodePro-Regular" font-size="40.0" fill="#000000" transform="matrix(1.00, 0.00, -0.00, -1.00, 47.0, 9.0)">u</text><text xml:space="preserve" font-family="SourceCodePro-Regular" font-size="40.0" fill="#000000" transform="matrix(1.00, 0.00, -0.00, -1.00, 71.0, 9.0)">r</text><text xml:space="preserve" font-family="SourceCodePro-Regular" font-size="40.0" fill="#000000" transform="matrix(1.00, 0.00, -0.00, -1.00, 95.0, 9.0)">c</text><text xml:space="preserve" font-family="SourceCodePro-Regular" font-size="40.0" fill="#000000" transform="matrix(1.00, 0.00, -0.00, -1.00, 119.0, 9.0)">e</text><text xml:space="preserve" font-family="SourceCodePro-Regular" font-size="40.0" fill="#000000" transform="matrix(1.00, 0.00, -0.00, -1.00, 143.0, 9.0)"> </text><text xml:space="preserve" font-family="SourceCodePro-Regular" font-size="40.0" fill="#000000" transform="matrix(1.00, 0.00, -0.00, -1.00, 167.0, 9.0)">.</text><text xml:space="preserve" font-family="SourceCodePro-Regular" font-size="40.0" fill="#000000" transform="matrix(1.00, 0.00, -0.00, -1.00, 191.0, 9.0)">/</text><text xml:space="preserve" font-family="SourceCodePro-Regular" font-size="40.0" fill="#000000" transform="matrix(1.00, 0.00, -0.00, -1.00, 215.0, 9.0)">e</text><text xml:space="preserve" font-family="SourceCodePro-Regular" font-size="40.0" fill="#000000" transform="matrix(1.00, 0.00, -0.00, -1.00, 239.0, 9.0)">n</text><text xml:space="preserve" font-family="SourceCodePro-Regular" font-size="40.0" fill="#000000" transform="matrix(1.00, 0.00, -0.00, -1.00, 263.0, 9.0)">v</text></g></svg>