<?xml version="1.0" encoding="UTF-8" standalone="no"?><svg xmlns="http://www.w3.org/2000/svg" xmlns:xlink="http://www.w3.org/1999/xlink" clip-rule="evenodd" stroke-miterlimit="4.00" viewBox="0 0 726 22"><desc>SVG generated by Keynote</desc><defs></defs><g transform="matrix(1.00, 0.00, -0.00, -1.00, 0.0, 22.0)"><text xml:space="preserve" font-family="Helvetica-Light" font-size="16.0" fill="#000000" transform="matrix(1.00, 0.00, -0.00, -1.00, 0.0, 6.0)">h</text><text xml:space="preserve" font-family="Helvetica-Light" font-size="16.0" fill="#000000" transform="matrix(1.00, 0.00, -0.00, -1.00, 8.9, 6.0)">t</text><text xml:space="preserve" font-family="Helvetica-Light" font-size="16.0" fill="#000000" transform="matrix(1.00, 0.00, -0.00, -1.00, 13.3, 6.0)">t</text><text xml:space="preserve" font-family="Helvetica-Light" font-size="16.0" fill="#000000" transform="matrix(1.00, 0.00, -0.00, -1.00, 17.8, 6.0)">p</text><text xml:space="preserve" font-family="Helvetica-Light" font-size="16.0" fill="#000000" transform="matrix(1.00, 0.00, -0.00, -1.00, 27.6, 6.0)">s</text><text xml:space="preserve" font-family="Helvetica-Light" font-size="16.0" fill="#000000" transform="matrix(1.00, 0.00, -0.00, -1.00, 35.6, 6.0)">:</text><text xml:space="preserve" font-family="Helvetica-Light" font-size="16.0" fill="#000000" transform="matrix(1.00, 0.00, -0.00, -1.00, 40.0, 6.0)">/</text><text xml:space="preserve" font-family="Helvetica-Light" font-size="16.0" fill="#000000" transform="matrix(1.00, 0.00, -0.00, -1.00, 44.5, 6.0)">/</text><text xml:space="preserve" font-family="Helvetica-Light" font-size="16.0" fill="#000000" transform="matrix(1.00, 0.00, -0.00, -1.00, 48.9, 6.0)">g</text><text xml:space="preserve" font-family="Helvetica-Light" font-size="16.0" fill="#000000" transform="matrix(1.00, 0.00, -0.00, -1.00, 58.7, 6.0)">i</text><text xml:space="preserve" font-family="Helvetica-Light" font-size="16.0" fill="#000000" transform="matrix(1.00, 0.00, -0.00, -1.00, 62.2, 6.0)">t</text><text xml:space="preserve" font-family="Helvetica-Light" font-size="16.0" fill="#000000" transform="matrix(1.00, 0.00, -0.00, -1.00, 66.7, 6.0)">h</text><text xml:space="preserve" font-family="Helvetica-Light" font-size="16.0" fill="#000000" transform="matrix(1.00, 0.00, -0.00, -1.00, 75.6, 6.0)">u</text><text xml:space="preserve" font-family="Helvetica-Light" font-size="16.0" fill="#000000" transform="matrix(1.00, 0.00, -0.00, -1.00, 84.5, 6.0)">b</text><text xml:space="preserve" font-family="Helvetica-Light" font-size="16.0" fill="#000000" transform="matrix(1.00, 0.00, -0.00, -1.00, 94.3, 6.0)">.</text><text xml:space="preserve" font-family="Helvetica-Light" font-size="16.0" fill="#000000" transform="matrix(1.00, 0.00, -0.00, -1.00, 98.7, 6.0)">c</text><text xml:space="preserve" font-family="Helvetica-Light" font-size="16.0" fill="#000000" transform="matrix(1.00, 0.00, -0.00, -1.00, 107.6, 6.0)">o</text><text xml:space="preserve" font-family="Helvetica-Light" font-size="16.0" fill="#000000" transform="matrix(1.00, 0.00, -0.00, -1.00, 116.5, 6.0)">m</text><text xml:space="preserve" font-family="Helvetica-Light" font-size="16.0" fill="#000000" transform="matrix(1.00, 0.00, -0.00, -1.00, 129.8, 6.0)">/</text><text xml:space="preserve" font-family="Helvetica-Light" font-size="16.0" fill="#000000" transform="matrix(1.00, 0.00, -0.00, -1.00, 134.3, 6.0)">C</text><text xml:space="preserve" font-family="Helvetica-Light" font-size="16.0" fill="#000000" transform="matrix(1.00, 0.00, -0.00, -1.00, 145.8, 6.0)">a</text><text xml:space="preserve" font-family="Helvetica-Light" font-size="16.0" fill="#000000" transform="matrix(1.00, 0.00, -0.00, -1.00, 154.7, 6.0)">m</text><text xml:space="preserve" font-family="Helvetica-Light" font-size="16.0" fill="#000000" transform="matrix(1.00, 0.00, -0.00, -1.00, 168.0, 6.0)">D</text><text xml:space="preserve" font-family="Helvetica-Light" font-size="16.0" fill="#000000" transform="matrix(1.00, 0.00, -0.00, -1.00, 179.6, 6.0)">a</text><text xml:space="preserve" font-family="Helvetica-Light" font-size="16.0" fill="#000000" transform="matrix(1.00, 0.00, -0.00, -1.00, 188.5, 6.0)">v</text><text xml:space="preserve" font-family="Helvetica-Light" font-size="16.0" fill="#000000" transform="matrix(1.00, 0.00, -0.00, -1.00, 196.5, 6.0)">i</text><text xml:space="preserve" font-family="Helvetica-Light" font-size="16.0" fill="#000000" transform="matrix(1.00, 0.00, -0.00, -1.00, 200.0, 6.0)">d</text><text xml:space="preserve" font-family="Helvetica-Light" font-size="16.0" fill="#000000" transform="matrix(1.00, 0.00, -0.00, -1.00, 209.8, 6.0)">s</text><text xml:space="preserve" font-family="Helvetica-Light" font-size="16.0" fill="#000000" transform="matrix(1.00, 0.00, -0.00, -1.00, 217.8, 6.0)">o</text><text xml:space="preserve" font-family="Helvetica-Light" font-size="16.0" fill="#000000" transform="matrix(1.00, 0.00, -0.00, -1.00, 226.7, 6.0)">n</text><text xml:space="preserve" font-family="Helvetica-Light" font-size="16.0" fill="#000000" transform="matrix(1.00, 0.00, -0.00, -1.00, 235.6, 6.0)">P</text><text xml:space="preserve" font-family="Helvetica-Light" font-size="16.0" fill="#000000" transform="matrix(1.00, 0.00, -0.00, -1.00, 245.4, 6.0)">i</text><text xml:space="preserve" font-family="Helvetica-Light" font-size="16.0" fill="#000000" transform="matrix(1.00, 0.00, -0.00, -1.00, 248.9, 6.0)">l</text><text xml:space="preserve" font-family="Helvetica-Light" font-size="16.0" fill="#000000" transform="matrix(1.00, 0.00, -0.00, -1.00, 252.5, 6.0)">o</text><text xml:space="preserve" font-family="Helvetica-Light" font-size="16.0" fill="#000000" transform="matrix(1.00, 0.00, -0.00, -1.00, 261.4, 6.0)">n</text><text xml:space="preserve" font-family="Helvetica-Light" font-size="16.0" fill="#000000" transform="matrix(1.00, 0.00, -0.00, -1.00, 270.3, 6.0)">/</text><text xml:space="preserve" font-family="Helvetica-Light" font-size="16.0" fill="#000000" transform="matrix(1.00, 0.00, -0.00, -1.00, 274.7, 6.0)">P</text><text xml:space="preserve" font-family="Helvetica-Light" font-size="16.0" fill="#000000" transform="matrix(1.00, 0.00, -0.00, -1.00, 284.5, 6.0)">r</text><text xml:space="preserve" font-family="Helvetica-Light" font-size="16.0" fill="#000000" transform="matrix(1.00, 0.00, -0.00, -1.00, 289.6, 6.0)">o</text><text xml:space="preserve" font-family="Helvetica-Light" font-size="16.0" fill="#000000" transform="matrix(1.00, 0.00, -0.00, -1.00, 298.4, 6.0)">b</text><text xml:space="preserve" font-family="Helvetica-Light" font-size="16.0" fill="#000000" transform="matrix(1.00, 0.00, -0.00, -1.00, 308.2, 6.0)">a</text><text xml:space="preserve" font-family="Helvetica-Light" font-size="16.0" fill="#000000" transform="matrix(1.00, 0.00, -0.00, -1.00, 317.1, 6.0)">b</text><text xml:space="preserve" font-family="Helvetica-Light" font-size="16.0" fill="#000000" transform="matrix(1.00, 0.00, -0.00, -1.00, 326.9, 6.0)">i</text><text xml:space="preserve" font-family="Helvetica-Light" font-size="16.0" fill="#000000" transform="matrix(1.00, 0.00, -0.00, -1.00, 330.4, 6.0)">l</text><text xml:space="preserve" font-family="Helvetica-Light" font-size="16.0" fill="#000000" transform="matrix(1.00, 0.00, -0.00, -1.00, 334.0, 6.0)">i</text><text xml:space="preserve" font-family="Helvetica-Light" font-size="16.0" fill="#000000" transform="matrix(1.00, 0.00, -0.00, -1.00, 337.6, 6.0)">s</text><text xml:space="preserve" font-family="Helvetica-Light" font-size="16.0" fill="#000000" transform="matrix(1.00, 0.00, -0.00, -1.00, 345.6, 6.0)">t</text><text xml:space="preserve" font-family="Helvetica-Light" font-size="16.0" fill="#000000" transform="matrix(1.00, 0.00, -0.00, -1.00, 350.0, 6.0)">i</text><text xml:space="preserve" font-family="Helvetica-Light" font-size="16.0" fill="#000000" transform="matrix(1.00, 0.00, -0.00, -1.00, 353.6, 6.0)">c</text><text xml:space="preserve" font-family="Helvetica-Light" font-size="16.0" fill="#000000" transform="matrix(1.00, 0.00, -0.00, -1.00, 362.4, 6.0)">-</text><text xml:space="preserve" font-family="Helvetica-Light" font-size="16.0" fill="#000000" transform="matrix(1.00, 0.00, -0.00, -1.00, 367.8, 6.0)">P</text><text xml:space="preserve" font-family="Helvetica-Light" font-size="16.0" fill="#000000" transform="matrix(1.00, 0.00, -0.00, -1.00, 377.6, 6.0)">r</text><text xml:space="preserve" font-family="Helvetica-Light" font-size="16.0" fill="#000000" transform="matrix(1.00, 0.00, -0.00, -1.00, 382.6, 6.0)">o</text><text xml:space="preserve" font-family="Helvetica-Light" font-size="16.0" fill="#000000" transform="matrix(1.00, 0.00, -0.00, -1.00, 391.5, 6.0)">g</text><text xml:space="preserve" font-family="Helvetica-Light" font-size="16.0" fill="#000000" transform="matrix(1.00, 0.00, -0.00, -1.00, 401.3, 6.0)">r</text><text xml:space="preserve" font-family="Helvetica-Light" font-size="16.0" fill="#000000" transform="matrix(1.00, 0.00, -0.00, -1.00, 406.6, 6.0)">a</text><text xml:space="preserve" font-family="Helvetica-Light" font-size="16.0" fill="#000000" transform="matrix(1.00, 0.00, -0.00, -1.00, 415.5, 6.0)">m</text><text xml:space="preserve" font-family="Helvetica-Light" font-size="16.0" fill="#000000" transform="matrix(1.00, 0.00, -0.00, -1.00, 428.8, 6.0)">m</text><text xml:space="preserve" font-family="Helvetica-Light" font-size="16.0" fill="#000000" transform="matrix(1.00, 0.00, -0.00, -1.00, 442.1, 6.0)">i</text><text xml:space="preserve" font-family="Helvetica-Light" font-size="16.0" fill="#000000" transform="matrix(1.00, 0.00, -0.00, -1.00, 445.7, 6.0)">n</text><text xml:space="preserve" font-family="Helvetica-Light" font-size="16.0" fill="#000000" transform="matrix(1.00, 0.00, -0.00, -1.00, 454.6, 6.0)">g</text><text xml:space="preserve" font-family="Helvetica-Light" font-size="16.0" fill="#000000" transform="matrix(1.00, 0.00, -0.00, -1.00, 464.4, 6.0)">-</text><text xml:space="preserve" font-family="Helvetica-Light" font-size="16.0" fill="#000000" transform="matrix(1.00, 0.00, -0.00, -1.00, 469.7, 6.0)">a</text><text xml:space="preserve" font-family="Helvetica-Light" font-size="16.0" fill="#000000" transform="matrix(1.00, 0.00, -0.00, -1.00, 478.6, 6.0)">n</text><text xml:space="preserve" font-family="Helvetica-Light" font-size="16.0" fill="#000000" transform="matrix(1.00, 0.00, -0.00, -1.00, 487.5, 6.0)">d</text><text xml:space="preserve" font-family="Helvetica-Light" font-size="16.0" fill="#000000" transform="matrix(1.00, 0.00, -0.00, -1.00, 497.3, 6.0)">-</text><text xml:space="preserve" font-family="Helvetica-Light" font-size="16.0" fill="#000000" transform="matrix(1.00, 0.00, -0.00, -1.00, 502.6, 6.0)">B</text><text xml:space="preserve" font-family="Helvetica-Light" font-size="16.0" fill="#000000" transform="matrix(1.00, 0.00, -0.00, -1.00, 513.3, 6.0)">a</text><text xml:space="preserve" font-family="Helvetica-Light" font-size="16.0" fill="#000000" transform="matrix(1.00, 0.00, -0.00, -1.00, 522.2, 6.0)">y</text><text xml:space="preserve" font-family="Helvetica-Light" font-size="16.0" fill="#000000" transform="matrix(1.00, 0.00, -0.00, -1.00, 530.2, 6.0)">e</text><text xml:space="preserve" font-family="Helvetica-Light" font-size="16.0" fill="#000000" transform="matrix(1.00, 0.00, -0.00, -1.00, 539.1, 6.0)">s</text><text xml:space="preserve" font-family="Helvetica-Light" font-size="16.0" fill="#000000" transform="matrix(1.00, 0.00, -0.00, -1.00, 547.1, 6.0)">i</text><text xml:space="preserve" font-family="Helvetica-Light" font-size="16.0" fill="#000000" transform="matrix(1.00, 0.00, -0.00, -1.00, 550.6, 6.0)">a</text><text xml:space="preserve" font-family="Helvetica-Light" font-size="16.0" fill="#000000" transform="matrix(1.00, 0.00, -0.00, -1.00, 559.5, 6.0)">n</text><text xml:space="preserve" font-family="Helvetica-Light" font-size="16.0" fill="#000000" transform="matrix(1.00, 0.00, -0.00, -1.00, 568.4, 6.0)">-</text><text xml:space="preserve" font-family="Helvetica-Light" font-size="16.0" fill="#000000" transform="matrix(1.00, 0.00, -0.00, -1.00, 573.7, 6.0)">M</text><text xml:space="preserve" font-family="Helvetica-Light" font-size="16.0" fill="#000000" transform="matrix(1.00, 0.00, -0.00, -1.00, 587.1, 6.0)">e</text><text xml:space="preserve" font-family="Helvetica-Light" font-size="16.0" fill="#000000" transform="matrix(1.00, 0.00, -0.00, -1.00, 596.0, 6.0)">t</text><text xml:space="preserve" font-family="Helvetica-Light" font-size="16.0" fill="#000000" transform="matrix(1.00, 0.00, -0.00, -1.00, 600.4, 6.0)">h</text><text xml:space="preserve" font-family="Helvetica-Light" font-size="16.0" fill="#000000" transform="matrix(1.00, 0.00, -0.00, -1.00, 609.3, 6.0)">o</text><text xml:space="preserve" font-family="Helvetica-Light" font-size="16.0" fill="#000000" transform="matrix(1.00, 0.00, -0.00, -1.00, 618.2, 6.0)">d</text><text xml:space="preserve" font-family="Helvetica-Light" font-size="16.0" fill="#000000" transform="matrix(1.00, 0.00, -0.00, -1.00, 628.0, 6.0)">s</text><text xml:space="preserve" font-family="Helvetica-Light" font-size="16.0" fill="#000000" transform="matrix(1.00, 0.00, -0.00, -1.00, 636.0, 6.0)">-</text><text xml:space="preserve" font-family="Helvetica-Light" font-size="16.0" fill="#000000" transform="matrix(1.00, 0.00, -0.00, -1.00, 641.3, 6.0)">f</text><text xml:space="preserve" font-family="Helvetica-Light" font-size="16.0" fill="#000000" transform="matrix(1.00, 0.00, -0.00, -1.00, 645.7, 6.0)">o</text><text xml:space="preserve" font-family="Helvetica-Light" font-size="16.0" fill="#000000" transform="matrix(1.00, 0.00, -0.00, -1.00, 654.6, 6.0)">r</text><text xml:space="preserve" font-family="Helvetica-Light" font-size="16.0" fill="#000000" transform="matrix(1.00, 0.00, -0.00, -1.00, 659.1, 6.0)">-</text><text xml:space="preserve" font-family="Helvetica-Light" font-size="16.0" fill="#000000" transform="matrix(1.00, 0.00, -0.00, -1.00, 664.4, 6.0)">H</text><text xml:space="preserve" font-family="Helvetica-Light" font-size="16.0" fill="#000000" transform="matrix(1.00, 0.00, -0.00, -1.00, 676.0, 6.0)">a</text><text xml:space="preserve" font-family="Helvetica-Light" font-size="16.0" fill="#000000" transform="matrix(1.00, 0.00, -0.00, -1.00, 684.9, 6.0)">c</text><text xml:space="preserve" font-family="Helvetica-Light" font-size="16.0" fill="#000000" transform="matrix(1.00, 0.00, -0.00, -1.00, 693.8, 6.0)">k</text><text xml:space="preserve" font-family="Helvetica-Light" font-size="16.0" fill="#000000" transform="matrix(1.00, 0.00, -0.00, -1.00, 701.8, 6.0)">e</text><text xml:space="preserve" font-family="Helvetica-Light" font-size="16.0" fill="#000000" transform="matrix(1.00, 0.00, -0.00, -1.00, 710.7, 6.0)">r</text><text xml:space="preserve" font-family="Helvetica-Light" font-size="16.0" fill="#000000" transform="matrix(1.00, 0.00, -0.00, -1.00, 716.0, 6.0)">s</text><g><clipPath id="clip-774"><path d="M -0.8 3.3 L 724.1 3.3 L 724.1 6.1 L -0.8 6.1 Z M -0.8 3.3 "></path></clipPath><g clip-path="url(#clip-774)"><path d="M 6.1 22.1 L 730.1 22.1 " fill="none" stroke="#000000" stroke-width="0.80" stroke-miterlimit="0.00" transform="matrix(1.00, 0.00, 0.00, -1.00, -6.0, 26.9)"></path></g></g></g></svg>