<?xml version="1.0" encoding="UTF-8" standalone="no"?><svg xmlns="http://www.w3.org/2000/svg" xmlns:xlink="http://www.w3.org/1999/xlink" clip-rule="evenodd" stroke-miterlimit="4.00" viewBox="0 0 1668 50"><desc>SVG generated by Keynote</desc><defs></defs><g transform="matrix(1.00, 0.00, -0.00, -1.00, 0.0, 50.0)"><text xml:space="preserve" font-family="SourceCodePro-Regular" font-size="50.0" fill="#000000" transform="matrix(1.00, 0.00, -0.00, -1.00, -8.0, 12.0)">.</text><text xml:space="preserve" font-family="SourceCodePro-Regular" font-size="50.0" fill="#000000" transform="matrix(1.00, 0.00, -0.00, -1.00, 22.0, 12.0)">/</text><text xml:space="preserve" font-family="SourceCodePro-Regular" font-size="50.0" fill="#000000" transform="matrix(1.00, 0.00, -0.00, -1.00, 52.0, 12.0)">l</text><text xml:space="preserve" font-family="SourceCodePro-Regular" font-size="50.0" fill="#000000" transform="matrix(1.00, 0.00, -0.00, -1.00, 82.0, 12.0)">e</text><text xml:space="preserve" font-family="SourceCodePro-Regular" font-size="50.0" fill="#000000" transform="matrix(1.00, 0.00, -0.00, -1.00, 112.0, 12.0)">t</text><text xml:space="preserve" font-family="SourceCodePro-Regular" font-size="50.0" fill="#000000" transform="matrix(1.00, 0.00, -0.00, -1.00, 142.0, 12.0)">s</text><text xml:space="preserve" font-family="SourceCodePro-Regular" font-size="50.0" fill="#000000" transform="matrix(1.00, 0.00, -0.00, -1.00, 172.0, 12.0)">e</text><text xml:space="preserve" font-family="SourceCodePro-Regular" font-size="50.0" fill="#000000" transform="matrix(1.00, 0.00, -0.00, -1.00, 202.0, 12.0)">n</text><text xml:space="preserve" font-family="SourceCodePro-Regular" font-size="50.0" fill="#000000" transform="matrix(1.00, 0.00, -0.00, -1.00, 232.0, 12.0)">c</text><text xml:space="preserve" font-family="SourceCodePro-Regular" font-size="50.0" fill="#000000" transform="matrix(1.00, 0.00, -0.00, -1.00, 262.0, 12.0)">r</text><text xml:space="preserve" font-family="SourceCodePro-Regular" font-size="50.0" fill="#000000" transform="matrix(1.00, 0.00, -0.00, -1.00, 292.0, 12.0)">y</text><text xml:space="preserve" font-family="SourceCodePro-Regular" font-size="50.0" fill="#000000" transform="matrix(1.00, 0.00, -0.00, -1.00, 322.0, 12.0)">p</text><text xml:space="preserve" font-family="SourceCodePro-Regular" font-size="50.0" fill="#000000" transform="matrix(1.00, 0.00, -0.00, -1.00, 352.0, 12.0)">t</text><text xml:space="preserve" font-family="SourceCodePro-Regular" font-size="50.0" fill="#000000" transform="matrix(1.00, 0.00, -0.00, -1.00, 382.0, 12.0)">-</text><text xml:space="preserve" font-family="SourceCodePro-Regular" font-size="50.0" fill="#000000" transform="matrix(1.00, 0.00, -0.00, -1.00, 412.0, 12.0)">a</text><text xml:space="preserve" font-family="SourceCodePro-Regular" font-size="50.0" fill="#000000" transform="matrix(1.00, 0.00, -0.00, -1.00, 442.0, 12.0)">u</text><text xml:space="preserve" font-family="SourceCodePro-Regular" font-size="50.0" fill="#000000" transform="matrix(1.00, 0.00, -0.00, -1.00, 472.0, 12.0)">t</text><text xml:space="preserve" font-family="SourceCodePro-Regular" font-size="50.0" fill="#000000" transform="matrix(1.00, 0.00, -0.00, -1.00, 502.0, 12.0)">o</text><text xml:space="preserve" font-family="SourceCodePro-Regular" font-size="50.0" fill="#000000" transform="matrix(1.00, 0.00, -0.00, -1.00, 532.0, 12.0)"> </text><text xml:space="preserve" font-family="SourceCodePro-Regular" font-size="50.0" fill="#000000" transform="matrix(1.00, 0.00, -0.00, -1.00, 562.0, 12.0)">c</text><text xml:space="preserve" font-family="SourceCodePro-Regular" font-size="50.0" fill="#000000" transform="matrix(1.00, 0.00, -0.00, -1.00, 592.0, 12.0)">e</text><text xml:space="preserve" font-family="SourceCodePro-Regular" font-size="50.0" fill="#000000" transform="matrix(1.00, 0.00, -0.00, -1.00, 622.0, 12.0)">r</text><text xml:space="preserve" font-family="SourceCodePro-Regular" font-size="50.0" fill="#000000" transform="matrix(1.00, 0.00, -0.00, -1.00, 652.0, 12.0)">t</text><text xml:space="preserve" font-family="SourceCodePro-Regular" font-size="50.0" fill="#000000" transform="matrix(1.00, 0.00, -0.00, -1.00, 682.0, 12.0)">o</text><text xml:space="preserve" font-family="SourceCodePro-Regular" font-size="50.0" fill="#000000" transform="matrix(1.00, 0.00, -0.00, -1.00, 712.0, 12.0)">n</text><text xml:space="preserve" font-family="SourceCodePro-Regular" font-size="50.0" fill="#000000" transform="matrix(1.00, 0.00, -0.00, -1.00, 742.0, 12.0)">l</text><text xml:space="preserve" font-family="SourceCodePro-Regular" font-size="50.0" fill="#000000" transform="matrix(1.00, 0.00, -0.00, -1.00, 772.0, 12.0)">y</text><text xml:space="preserve" font-family="SourceCodePro-Regular" font-size="50.0" fill="#000000" transform="matrix(1.00, 0.00, -0.00, -1.00, 802.0, 12.0)"> </text><text xml:space="preserve" font-family="SourceCodePro-Regular" font-size="50.0" fill="#000000" transform="matrix(1.00, 0.00, -0.00, -1.00, 832.0, 12.0)">-</text><text xml:space="preserve" font-family="SourceCodePro-Regular" font-size="50.0" fill="#000000" transform="matrix(1.00, 0.00, -0.00, -1.00, 862.0, 12.0)">-</text><text xml:space="preserve" font-family="SourceCodePro-Regular" font-size="50.0" fill="#000000" transform="matrix(1.00, 0.00, -0.00, -1.00, 892.0, 12.0)">s</text><text xml:space="preserve" font-family="SourceCodePro-Regular" font-size="50.0" fill="#000000" transform="matrix(1.00, 0.00, -0.00, -1.00, 922.0, 12.0)">t</text><text xml:space="preserve" font-family="SourceCodePro-Regular" font-size="50.0" fill="#000000" transform="matrix(1.00, 0.00, -0.00, -1.00, 952.0, 12.0)">a</text><text xml:space="preserve" font-family="SourceCodePro-Regular" font-size="50.0" fill="#000000" transform="matrix(1.00, 0.00, -0.00, -1.00, 982.0, 12.0)">n</text><text xml:space="preserve" font-family="SourceCodePro-Regular" font-size="50.0" fill="#000000" transform="matrix(1.00, 0.00, -0.00, -1.00, 1012.0, 12.0)">d</text><text xml:space="preserve" font-family="SourceCodePro-Regular" font-size="50.0" fill="#000000" transform="matrix(1.00, 0.00, -0.00, -1.00, 1042.0, 12.0)">a</text><text xml:space="preserve" font-family="SourceCodePro-Regular" font-size="50.0" fill="#000000" transform="matrix(1.00, 0.00, -0.00, -1.00, 1072.0, 12.0)">l</text><text xml:space="preserve" font-family="SourceCodePro-Regular" font-size="50.0" fill="#000000" transform="matrix(1.00, 0.00, -0.00, -1.00, 1102.0, 12.0)">o</text><text xml:space="preserve" font-family="SourceCodePro-Regular" font-size="50.0" fill="#000000" transform="matrix(1.00, 0.00, -0.00, -1.00, 1132.0, 12.0)">n</text><text xml:space="preserve" font-family="SourceCodePro-Regular" font-size="50.0" fill="#000000" transform="matrix(1.00, 0.00, -0.00, -1.00, 1162.0, 12.0)">e</text><text xml:space="preserve" font-family="SourceCodePro-Regular" font-size="50.0" fill="#000000" transform="matrix(1.00, 0.00, -0.00, -1.00, 1192.0, 12.0)"> </text><text xml:space="preserve" font-family="SourceCodePro-Regular" font-size="50.0" fill="#000000" transform="matrix(1.00, 0.00, -0.00, -1.00, 1222.0, 12.0)">-</text><text xml:space="preserve" font-family="SourceCodePro-Regular" font-size="50.0" fill="#000000" transform="matrix(1.00, 0.00, -0.00, -1.00, 1252.0, 12.0)">d</text><text xml:space="preserve" font-family="SourceCodePro-Regular" font-size="50.0" fill="#000000" transform="matrix(1.00, 0.00, -0.00, -1.00, 1282.0, 12.0)"> </text><text xml:space="preserve" font-family="SourceCodePro-Regular" font-size="50.0" fill="#000000" transform="matrix(1.00, 0.00, -0.00, -1.00, 1312.0, 12.0)">m</text><text xml:space="preserve" font-family="SourceCodePro-Regular" font-size="50.0" fill="#000000" transform="matrix(1.00, 0.00, -0.00, -1.00, 1342.0, 12.0)">y</text><text xml:space="preserve" font-family="SourceCodePro-Regular" font-size="50.0" fill="#000000" transform="matrix(1.00, 0.00, -0.00, -1.00, 1372.0, 12.0)">d</text><text xml:space="preserve" font-family="SourceCodePro-Regular" font-size="50.0" fill="#000000" transform="matrix(1.00, 0.00, -0.00, -1.00, 1402.0, 12.0)">o</text><text xml:space="preserve" font-family="SourceCodePro-Regular" font-size="50.0" fill="#000000" transform="matrix(1.00, 0.00, -0.00, -1.00, 1432.0, 12.0)">m</text><text xml:space="preserve" font-family="SourceCodePro-Regular" font-size="50.0" fill="#000000" transform="matrix(1.00, 0.00, -0.00, -1.00, 1462.0, 12.0)">a</text><text xml:space="preserve" font-family="SourceCodePro-Regular" font-size="50.0" fill="#000000" transform="matrix(1.00, 0.00, -0.00, -1.00, 1492.0, 12.0)">i</text><text xml:space="preserve" font-family="SourceCodePro-Regular" font-size="50.0" fill="#000000" transform="matrix(1.00, 0.00, -0.00, -1.00, 1522.0, 12.0)">n</text><text xml:space="preserve" font-family="SourceCodePro-Regular" font-size="50.0" fill="#000000" transform="matrix(1.00, 0.00, -0.00, -1.00, 1552.0, 12.0)">.</text><text xml:space="preserve" font-family="SourceCodePro-Regular" font-size="50.0" fill="#000000" transform="matrix(1.00, 0.00, -0.00, -1.00, 1582.0, 12.0)">t</text><text xml:space="preserve" font-family="SourceCodePro-Regular" font-size="50.0" fill="#000000" transform="matrix(1.00, 0.00, -0.00, -1.00, 1612.0, 12.0)">l</text><text xml:space="preserve" font-family="SourceCodePro-Regular" font-size="50.0" fill="#000000" transform="matrix(1.00, 0.00, -0.00, -1.00, 1642.0, 12.0)">d</text></g></svg>