<?xml version="1.0" encoding="UTF-8" standalone="no"?><svg xmlns="http://www.w3.org/2000/svg" xmlns:xlink="http://www.w3.org/1999/xlink" clip-rule="evenodd" stroke-miterlimit="4.00" viewBox="0 0 1920 1080"><desc>SVG generated by Keynote</desc><defs></defs><g transform="matrix(1.00, 0.00, -0.00, -1.00, 0.0, 1080.0)"><path d="M 0.0 1080.0 L 1920.0 1080.0 L 1920.0 0.0 L 0.0 0.0 Z M 0.0 1080.0 " fill="#FEFFFF"></path><g><clipPath id="clip-911"><path d="M 191.0 965.0 L 284.0 965.0 L 284.0 857.0 L 191.0 857.0 Z M 190.9 965.1 "></path></clipPath><g clip-path="url(#clip-911)"><image xlink:href="../../501581DD-E1D1-4738-8AE3-F573C3B06ED2/assets/D6FB576FDB4D798F7363F3BF6AC733AF.png" width="108.00" height="108.00" transform="matrix(0.99, 0.00, -0.00, -1.00, 184.0, 965.0)"></image></g></g><text xml:space="preserve" font-family="MyriadPro-Regular" font-size="110.9" fill="#000000" transform="matrix(1.00, 0.00, -0.00, -1.00, 357.0, 884.0)">S</text><text xml:space="preserve" font-family="MyriadPro-Regular" font-size="110.9" fill="#000000" transform="matrix(1.00, 0.00, -0.00, -1.00, 411.3, 884.0)">t</text><text xml:space="preserve" font-family="MyriadPro-Regular" font-size="110.9" fill="#000000" transform="matrix(1.00, 0.00, -0.00, -1.00, 448.0, 884.0)">a</text><text xml:space="preserve" font-family="MyriadPro-Regular" font-size="110.9" fill="#000000" transform="matrix(1.00, 0.00, -0.00, -1.00, 501.5, 884.0)">r</text><text xml:space="preserve" font-family="MyriadPro-Regular" font-size="110.9" fill="#000000" transform="matrix(1.00, 0.00, -0.00, -1.00, 540.4, 884.0)">t</text><text xml:space="preserve" font-family="MyriadPro-Regular" font-size="110.9" fill="#000000" transform="matrix(1.00, 0.00, -0.00, -1.00, 577.1, 884.0)"> </text><text xml:space="preserve" font-family="MyriadPro-Regular" font-size="110.9" fill="#000000" transform="matrix(1.00, 0.00, -0.00, -1.00, 600.6, 884.0)">c</text><text xml:space="preserve" font-family="MyriadPro-Regular" font-size="110.9" fill="#000000" transform="matrix(1.00, 0.00, -0.00, -1.00, 649.6, 884.0)">o</text><text xml:space="preserve" font-family="MyriadPro-Regular" font-size="110.9" fill="#000000" transform="matrix(1.00, 0.00, -0.00, -1.00, 710.5, 884.0)">n</text><text xml:space="preserve" font-family="MyriadPro-Regular" font-size="110.9" fill="#000000" transform="matrix(1.00, 0.00, -0.00, -1.00, 772.0, 884.0)">f</text><text xml:space="preserve" font-family="MyriadPro-Regular" font-size="110.9" fill="#000000" transform="matrix(1.00, 0.00, -0.00, -1.00, 804.4, 884.0)">i</text><text xml:space="preserve" font-family="MyriadPro-Regular" font-size="110.9" fill="#000000" transform="matrix(1.00, 0.00, -0.00, -1.00, 830.3, 884.0)">g</text><text xml:space="preserve" font-family="MyriadPro-Regular" font-size="110.9" fill="#000000" transform="matrix(1.00, 0.00, -0.00, -1.00, 892.3, 884.0)">u</text><text xml:space="preserve" font-family="MyriadPro-Regular" font-size="110.9" fill="#000000" transform="matrix(1.00, 0.00, -0.00, -1.00, 953.4, 884.0)">r</text><text xml:space="preserve" font-family="MyriadPro-Regular" font-size="110.9" fill="#000000" transform="matrix(1.00, 0.00, -0.00, -1.00, 990.1, 884.0)">i</text><text xml:space="preserve" font-family="MyriadPro-Regular" font-size="110.9" fill="#000000" transform="matrix(1.00, 0.00, -0.00, -1.00, 1016.1, 884.0)">n</text><text xml:space="preserve" font-family="MyriadPro-Regular" font-size="110.9" fill="#000000" transform="matrix(1.00, 0.00, -0.00, -1.00, 1077.6, 884.0)">g</text><text xml:space="preserve" font-family="MyriadPro-Regular" font-size="110.9" fill="#000000" transform="matrix(1.00, 0.00, -0.00, -1.00, 1139.6, 884.0)"> </text><text xml:space="preserve" font-family="MyriadPro-Regular" font-size="110.9" fill="#000000" transform="matrix(1.00, 0.00, -0.00, -1.00, 1163.1, 884.0)">J</text><text xml:space="preserve" font-family="MyriadPro-Regular" font-size="110.9" fill="#000000" transform="matrix(1.00, 0.00, -0.00, -1.00, 1204.1, 884.0)">u</text><text xml:space="preserve" font-family="MyriadPro-Regular" font-size="110.9" fill="#000000" transform="matrix(1.00, 0.00, -0.00, -1.00, 1265.2, 884.0)">p</text><text xml:space="preserve" font-family="MyriadPro-Regular" font-size="110.9" fill="#000000" transform="matrix(1.00, 0.00, -0.00, -1.00, 1327.5, 884.0)">y</text><text xml:space="preserve" font-family="MyriadPro-Regular" font-size="110.9" fill="#000000" transform="matrix(1.00, 0.00, -0.00, -1.00, 1379.8, 884.0)">t</text><text xml:space="preserve" font-family="MyriadPro-Regular" font-size="110.9" fill="#000000" transform="matrix(1.00, 0.00, -0.00, -1.00, 1415.8, 884.0)">e</text><text xml:space="preserve" font-family="MyriadPro-Regular" font-size="110.9" fill="#000000" transform="matrix(1.00, 0.00, -0.00, -1.00, 1471.3, 884.0)">r</text><text xml:space="preserve" font-family="MyriadPro-Regular" font-size="110.9" fill="#000000" transform="matrix(1.00, 0.00, -0.00, -1.00, 1507.6, 884.0)">H</text><text xml:space="preserve" font-family="MyriadPro-Regular" font-size="110.9" fill="#000000" transform="matrix(1.00, 0.00, -0.00, -1.00, 1579.9, 884.0)">u</text><text xml:space="preserve" font-family="MyriadPro-Regular" font-size="110.9" fill="#000000" transform="matrix(1.00, 0.00, -0.00, -1.00, 1641.0, 884.0)">b</text><text xml:space="preserve" font-family="SourceCodePro-Regular" font-size="50.0" fill="#000000" transform="matrix(1.00, 0.00, -0.00, -1.00, 508.0, 698.0)">j</text><text xml:space="preserve" font-family="SourceCodePro-Regular" font-size="50.0" fill="#000000" transform="matrix(1.00, 0.00, -0.00, -1.00, 538.0, 698.0)">u</text><text xml:space="preserve" font-family="SourceCodePro-Regular" font-size="50.0" fill="#000000" transform="matrix(1.00, 0.00, -0.00, -1.00, 568.0, 698.0)">p</text><text xml:space="preserve" font-family="SourceCodePro-Regular" font-size="50.0" fill="#000000" transform="matrix(1.00, 0.00, -0.00, -1.00, 598.0, 698.0)">y</text><text xml:space="preserve" font-family="SourceCodePro-Regular" font-size="50.0" fill="#000000" transform="matrix(1.00, 0.00, -0.00, -1.00, 628.0, 698.0)">t</text><text xml:space="preserve" font-family="SourceCodePro-Regular" font-size="50.0" fill="#000000" transform="matrix(1.00, 0.00, -0.00, -1.00, 658.0, 698.0)">e</text><text xml:space="preserve" font-family="SourceCodePro-Regular" font-size="50.0" fill="#000000" transform="matrix(1.00, 0.00, -0.00, -1.00, 688.0, 698.0)">r</text><text xml:space="preserve" font-family="SourceCodePro-Regular" font-size="50.0" fill="#000000" transform="matrix(1.00, 0.00, -0.00, -1.00, 718.0, 698.0)">h</text><text xml:space="preserve" font-family="SourceCodePro-Regular" font-size="50.0" fill="#000000" transform="matrix(1.00, 0.00, -0.00, -1.00, 748.0, 698.0)">u</text><text xml:space="preserve" font-family="SourceCodePro-Regular" font-size="50.0" fill="#000000" transform="matrix(1.00, 0.00, -0.00, -1.00, 778.0, 698.0)">b</text><text xml:space="preserve" font-family="SourceCodePro-Regular" font-size="50.0" fill="#000000" transform="matrix(1.00, 0.00, -0.00, -1.00, 808.0, 698.0)"> </text><text xml:space="preserve" font-family="SourceCodePro-Regular" font-size="50.0" fill="#000000" transform="matrix(1.00, 0.00, -0.00, -1.00, 838.0, 698.0)">-</text><text xml:space="preserve" font-family="SourceCodePro-Regular" font-size="50.0" fill="#000000" transform="matrix(1.00, 0.00, -0.00, -1.00, 868.0, 698.0)">-</text><text xml:space="preserve" font-family="SourceCodePro-Regular" font-size="50.0" fill="#000000" transform="matrix(1.00, 0.00, -0.00, -1.00, 898.0, 698.0)">g</text><text xml:space="preserve" font-family="SourceCodePro-Regular" font-size="50.0" fill="#000000" transform="matrix(1.00, 0.00, -0.00, -1.00, 928.0, 698.0)">e</text><text xml:space="preserve" font-family="SourceCodePro-Regular" font-size="50.0" fill="#000000" transform="matrix(1.00, 0.00, -0.00, -1.00, 958.0, 698.0)">n</text><text xml:space="preserve" font-family="SourceCodePro-Regular" font-size="50.0" fill="#000000" transform="matrix(1.00, 0.00, -0.00, -1.00, 988.0, 698.0)">e</text><text xml:space="preserve" font-family="SourceCodePro-Regular" font-size="50.0" fill="#000000" transform="matrix(1.00, 0.00, -0.00, -1.00, 1018.0, 698.0)">r</text><text xml:space="preserve" font-family="SourceCodePro-Regular" font-size="50.0" fill="#000000" transform="matrix(1.00, 0.00, -0.00, -1.00, 1048.0, 698.0)">a</text><text xml:space="preserve" font-family="SourceCodePro-Regular" font-size="50.0" fill="#000000" transform="matrix(1.00, 0.00, -0.00, -1.00, 1078.0, 698.0)">t</text><text xml:space="preserve" font-family="SourceCodePro-Regular" font-size="50.0" fill="#000000" transform="matrix(1.00, 0.00, -0.00, -1.00, 1108.0, 698.0)">e</text><text xml:space="preserve" font-family="SourceCodePro-Regular" font-size="50.0" fill="#000000" transform="matrix(1.00, 0.00, -0.00, -1.00, 1138.0, 698.0)">-</text><text xml:space="preserve" font-family="SourceCodePro-Regular" font-size="50.0" fill="#000000" transform="matrix(1.00, 0.00, -0.00, -1.00, 1168.0, 698.0)">c</text><text xml:space="preserve" font-family="SourceCodePro-Regular" font-size="50.0" fill="#000000" transform="matrix(1.00, 0.00, -0.00, -1.00, 1198.0, 698.0)">o</text><text xml:space="preserve" font-family="SourceCodePro-Regular" font-size="50.0" fill="#000000" transform="matrix(1.00, 0.00, -0.00, -1.00, 1228.0, 698.0)">n</text><text xml:space="preserve" font-family="SourceCodePro-Regular" font-size="50.0" fill="#000000" transform="matrix(1.00, 0.00, -0.00, -1.00, 1258.0, 698.0)">f</text><text xml:space="preserve" font-family="SourceCodePro-Regular" font-size="50.0" fill="#000000" transform="matrix(1.00, 0.00, -0.00, -1.00, 1288.0, 698.0)">i</text><text xml:space="preserve" font-family="SourceCodePro-Regular" font-size="50.0" fill="#000000" transform="matrix(1.00, 0.00, -0.00, -1.00, 1318.0, 698.0)">g</text></g></svg>